<svg xmlns="http://www.w3.org/2000/svg" viewBox="0 0 214.14 78.15"><defs><style>.cls-1{fill:#fff;}.cls-2{opacity:0.4;}</style></defs><g id="Layer_2" data-name="Layer 2"><g id="Layer_1-2" data-name="Layer 1"><path class="cls-1" d="M1.67,43A6.6,6.6,0,0,1,0,38.24a6.09,6.09,0,0,1,1.34-4.05,10.08,10.08,0,0,1,3.18-2.52,40.24,40.24,0,0,1,4.84-2,25.71,25.71,0,0,0,4.55-1.91,2.67,2.67,0,0,0,1.48-2.36V22c0-2.12-.45-3.57-1.35-4.36a5.51,5.51,0,0,0-3.75-1.17c-2.55,0-4.36.65-5.42,2a3.43,3.43,0,0,1,1.84,1.15,3.28,3.28,0,0,1,.74,2.19A2.79,2.79,0,0,1,6.57,24a3.19,3.19,0,0,1-2.24.79A2.75,2.75,0,0,1,2,23.82a3.58,3.58,0,0,1-.77-2.33,3.64,3.64,0,0,1,.63-2.19,7.74,7.74,0,0,1,1.89-1.75A11.53,11.53,0,0,1,7.12,16a15.56,15.56,0,0,1,4.43-.6q4.27,0,6.46,2a6.12,6.12,0,0,1,1.84,3,19.07,19.07,0,0,1,.46,4.68V40.38a3.76,3.76,0,0,0,.39,2A1.42,1.42,0,0,0,22,43a2.6,2.6,0,0,0,1.23-.3,6.72,6.72,0,0,0,1.24-.85l.6.93a13.27,13.27,0,0,1-2.44,1.56,6.08,6.08,0,0,1-2.55.47c-1.75,0-3-.44-3.66-1.31a5.57,5.57,0,0,1-1-3.56,9.62,9.62,0,0,1-3.78,3.8,10.67,10.67,0,0,1-4.82,1.07A6.83,6.83,0,0,1,1.67,43Zm13.72-4.62V27.68A3.88,3.88,0,0,1,14,28.94c-.59.32-1.48.76-2.69,1.31A24.35,24.35,0,0,0,8,31.92a7.35,7.35,0,0,0-2.22,2.16,6.13,6.13,0,0,0-.93,3.51A5.2,5.2,0,0,0,6,41.31,4.2,4.2,0,0,0,9.2,42.57Q12.82,42.57,15.39,38.41Z"/><path class="cls-1" d="M69.7,42.38a4.83,4.83,0,0,0,3.23.85v1.15q-5-.23-6.57-.22t-6.13.22V43.23a3.8,3.8,0,0,0,2.82-.85,4.59,4.59,0,0,0,.79-3.1V23.46a19.07,19.07,0,0,0-.24-3.37A3.79,3.79,0,0,0,62.45,18a4.07,4.07,0,0,0-2.77-.82,6,6,0,0,0-3.78,1.32,8.67,8.67,0,0,0-2.65,3.58,12.78,12.78,0,0,0-1,5V39.28a4.11,4.11,0,0,0,.93,3.1,4.83,4.83,0,0,0,3.23.85v1.15q-5-.23-6.57-.22c-1,0-3.07.07-6.13.22V43.23a3.8,3.8,0,0,0,2.82-.85,4.59,4.59,0,0,0,.79-3.1V23.46a19.07,19.07,0,0,0-.24-3.37A3.79,3.79,0,0,0,46,18a4.07,4.07,0,0,0-2.77-.82,6,6,0,0,0-3.78,1.32,8.64,8.64,0,0,0-2.65,3.61,12.93,12.93,0,0,0-1,5V39.28a4.59,4.59,0,0,0,.79,3.1,3.8,3.8,0,0,0,2.82.85v1.15c-3.06-.15-5.11-.22-6.13-.22s-3.21.07-6.57.22V43.23A4.83,4.83,0,0,0,30,42.38a4.11,4.11,0,0,0,.93-3.1V22.15A5.82,5.82,0,0,0,30,18.48a3.94,3.94,0,0,0-3.23-1.15V16.18c1.17.11,2.3.16,3.39.16a18,18,0,0,0,5.7-.76V22a10.18,10.18,0,0,1,3.72-5,9.24,9.24,0,0,1,5.26-1.62,7.45,7.45,0,0,1,5.69,2.08,7.37,7.37,0,0,1,1.7,4.38,9.32,9.32,0,0,1,9.09-6.46A7.45,7.45,0,0,1,67,17.49a6.24,6.24,0,0,1,1.4,2.79,19.49,19.49,0,0,1,.41,4.38V39.28A4.11,4.11,0,0,0,69.7,42.38Z"/><path class="cls-1" d="M118.32,42.38a4.83,4.83,0,0,0,3.23.85v1.15q-5-.23-6.57-.22t-6.13.22V43.23a3.8,3.8,0,0,0,2.82-.85,4.59,4.59,0,0,0,.79-3.1V23.46a19.07,19.07,0,0,0-.24-3.37A3.79,3.79,0,0,0,111.07,18a4.06,4.06,0,0,0-2.77-.82,6,6,0,0,0-3.78,1.32,8.67,8.67,0,0,0-2.65,3.58,12.78,12.78,0,0,0-1,5V39.28a4.11,4.11,0,0,0,.93,3.1,4.83,4.83,0,0,0,3.23.85v1.15q-5-.23-6.57-.22t-6.13.22V43.23a3.8,3.8,0,0,0,2.82-.85,4.59,4.59,0,0,0,.79-3.1V23.46a19.07,19.07,0,0,0-.24-3.37A3.79,3.79,0,0,0,94.59,18a4.07,4.07,0,0,0-2.77-.82A6,6,0,0,0,88,18.48a8.64,8.64,0,0,0-2.65,3.61,12.93,12.93,0,0,0-1,5V39.28a4.59,4.59,0,0,0,.79,3.1,3.8,3.8,0,0,0,2.82.85v1.15c-3.06-.15-5.11-.22-6.13-.22s-3.21.07-6.57.22V43.23a4.83,4.83,0,0,0,3.23-.85,4.11,4.11,0,0,0,.93-3.1V22.15a5.82,5.82,0,0,0-.93-3.67,3.94,3.94,0,0,0-3.23-1.15V16.18c1.17.11,2.3.16,3.4.16a17.92,17.92,0,0,0,5.69-.76V22a10.24,10.24,0,0,1,3.72-5,9.24,9.24,0,0,1,5.26-1.62,7.45,7.45,0,0,1,5.69,2.08,7.31,7.31,0,0,1,1.7,4.38,9.32,9.32,0,0,1,9.09-6.46,7.49,7.49,0,0,1,5.7,2.08A6.33,6.33,0,0,1,117,20.28a18.92,18.92,0,0,1,.41,4.38V39.28A4.11,4.11,0,0,0,118.32,42.38Z"/><path class="cls-1" d="M126.18,43a6.6,6.6,0,0,1-1.67-4.79,6.09,6.09,0,0,1,1.34-4.05A10,10,0,0,1,129,31.67a40.24,40.24,0,0,1,4.84-2,25.71,25.71,0,0,0,4.55-1.91,2.67,2.67,0,0,0,1.48-2.36V22c0-2.12-.45-3.57-1.35-4.36a5.51,5.51,0,0,0-3.75-1.17c-2.55,0-4.36.65-5.42,2a3.43,3.43,0,0,1,1.84,1.15,3.28,3.28,0,0,1,.74,2.19,2.79,2.79,0,0,1-.88,2.16,3.19,3.19,0,0,1-2.24.79,2.75,2.75,0,0,1-2.3-.95,3.58,3.58,0,0,1-.77-2.33,3.64,3.64,0,0,1,.63-2.19,7.74,7.74,0,0,1,1.89-1.75A11.53,11.53,0,0,1,131.63,16a15.56,15.56,0,0,1,4.43-.6q4.27,0,6.46,2a6.12,6.12,0,0,1,1.84,3,19.07,19.07,0,0,1,.46,4.68V40.38a3.76,3.76,0,0,0,.39,2,1.42,1.42,0,0,0,1.31.6,2.6,2.6,0,0,0,1.23-.3A6.36,6.36,0,0,0,149,41.8l.61.93a13.27,13.27,0,0,1-2.44,1.56,6.11,6.11,0,0,1-2.55.47c-1.75,0-3-.44-3.66-1.31a5.57,5.57,0,0,1-1-3.56,9.62,9.62,0,0,1-3.78,3.8,10.67,10.67,0,0,1-4.82,1.07A6.83,6.83,0,0,1,126.18,43Zm13.72-4.62V27.68a3.88,3.88,0,0,1-1.37,1.26c-.59.32-1.48.76-2.69,1.31a24.35,24.35,0,0,0-3.36,1.67,7.35,7.35,0,0,0-2.22,2.16,6.13,6.13,0,0,0-.93,3.51,5.2,5.2,0,0,0,1.2,3.72,4.19,4.19,0,0,0,3.18,1.26Q137.32,42.57,139.9,38.41Z"/><g class="cls-2"><path class="cls-1" d="M154.23,16l1-1.26,2.38-3.09c.78-1,1.58-2,2.37-3,.53-.69,1-1.4,1.58-2.09l2.26-3c.78-1,1.57-2,2.33-3.07A1,1,0,0,1,167,0h34.56a.92.92,0,0,1,.89.49c.42.66.94,1.25,1.41,1.86,1,1.36,2.07,2.73,3.12,4.08.77,1,1.56,2,2.33,3s1.5,2,2.25,3,1.52,2,2.29,2.95c.34.43.36.53,0,.92l-3.22,3.14-3.52,3.39-3.89,3.77c-1.25,1.21-2.53,2.4-3.78,3.61-1.44,1.4-2.86,2.81-4.29,4.2l-3,2.92c-1,.91-1.92,1.8-2.87,2.72s-1.65,1.65-2.48,2.46-1.5,1.42-2.25,2.13c-.21.2-.35.17-.59-.07l-5-4.92c-.9-.88-1.8-1.77-2.71-2.64s-1.59-1.48-2.37-2.23l-2.39-2.32-3.31-3.2c-.54-.53-1.06-1.08-1.61-1.6-.72-.7-1.47-1.38-2.2-2.08l-2.71-2.64-2.23-2.14L157,18.51c-.78-.74-1.54-1.5-2.31-2.23A3.24,3.24,0,0,0,154.23,16ZM184.34,40.7c.78-1.68,1.51-3.26,2.25-4.84s1.49-3.16,2.23-4.75,1.45-3.13,2.18-4.7,1.49-3.16,2.21-4.75,1.49-3.14,2.19-4.75c-.72-.15-21.75-.12-22.21,0l1,2.05c.71,1.55,1.43,3.11,2.15,4.66.58,1.27,1.19,2.53,1.77,3.8.3.63.56,1.27.86,1.91.56,1.17,1.13,2.33,1.68,3.51s1,2.19,1.51,3.29c.61,1.32,1.23,2.64,1.85,4A4.43,4.43,0,0,0,184.34,40.7ZM175.63,2.11c-.2.76-.42,1.49-.59,2.22-.24,1.06-.45,2.13-.68,3.2s-.46,2.13-.68,3.2c-.13.61-.25,1.23-.39,1.83s-.34,1.4-.53,2.15h23c0-.28-.05-.53-.1-.77-.21-1-.44-1.94-.65-2.91s-.44-2.1-.67-3.14c-.3-1.39-.59-2.79-.9-4.17-.13-.55-.29-1.08-.43-1.61Zm12.05,36.3.13.08a2.78,2.78,0,0,0,.27-.21l2.8-2.71c1-1,2.07-1.94,3.1-2.92s2.19-2.15,3.29-3.21c1.28-1.23,2.57-2.44,3.84-3.67.76-.73,1.47-1.5,2.23-2.22s1.8-1.66,2.68-2.51c1.31-1.26,2.62-2.54,3.92-3.82a3.76,3.76,0,0,0,.25-.37H197.71Q192.69,27.62,187.68,38.41Zm-6.89.17.11-.07a1.83,1.83,0,0,0-.06-.25l-1.32-2.8c-.2-.44-.42-.87-.62-1.32-.36-.81-.71-1.64-1.08-2.45-.66-1.41-1.34-2.81-2-4.21-.37-.79-.73-1.59-1.1-2.39s-.65-1.32-1-2-.65-1.53-1-2.29c-.54-1.14-1.13-2.26-1.62-3.41a.83.83,0,0,0-.93-.58c-2.59,0-5.18,0-7.77,0-1.18,0-2.36,0-3.54,0-.17,0-.39-.08-.52.15Zm-23-23.87.44,0h11.89c.46,0,.54-.06.64-.51s.2-1,.31-1.55c.18-.82.37-1.63.55-2.45.12-.56.22-1.11.35-1.67.26-1.07.53-2.15.79-3.23.19-.81.38-1.63.55-2.45a6,6,0,0,0,.06-.7c-.1-.05-.13-.08-.17-.08-1.84,0-3.69,0-5.53,0a.65.65,0,0,0-.42.24c-.29.34-.56.7-.83,1.06l-1.93,2.55-2,2.59c-.5.64-1,1.27-1.52,1.92-.81,1-1.62,2.08-2.42,3.13C158.36,13.91,158.13,14.27,157.83,14.71Zm37.3-12.63c.1.52.17.92.26,1.32.16.7.33,1.4.48,2.1.23,1,.44,2.06.66,3.08s.49,2.13.73,3.19l.67,2.94h12.8a5.43,5.43,0,0,0-.27-.5c-.56-.72-1.13-1.43-1.68-2.15l-2.67-3.47c-.72-.94-1.46-1.87-2.17-2.81s-1.48-2-2.23-3a1.58,1.58,0,0,0-1.44-.76c-1.47.08-2.94,0-4.41,0Z"/><path class="cls-1" d="M116.29,59.94a1.34,1.34,0,0,1-.36-1,3.86,3.86,0,0,1,.29-1.34,3.79,3.79,0,0,0-2,1.68,4.63,4.63,0,0,1,.67,2.6,4.22,4.22,0,0,1-1.4,3.45,5.61,5.61,0,0,1-3.7,1.15h0a8,8,0,0,0-1.45,1,1.42,1.42,0,0,0-.5,1.05c0,.62.47.93,1.4.93h3.64a5.86,5.86,0,0,1,3.28.86,2.89,2.89,0,0,1,1.29,2.58,4.22,4.22,0,0,1-.9,2.59,6.27,6.27,0,0,1-2.65,1.92,10.85,10.85,0,0,1-4.22.73,10.37,10.37,0,0,1-4.24-.77,2.46,2.46,0,0,1-1.7-2.29,2.24,2.24,0,0,1,.8-1.72,5.49,5.49,0,0,1,2.23-1.13l.17.46a1.83,1.83,0,0,0-1,.82,2.57,2.57,0,0,0-.38,1.37,2.25,2.25,0,0,0,1.21,2,6.34,6.34,0,0,0,3.25.71,8,8,0,0,0,3.84-.86,2.82,2.82,0,0,0,1.6-2.66,1.94,1.94,0,0,0-.74-1.63,4.38,4.38,0,0,0-2.63-.58H109.9a7.18,7.18,0,0,1-2.75-.44,1.72,1.72,0,0,1-1-1.75,2.71,2.71,0,0,1,.66-1.72,6.8,6.8,0,0,1,2.17-1.6,5,5,0,0,1-3.07-1.34,4.28,4.28,0,0,1-1.15-3.2,4.19,4.19,0,0,1,1.39-3.45,5.65,5.65,0,0,1,3.7-1.16,5.06,5.06,0,0,1,4,1.52,4.71,4.71,0,0,1,1.4-1.3A3.25,3.25,0,0,1,117,57a1.72,1.72,0,0,1,1.22.44,1.64,1.64,0,0,1,.47,1.25,1.59,1.59,0,0,1-.45,1.23,1.47,1.47,0,0,1-1,.4A1.22,1.22,0,0,1,116.29,59.94ZM111.58,65a6.21,6.21,0,0,0,.59-3.16,6.19,6.19,0,0,0-.59-3.16,2.15,2.15,0,0,0-3.53,0,6.07,6.07,0,0,0-.6,3.16,6.09,6.09,0,0,0,.6,3.16,2.17,2.17,0,0,0,3.53,0Z"/><path class="cls-1" d="M132.21,57.93a2.15,2.15,0,0,1,.74,1.64,2,2,0,0,1-.45,1.29,1.49,1.49,0,0,1-1.21.54A1.53,1.53,0,0,1,130.2,61a1.41,1.41,0,0,1-.45-1.1,1.82,1.82,0,0,1,1-1.58.71.71,0,0,0-.61-.29,2.94,2.94,0,0,0-2.07.89,6.24,6.24,0,0,0-1.46,2.17,6.4,6.4,0,0,0-.52,2.42v6.17a2.08,2.08,0,0,0,.77,1.87,4.11,4.11,0,0,0,2.31.52v.61l-.69,0c-2,0-3.25-.08-3.79-.08s-1.65,0-3.44.11v-.61a2.55,2.55,0,0,0,1.72-.45,2.18,2.18,0,0,0,.5-1.65V60.85a3.06,3.06,0,0,0-.5-2,2.09,2.09,0,0,0-1.72-.62v-.61c.62.06,1.23.09,1.81.09a9.6,9.6,0,0,0,3-.41V61a6.87,6.87,0,0,1,1.67-2.59,3.56,3.56,0,0,1,2.55-1.14A2.78,2.78,0,0,1,132.21,57.93Z"/><path class="cls-1" d="M147.08,59.23q1.81,2,1.82,6t-1.82,5.94a6.86,6.86,0,0,1-9.58,0c-1.22-1.3-1.82-3.28-1.82-5.94s.6-4.65,1.82-6a6.81,6.81,0,0,1,9.58,0Zm-7.56.41a11.59,11.59,0,0,0-1,5.55,11.5,11.5,0,0,0,1,5.53,3,3,0,0,0,5.53,0,11.5,11.5,0,0,0,1-5.53,11.59,11.59,0,0,0-1-5.55,3,3,0,0,0-5.53,0Z"/><path class="cls-1" d="M165.86,69.53a3.11,3.11,0,0,0,.49,2,2.1,2.1,0,0,0,1.72.61v.61q-.9-.09-1.8-.09a9.51,9.51,0,0,0-3,.41V69.59a5.46,5.46,0,0,1-2,2.65,5,5,0,0,1-2.8.84,4,4,0,0,1-3-1.11,3.24,3.24,0,0,1-.74-1.48,9.94,9.94,0,0,1-.22-2.33V60.85a3.06,3.06,0,0,0-.5-2,2.08,2.08,0,0,0-1.71-.62v-.61q.9.09,1.8.09a9.56,9.56,0,0,0,3-.41V68.8a9.65,9.65,0,0,0,.13,1.79,2,2,0,0,0,.61,1.12,2.13,2.13,0,0,0,1.47.44,3.17,3.17,0,0,0,2-.7,4.57,4.57,0,0,0,1.42-1.91,6.75,6.75,0,0,0,.51-2.66v-6a3.06,3.06,0,0,0-.5-2,2.09,2.09,0,0,0-1.72-.62v-.61c.6.06,1.21.09,1.81.09a9.6,9.6,0,0,0,3-.41Z"/><path class="cls-1" d="M183.19,58.11a5.52,5.52,0,0,1,1.94,2.48,9.92,9.92,0,0,1,.7,3.9,12,12,0,0,1-.72,4.19,7.18,7.18,0,0,1-2.21,3.18,5.76,5.76,0,0,1-3.74,1.22,4.56,4.56,0,0,1-2-.44,3.55,3.55,0,0,1-1.4-1.13v3.73a1.8,1.8,0,0,0,.7,1.64,3.89,3.89,0,0,0,2.09.45v.61l-.67,0c-1.8-.06-3-.09-3.52-.09s-1.51,0-3.15.11v-.61a2.21,2.21,0,0,0,1.5-.39,1.84,1.84,0,0,0,.43-1.41V60.85a3.06,3.06,0,0,0-.5-2,2.09,2.09,0,0,0-1.72-.62v-.61c.61.06,1.21.09,1.81.09a9.6,9.6,0,0,0,3-.41v3.09a5.29,5.29,0,0,1,1.86-2.35,4.91,4.91,0,0,1,2.8-.83A4.85,4.85,0,0,1,183.19,58.11ZM183,64.9q0-6.77-3.38-6.76a3.4,3.4,0,0,0-2.36,1,5.35,5.35,0,0,0-1.51,2.72v8.74a3.3,3.3,0,0,0,1.19,1.35,3.44,3.44,0,0,0,1.9.51Q183,72.41,183,64.9Z"/></g></g></g></svg>