<svg xmlns="http://www.w3.org/2000/svg" viewBox="0 0 101.69 75.93"><defs><style>.cls-1{fill:#5c5c5c;}</style></defs><g id="Layer_2" data-name="Layer 2"><g id="Layer_1-2" data-name="Layer 1"><path class="cls-1" d="M0,27.13,1.6,25C3,23.24,4.29,21.48,5.65,19.74s2.68-3.43,4-5.16c.91-1.17,1.79-2.37,2.69-3.55L16.2,6c1.32-1.73,2.66-3.45,3.94-5.21A1.75,1.75,0,0,1,21.72,0Q51.06,0,80.39,0A1.57,1.57,0,0,1,81.9.84C82.61,2,83.49,3,84.29,4c1.77,2.31,3.52,4.63,5.29,6.93,1.31,1.7,2.65,3.37,4,5.07s2.54,3.37,3.82,5,2.58,3.35,3.88,5c.59.74.62.9,0,1.56-1.8,1.79-3.63,3.56-5.45,5.32-2,1.93-4,3.84-6,5.77-2.2,2.13-4.38,4.27-6.59,6.39s-4.29,4.08-6.42,6.14c-2.44,2.36-4.86,4.76-7.29,7.13-1.7,1.65-3.42,3.3-5.14,4.94s-3.26,3.07-4.87,4.63c-1.42,1.37-2.8,2.8-4.22,4.18-1.25,1.22-2.53,2.41-3.81,3.61-.35.33-.59.28-1-.12-2.84-2.79-5.7-5.58-8.55-8.36-1.53-1.49-3.06-3-4.61-4.48-1.33-1.27-2.69-2.51-4-3.78s-2.7-2.63-4-3.94l-5.62-5.44c-.92-.89-1.81-1.82-2.73-2.71-1.23-1.19-2.5-2.34-3.73-3.53-1.55-1.49-3.07-3-4.61-4.48C11.24,37.65,10,36.44,8.7,35.23l-4-3.81C3.4,30.16,2.1,28.88.79,27.63A5.25,5.25,0,0,0,0,27.13Zm51.1,42,3.82-8.22c1.26-2.69,2.54-5.37,3.79-8.06s2.46-5.32,3.7-8,2.53-5.36,3.75-8.07,2.53-5.33,3.71-8c-1.22-.27-36.91-.21-37.68.06.54,1.16,1.08,2.32,1.61,3.48,1.22,2.64,2.43,5.28,3.65,7.91,1,2.15,2,4.29,3,6.44.5,1.08,1,2.18,1.46,3.25.94,2,1.91,4,2.85,6s1.7,3.72,2.56,5.58q1.56,3.38,3.13,6.73A9.58,9.58,0,0,0,51.1,69.09ZM36.32,3.58c-.34,1.29-.7,2.52-1,3.77-.42,1.81-.78,3.62-1.17,5.43S33.39,16.4,33,18.21c-.22,1-.42,2.08-.66,3.12s-.58,2.36-.9,3.64h39c-.06-.48-.09-.9-.17-1.31-.36-1.65-.75-3.29-1.11-4.94s-.75-3.55-1.13-5.33c-.51-2.36-1-4.72-1.54-7.08-.2-.93-.48-1.84-.71-2.73ZM56.78,65.2l.21.14a5.74,5.74,0,0,0,.47-.35c1.58-1.54,3.15-3.08,4.74-4.61,1.75-1.66,3.53-3.29,5.26-5,1.88-1.8,3.72-3.64,5.6-5.45,2.16-2.09,4.36-4.14,6.52-6.23,1.28-1.24,2.49-2.54,3.78-3.77,1.49-1.44,3-2.82,4.54-4.25,2.24-2.15,4.45-4.32,6.66-6.49a4,4,0,0,0,.42-.62H73.8Q65.27,46.88,56.78,65.2Zm-11.7.3.18-.13a2.07,2.07,0,0,0-.1-.43c-.74-1.58-1.49-3.16-2.23-4.75-.35-.74-.72-1.48-1-2.23-.62-1.39-1.21-2.8-1.85-4.17-1.11-2.39-2.26-4.76-3.38-7.14-.64-1.35-1.24-2.71-1.87-4-.54-1.14-1.11-2.26-1.63-3.4-.59-1.29-1.11-2.61-1.71-3.89-.9-1.94-1.9-3.83-2.75-5.8a1.42,1.42,0,0,0-1.57-1c-4.4,0-8.79,0-13.19,0-2,0-4,0-6,0-.3,0-.67-.13-.89.25ZM6.1,25c.43,0,.59.06.75.06H27c.78,0,.91-.11,1.08-.87s.34-1.76.53-2.63c.31-1.39.63-2.78.93-4.17.21-.94.38-1.89.6-2.82.43-1.83.89-3.66,1.33-5.49.33-1.38.64-2.77.94-4.16a10.23,10.23,0,0,0,.1-1.19c-.17-.08-.22-.14-.28-.14-3.13,0-6.26,0-9.39,0a1.11,1.11,0,0,0-.72.41c-.49.57-.94,1.19-1.4,1.79q-1.64,2.18-3.28,4.34c-1.12,1.46-2.24,2.93-3.37,4.38-.84,1.1-1.72,2.17-2.57,3.26-1.37,1.77-2.75,3.54-4.11,5.32C7,23.62,6.62,24.22,6.1,25ZM69.42,3.52c.17.89.29,1.57.44,2.25.27,1.19.56,2.38.82,3.57.39,1.74.74,3.49,1.13,5.23S72.63,18.18,73,20c.37,1.63.74,3.27,1.13,5H95.91a7.22,7.22,0,0,0-.47-.83c-1-1.23-1.91-2.44-2.86-3.66-1.51-2-3-3.93-4.52-5.88-1.23-1.6-2.47-3.18-3.69-4.78s-2.5-3.38-3.78-5a2.68,2.68,0,0,0-2.45-1.29c-2.49.14-5,0-7.49,0Z"/></g></g></svg>