<svg xmlns="http://www.w3.org/2000/svg" viewBox="0 0 530 337.83"><defs><style>.cls-1{font-size:16px;font-family:AvenirNextLTPro-Demi, Avenir Next LT Pro;font-weight:300;}.cls-1,.cls-24{fill:#fff;}.cls-2{letter-spacing:-0.01em;}.cls-3{letter-spacing:0em;}.cls-4{letter-spacing:0em;}.cls-5{letter-spacing:0em;}.cls-6{letter-spacing:0em;}.cls-7{letter-spacing:0em;}.cls-8{letter-spacing:0em;}.cls-9{letter-spacing:0em;}.cls-10{letter-spacing:0.01em;}.cls-11{letter-spacing:0.02em;}.cls-12{letter-spacing:0.01em;}.cls-13{letter-spacing:0.01em;}.cls-14{letter-spacing:0em;}.cls-15{letter-spacing:0em;}.cls-16{letter-spacing:0em;}.cls-17{letter-spacing:0em;}.cls-18{letter-spacing:0.03em;}.cls-19{letter-spacing:-0.01em;}.cls-20{letter-spacing:-0.07em;}.cls-21{letter-spacing:0em;}.cls-22{letter-spacing:0.01em;}.cls-23{opacity:0.5;}.cls-25{letter-spacing:-0.07em;}.cls-26{letter-spacing:0.01em;}.cls-27{letter-spacing:0em;}.cls-28{letter-spacing:0em;}.cls-29{letter-spacing:0.01em;}.cls-30{letter-spacing:-0.02em;}.cls-31{letter-spacing:-0.02em;}.cls-32{letter-spacing:0em;}.cls-33{letter-spacing:-0.03em;}.cls-34{letter-spacing:-0.02em;}.cls-35{letter-spacing:0em;}.cls-36{letter-spacing:0.04em;}.cls-37{letter-spacing:-0.06em;}.cls-38{letter-spacing:-0.02em;}.cls-39{letter-spacing:0.03em;}.cls-40{letter-spacing:0em;}.cls-41{letter-spacing:0em;}.cls-42{letter-spacing:-0.01em;}.cls-43{letter-spacing:-0.01em;}.cls-44{letter-spacing:-0.01em;}.cls-45{letter-spacing:0em;}.cls-46{letter-spacing:0.03em;}.cls-47{letter-spacing:-0.02em;}.cls-48{letter-spacing:0.01em;}.cls-49{letter-spacing:0em;}.cls-50{letter-spacing:0em;}.cls-51{letter-spacing:0em;}.cls-52{letter-spacing:-0.07em;}.cls-53{letter-spacing:-0.03em;}.cls-54{fill:none;stroke:#42515f;stroke-miterlimit:10;opacity:0;}</style></defs><g id="Layer_2" data-name="Layer 2"><g id="Layer_1-2" data-name="Layer 1"><text class="cls-1" transform="translate(95 178.76)"><tspan class="cls-2">F</tspan><tspan x="9.03" y="0">O</tspan><tspan class="cls-3" x="22.61" y="0">U</tspan><tspan class="cls-4" x="34.11" y="0">N</tspan><tspan class="cls-5" x="46.64" y="0">D</tspan><tspan class="cls-6" x="58.85" y="0">E</tspan><tspan x="68.64" y="0">R </tspan><tspan class="cls-7" x="0" y="16">O</tspan><tspan x="13.6" y="16">F </tspan><tspan class="cls-8" x="26.77" y="16">T</tspan><tspan class="cls-9" x="35.87" y="16">H</tspan><tspan x="47.75" y="16">E </tspan><tspan class="cls-10" x="61.51" y="16">Y</tspan><tspan class="cls-11" x="71.66" y="16">E</tspan><tspan class="cls-12" x="81.81" y="16">A</tspan><tspan x="93.23" y="16">R</tspan></text><text class="cls-1" transform="translate(359.99 168.76)"><tspan class="cls-13">V</tspan><tspan class="cls-6" x="10.58" y="0">E</tspan><tspan class="cls-14" x="20.37" y="0">N</tspan><tspan class="cls-15" x="32.87" y="0">T</tspan><tspan class="cls-16" x="42.02" y="0">U</tspan><tspan class="cls-17" x="53.51" y="0">R</tspan><tspan x="63.62" y="0">E </tspan><tspan class="cls-18" x="77.38" y="0">C</tspan><tspan class="cls-12" x="88.95" y="0">A</tspan><tspan class="cls-19" x="100.37" y="0">P</tspan><tspan x="109.9" y="0">I</tspan><tspan class="cls-20" x="114.42" y="0">T</tspan><tspan class="cls-12" x="122.46" y="0">A</tspan><tspan x="133.88" y="0">L</tspan><tspan class="cls-21" x="142.05" y="0">I</tspan><tspan class="cls-22" x="146.51" y="0">S</tspan><tspan x="155.91" y="0">T </tspan><tspan class="cls-7" x="0" y="16">O</tspan><tspan x="13.6" y="16">F </tspan><tspan class="cls-8" x="26.77" y="16">T</tspan><tspan class="cls-9" x="35.87" y="16">H</tspan><tspan x="47.75" y="16">E </tspan><tspan class="cls-10" x="61.51" y="16">Y</tspan><tspan class="cls-11" x="71.66" y="16">E</tspan><tspan class="cls-12" x="81.81" y="16">A</tspan><tspan x="93.23" y="16">R</tspan></text><g class="cls-23"><path class="cls-24" d="M39.58,144.84c.27,0,.53.1.79.12a23.28,23.28,0,0,1,5.79,1.31,24.33,24.33,0,0,1,5,2.48,19.14,19.14,0,0,1,3.09,2.36c.85.83,1.7,1.67,2.49,2.56a21.87,21.87,0,0,1,3.52,5.49,23.06,23.06,0,0,1,1.7,5.11c.18.89.35,1.77.49,2.66a14.54,14.54,0,0,1,.13,1.62c0,1.23.1,2.47.05,3.7s-.21,2.17-.35,3.25a19.93,19.93,0,0,1-1.06,4.1,25.67,25.67,0,0,1-2,4.18,62.84,62.84,0,0,1-3.81,5.61,45.25,45.25,0,0,0-3.4,5.14,22,22,0,0,0-2,5.19,1.66,1.66,0,0,0,0,.32,4.69,4.69,0,0,1,2.6,1.55,4.73,4.73,0,0,1-2.39,7.58,14.23,14.23,0,0,1,.47,1.39,4.68,4.68,0,0,1-3.87,5.72,4.93,4.93,0,0,1-.86,0H44.72V219a5.41,5.41,0,0,1-1.15,3.49,5,5,0,0,1-3.4,1.94s-.06,0-.09.06H34.94a10.3,10.3,0,0,1-1.12-.32,5.15,5.15,0,0,1-3.39-3.92,4.48,4.48,0,0,1-.07-1c0-.95,0-1.91,0-2.91-.58,0-1.14,0-1.69,0a4.31,4.31,0,0,1-2.66-.92,4.48,4.48,0,0,1-1.72-2.69,4.58,4.58,0,0,1,.38-3.17c0-.11.1-.22.16-.33a4.75,4.75,0,0,1-2.26-1.34,4.41,4.41,0,0,1-1.2-2.44,4.72,4.72,0,0,1,.43-2.91,4.55,4.55,0,0,1,3-2.42c.19-.06.21-.1.17-.28a21.57,21.57,0,0,0-2.39-5.89c-1.22-2.11-2.73-4-4.12-6-1-1.38-1.89-2.79-2.78-4.22a19.92,19.92,0,0,1-2.08-4.55,34.68,34.68,0,0,1-.89-3.65,21.92,21.92,0,0,1-.32-2.82,32.35,32.35,0,0,1-.05-3.55,27.81,27.81,0,0,1,1.13-6.64,25.71,25.71,0,0,1,1.86-4.58A21.35,21.35,0,0,1,18,154c.59-.69,1.21-1.36,1.83-2a1.17,1.17,0,0,1,1.7,0,1.19,1.19,0,0,1,0,1.7A22.42,22.42,0,0,0,15.3,165c-.19.94-.33,1.89-.43,2.85a26.17,26.17,0,0,0-.18,3.06c0,1.21.18,2.42.3,3.63a17.14,17.14,0,0,0,.88,3.81A18.13,18.13,0,0,0,17.49,182c.73,1.2,1.47,2.4,2.27,3.56s1.85,2.57,2.78,3.85c.09.12.17.25.29.43l.1-.35a6.62,6.62,0,0,1,2.57-3.57,13.68,13.68,0,0,1,4.36-1.86l1.58-.44c.39-.11.54-.47.7-.8,0-.05-.06-.19-.13-.24a11.49,11.49,0,0,1-2.37-2.08,12.22,12.22,0,0,1-2.91-5.28,8,8,0,0,1-.2-1.69c0-1.15,0-2.29,0-3.44a13.85,13.85,0,0,1,1.13-5.42,10.83,10.83,0,0,1,2.78-3.83,10.74,10.74,0,0,1,15.16,1A11.38,11.38,0,0,1,48,166.25,15.69,15.69,0,0,1,48.5,171c0,.83,0,1.65,0,2.48a8.49,8.49,0,0,1-.74,3.4A11.86,11.86,0,0,1,45.83,180a13.63,13.63,0,0,1-2.9,2.67.22.22,0,0,0,0,.06c.16.76.74,1,1.39,1.11a17.81,17.81,0,0,1,4.26,1.49,6.68,6.68,0,0,1,3.58,4.29.93.93,0,0,0,.09.22l1.42-2c.91-1.28,1.85-2.54,2.72-3.85a22,22,0,0,0,3-6.31,33.35,33.35,0,0,0,.72-3.47,20,20,0,0,0,.19-2.19,16,16,0,0,0,.06-2.19c-.1-1.28-.25-2.55-.43-3.82a21.06,21.06,0,0,0-1.69-5.62,20.06,20.06,0,0,0-3-4.8A30.79,30.79,0,0,0,53,153.16a21.51,21.51,0,0,0-3.68-2.75,20.41,20.41,0,0,0-5-2.22c-1.1-.31-2.22-.53-3.34-.75a19.4,19.4,0,0,0-4.5-.24,22.45,22.45,0,0,0-5,.75,23.59,23.59,0,0,0-5,2,8.84,8.84,0,0,1-1.2.58,1.13,1.13,0,0,1-1.3-.67,1.31,1.31,0,0,1,.74-1.7A27.74,27.74,0,0,1,30,145.89a22,22,0,0,1,3.58-.8l1.73-.19s.08,0,.12-.06Zm8,55.09a1.09,1.09,0,0,0,.05-.17c.06-.22.11-.45.16-.68a23.15,23.15,0,0,1,2.11-5.51.76.76,0,0,0,.12-.3c0-.77,0-1.55-.06-2.31A4.08,4.08,0,0,0,48,187.81a10.1,10.1,0,0,0-2.6-1.15.62.62,0,0,0-.56,0l-3,1.78c-1,.59-2,1.19-3.06,1.75a2.63,2.63,0,0,1-2.55,0c-1.14-.61-2.25-1.28-3.37-1.93L30,186.6a.22.22,0,0,0-.18,0,10.17,10.17,0,0,0-2.57,1.06,4.29,4.29,0,0,0-2,2.49,9.65,9.65,0,0,0-.24,2.39,3,3,0,0,0,.35,1.47c.49,1,1,2.09,1.36,3.17.33.89.52,1.83.78,2.75Zm-10,2.42c-3.87,0-7.74,0-11.61,0a2.33,2.33,0,0,0-2.19,2.59,2.39,2.39,0,0,0,2.37,2h8.67a1.14,1.14,0,0,1,1.14.92,1.08,1.08,0,0,1-.5,1.23,1.93,1.93,0,0,1-.88.24c-1.9,0-3.8,0-5.7,0a2.24,2.24,0,0,0-2.22,1.89,2.28,2.28,0,0,0,2.28,2.7q8.67,0,17.34,0a2.19,2.19,0,0,0,1.76-.89,2.31,2.31,0,0,0,.49-1.72,2.38,2.38,0,0,0-2.09-2c-1.93,0-3.86,0-5.79,0a1.93,1.93,0,0,1-.63-.1,1.21,1.21,0,0,1-.73-1.37,1.13,1.13,0,0,1,1.15-.93h8.55a3.15,3.15,0,0,0,.61-.06,2.31,2.31,0,0,0,1.76-2.77,2.33,2.33,0,0,0-2.23-1.77C45.21,202.36,41.36,202.35,37.51,202.35Zm8.64-29.76c0-.29,0-.58,0-.86s-.08-.25-.25-.32a12.52,12.52,0,0,1-1.56-.65,7.22,7.22,0,0,1-1.78-1.53,1,1,0,0,0-1-.26c-.81.2-1.61.44-2.43.65a5.25,5.25,0,0,1-2.52.13L33.45,169a.86.86,0,0,0-.84.15c-.28.27-.58.52-.85.8a5.49,5.49,0,0,1-2.61,1.49c-.18.05-.23.12-.23.29,0,.47,0,1,0,1.42a9.73,9.73,0,0,0,.11,1.43,8.83,8.83,0,0,0,2.2,4.17,10.73,10.73,0,0,0,4.18,3,5.23,5.23,0,0,0,3.12.34,8.47,8.47,0,0,0,2.82-1.24,9.31,9.31,0,0,0,2.27-2,18.26,18.26,0,0,0,1.52-2.12A7.12,7.12,0,0,0,46.15,172.59ZM46,169l.07-.07c0-.23,0-.47-.08-.69a11.09,11.09,0,0,0-1.21-3.39,8.26,8.26,0,0,0-3.32-3.23,8,8,0,0,0-5.18-.91,8.57,8.57,0,0,0-6.83,6.12c-.19.69-.33,1.39-.49,2.09l.08,0a3.21,3.21,0,0,0,.45-.24c.57-.49,1.11-1,1.68-1.48a2.81,2.81,0,0,1,2.4-.65c.93.17,1.84.44,2.76.68a3.84,3.84,0,0,0,2.1.09c.8-.23,1.62-.43,2.43-.65a3.16,3.16,0,0,1,2.7.29c.51.35.93.82,1.41,1.22S45.62,168.72,46,169Zm-3.66,47.33H32.76c0,1.12,0,2.23,0,3.32a2.78,2.78,0,0,0,2.66,2.44c1.33,0,2.66,0,4,0a2.85,2.85,0,0,0,2.87-2.62C42.39,218.42,42.31,217.37,42.31,216.31Zm-9.24-30.7L35.36,187c.61.36,1.22.73,1.84,1.08a.61.61,0,0,0,.67,0c1-.6,2-1.17,3-1.76l1.13-.66c-.25-.29-.5-.53-.71-.8s-.38-.59-.58-.91a7.65,7.65,0,0,1-6.3,0Z"/><path class="cls-24" d="M0,173.47A4,4,0,0,1,.17,173a1.14,1.14,0,0,1,1.05-.61h7a1.21,1.21,0,0,1,0,2.41c-2.33,0-4.65,0-7,0a1.11,1.11,0,0,1-1.17-1s0-.06-.06-.09Z"/><path class="cls-24" d="M8.1,164.46a5.4,5.4,0,0,1-.57-.18L2.87,162l-.93-.44a1.16,1.16,0,0,1-.62-1.48,1.12,1.12,0,0,1,1.27-.79,4.24,4.24,0,0,1,1.12.45l3.66,1.8c.49.24,1,.46,1.47.74a1.16,1.16,0,0,1-.64,2.13H8.11Z"/><path class="cls-24" d="M9.35,183.9A1.16,1.16,0,0,1,8.62,185l-4.47,2.17c-.36.18-.74.32-1.1.52A1.2,1.2,0,1,1,2,185.55L5.13,184l2.41-1.18A1.2,1.2,0,0,1,9.35,183.9Z"/><path class="cls-24" d="M70.33,174.77H66.92a1.2,1.2,0,0,1-.07-2.4q3.48,0,7,0a1.2,1.2,0,0,1,0,2.39C72.64,174.79,71.49,174.77,70.33,174.77Z"/><path class="cls-24" d="M66.87,164.42a1.13,1.13,0,0,1-1.19-1,1.28,1.28,0,0,1,.69-1.29l5.07-2.43a5.31,5.31,0,0,1,.86-.37,1.13,1.13,0,0,1,1.4.72,1.2,1.2,0,0,1-.57,1.48Q70.58,162.81,68,164c-.36.18-.74.3-1.11.45Z"/><path class="cls-24" d="M67,182.69a3.83,3.83,0,0,1,.52.17l4.4,2.14c.4.19.79.37,1.18.57a1.19,1.19,0,1,1-1,2.15l-2.41-1.17c-1.1-.53-2.2-1.05-3.29-1.59a1.18,1.18,0,0,1-.67-1.19,1.12,1.12,0,0,1,.85-1A3.07,3.07,0,0,1,67,182.69Z"/></g><g class="cls-23"><path class="cls-24" d="M316.35,222.37l-.1-.05a.94.94,0,0,1-.6-.83,1,1,0,0,1,.26-.78,1.12,1.12,0,0,1,.84-.3h8.69a.43.43,0,0,0,.51-.56,4.35,4.35,0,0,0-.1-.52l0-.1a4,4,0,0,0-2.52-2.93,3.81,3.81,0,0,0-1.47-.25l-.54,0h-.05a.93.93,0,0,1-.95-.79,3.44,3.44,0,0,0-1.62-2.29,3.27,3.27,0,0,0-1.74-.52h-.11a3.64,3.64,0,0,0-2.12.78.88.88,0,0,1-.53.17,1,1,0,0,1-1-.75,3.24,3.24,0,0,0-.78-1.53,3.46,3.46,0,0,0-2.6-1.22,4.1,4.1,0,0,0-1.06.15,1.09,1.09,0,0,1-.26,0,1,1,0,0,1-.94-.89,2.73,2.73,0,0,0-.1-.48,5.13,5.13,0,0,0-2.35-3.15,5.08,5.08,0,0,0-2.61-.76,5.54,5.54,0,0,0-1,.1,5,5,0,0,0-3,1.79,5.25,5.25,0,0,0-1.14,2.52,1,1,0,0,1-.92.86,1,1,0,0,1-.3,0,3.71,3.71,0,0,0-1-.15,3.27,3.27,0,0,0-1.55.39,3.38,3.38,0,0,0-1.83,2.31,1,1,0,0,1-1,.79,1.12,1.12,0,0,1-.72-.26,3,3,0,0,0-2-.67H288a3.33,3.33,0,0,0-2,.74,3.24,3.24,0,0,0-1.26,2,1,1,0,0,1-1,.88h-.11l-.53,0a4,4,0,0,0-4,3.69.64.64,0,0,0,.08.51.62.62,0,0,0,.51.15h32.09a3.6,3.6,0,0,1,.66.06.88.88,0,0,1,.63.41,1.12,1.12,0,0,1,.07.92,1.06,1.06,0,0,1-.64.58H279l-.32-.14a5.68,5.68,0,0,1-.74-.37,1.85,1.85,0,0,1-.8-1.39,5.63,5.63,0,0,1,1.26-4.12,6,6,0,0,1,3.68-2.19l.06,0a1.77,1.77,0,0,1,.3,0h.18c.34,0,.45-.24.55-.44l0,0a5.31,5.31,0,0,1,3.33-2.84,5.48,5.48,0,0,1,1.59-.24,5.12,5.12,0,0,1,1.71.29,1,1,0,0,0,.27,0,.55.55,0,0,0,.48-.34,5.18,5.18,0,0,1,1.82-1.78,4.92,4.92,0,0,1,2.32-.74l.58-.05.29,0h.1l0-.09a8.43,8.43,0,0,1,1.14-2.14,6.81,6.81,0,0,1,2.07-1.83.52.52,0,0,0,.29-.51v-1.3c0-.53,0-1.08,0-1.62a.76.76,0,0,0-.2-.48,4.26,4.26,0,0,0-3-1.46c-.73-.06-1.47-.09-2.18-.12h-1.42a7.63,7.63,0,0,1-3-.69,8.26,8.26,0,0,1-2.68-1.83,8.5,8.5,0,0,1-2.36-4.43,16.1,16.1,0,0,1-.18-3.82,1.87,1.87,0,0,1,1.56-1.9h0l.1,0h1.77c.43,0,.78,0,1.11,0a8.4,8.4,0,0,1,3.11.79,8.55,8.55,0,0,1,2.55,1.78,8.17,8.17,0,0,1,2.36,4.71c.08.66.09,1.35.11,2,0,.29,0,.58,0,.87v.74l2.25.84v-.27a1,1,0,0,0,0-.19V183.56c0-.39-.21-.47-.45-.52a18.28,18.28,0,0,1-3.48-1.1,16.56,16.56,0,0,1-3.29-1.86c-.63-.46-1.23-1-1.79-1.45a12.66,12.66,0,0,1-1.46-1.47c-.7-.87-1.34-1.77-1.92-2.66a15,15,0,0,1-1.8-4.1,19.63,19.63,0,0,1-.58-2.82,21.34,21.34,0,0,1-.18-3,17.39,17.39,0,0,1,.67-4.36,18,18,0,0,1,1.55-3.78,12.38,12.38,0,0,1,1.84-2.68.86.86,0,0,1,.63-.24,1,1,0,0,1,.47.11,1,1,0,0,1,.47,1,5.17,5.17,0,0,1-.57,1,16.12,16.12,0,0,0-2,3.73,16.53,16.53,0,0,0-.88,3.17,15.68,15.68,0,0,0-.18,3.74,16.61,16.61,0,0,0,1,4.58,16.2,16.2,0,0,0,2.31,4.18,14.59,14.59,0,0,0,1.42,1.65,24.35,24.35,0,0,0,2.15,1.8,14,14,0,0,0,4.58,2.27,24.75,24.75,0,0,0,2.72.59,12.31,12.31,0,0,0,2,.17h.2a17.34,17.34,0,0,0,4.46-.66,16.35,16.35,0,0,0,8.31-5.68,16.11,16.11,0,0,0,3.14-6.93,16.2,16.2,0,0,0,.26-4,15.92,15.92,0,0,0-.88-4.4A15.63,15.63,0,0,0,315.2,155l-.14-.17a15.63,15.63,0,0,0-6.14-4.66,17.36,17.36,0,0,0-3.58-1.09,13.34,13.34,0,0,0-1.52-.17l-.26,0c-.4,0-.81-.06-1.22-.06h-.29a17.1,17.1,0,0,0-4,.61,14.36,14.36,0,0,0-3,1.18c-.7.39-1.41.83-2.32,1.45a1.18,1.18,0,0,1-.68.23,1,1,0,0,1-.82-.44.85.85,0,0,1-.13-.63,1.09,1.09,0,0,1,.41-.72,18.54,18.54,0,0,1,3.24-1.94,16.33,16.33,0,0,1,4.29-1.36l1.14-.15.67-.09a.2.2,0,0,0,.14-.06H304l.2,0a4.17,4.17,0,0,0,.49.08,17.43,17.43,0,0,1,6.69,2.16,15.35,15.35,0,0,1,2.84,2l.21.19c.42.37.85.75,1.24,1.15a19,19,0,0,1,2.52,3.31,17.71,17.71,0,0,1,1.79,4.08,20.67,20.67,0,0,1,.58,2.86,18.22,18.22,0,0,1,.18,2.89,16,16,0,0,1-.71,4.55,25.49,25.49,0,0,1-1.16,3,13.78,13.78,0,0,1-2,3.14c-.11.12-.21.25-.31.37a17.85,17.85,0,0,1-1.3,1.46,18.18,18.18,0,0,1-9,4.85c-.37.09-.49.24-.49.6v13.81l2.28-.85v-2.53a8.61,8.61,0,0,1,2.64-5.95,8.74,8.74,0,0,1,4.32-2.26,11.14,11.14,0,0,1,2.24-.19c.44,0,.89,0,1.32,0h.55a1.79,1.79,0,0,1,1.62,1.79c0,.69,0,1.39,0,2.07V190a7.63,7.63,0,0,1-.63,3,8.27,8.27,0,0,1-1.55,2.47,8.49,8.49,0,0,1-4.9,2.76,10.51,10.51,0,0,1-2.1.19l-.8,0-.58,0a7.13,7.13,0,0,0-2.84.52,4.12,4.12,0,0,0-1.47,1.15.54.54,0,0,0-.08.34h0c0,.38,0,.76,0,1.13v1.82a.55.55,0,0,0,.26.48l.36.26a10.39,10.39,0,0,1,1.22,1,6.34,6.34,0,0,1,1.53,2.45,1.6,1.6,0,0,0,.1.23l0,.1.05.1h.32a5.53,5.53,0,0,1,4.34,2,2.42,2.42,0,0,1,.44.63.49.49,0,0,0,.45.32.93.93,0,0,0,.29-.06,4.21,4.21,0,0,1,1.64-.3c.23,0,.46,0,.72,0a4.94,4.94,0,0,1,2.51,1A5.19,5.19,0,0,1,322,214l0,.1h.1a6,6,0,0,1,5,3,5.58,5.58,0,0,1,.76,2.19,2.82,2.82,0,0,1-.49,2.34,2.37,2.37,0,0,1-1.25.73l-.13.05ZM301.14,203h2.71V183.42h-2.71Zm-14.55-15.3h-.43v.81c0,.55,0,1.07,0,1.6a5.48,5.48,0,0,0,.15,1,6.73,6.73,0,0,0,2.08,3.6,7,7,0,0,0,2.2,1.36,7.76,7.76,0,0,0,2.86.42h1.46v-.16c0-.3,0-.61,0-.91a16.36,16.36,0,0,0,0-2,6.72,6.72,0,0,0-6.52-5.77h-1.79Zm30.36,0h-1.1a5.07,5.07,0,0,0-2.15.65,6.72,6.72,0,0,0-2,1.55,7.42,7.42,0,0,0-1.26,2.06,10.13,10.13,0,0,0-.47,4v.54h2.22a6.84,6.84,0,0,0,1.24-.13,6.44,6.44,0,0,0,2.62-1.19A6.35,6.35,0,0,0,318.4,192a7.53,7.53,0,0,0,.36-1.73c0-.56,0-1.13,0-1.68,0-.23,0-.47,0-.69v-.17H317Z"/><path class="cls-24" d="M303,178.05l-.44,0h-.42a11.49,11.49,0,0,1-3.69-.63,12.22,12.22,0,0,1-3.88-2.08,12.94,12.94,0,0,1-4.78-8.07,12.73,12.73,0,0,1,.71-6.79,12.43,12.43,0,0,1,1.7-3.06,13.45,13.45,0,0,1,2-2.12,12.75,12.75,0,0,1,3.05-1.91,10.08,10.08,0,0,1,2.95-.89l.54-.06a14.44,14.44,0,0,1,1.85-.16h.1a12.9,12.9,0,0,1,7.84,2.82,13.13,13.13,0,0,1,3,3.46,12.5,12.5,0,0,1,1.49,3.71,15,15,0,0,1,.27,1.85,12.13,12.13,0,0,1,.06,1.47,12.74,12.74,0,0,1-.5,3.16,13.27,13.27,0,0,1-1,2.48,1.08,1.08,0,0,1-.92.57.92.92,0,0,1-.43-.11,1,1,0,0,1-.41-1.33,10.9,10.9,0,0,0,1.07-2.91,11.65,11.65,0,0,0,.18-3.38,9.83,9.83,0,0,0-1.08-3.73,13.91,13.91,0,0,0-1.41-2.14,10.25,10.25,0,0,0-3.85-3,9.28,9.28,0,0,0-3-.87,15.75,15.75,0,0,0-1.73-.12h-.36a10.8,10.8,0,0,0-3.85.93,10.92,10.92,0,0,0-3.8,2.81,10.78,10.78,0,0,0-2.47,4.89,11.39,11.39,0,0,0-.21,3.21,9.68,9.68,0,0,0,.74,3.13,11,11,0,0,0,2.88,4.13,10.65,10.65,0,0,0,3.45,2.08,11.14,11.14,0,0,0,3.1.67l.77,0a11,11,0,0,0,4.36-.94,10.08,10.08,0,0,0,2.65-1.67.92.92,0,0,1,.6-.2,1,1,0,0,1,.72.27,1,1,0,0,1,.28.78.75.75,0,0,1-.25.55,17.46,17.46,0,0,1-1.9,1.39,11.43,11.43,0,0,1-3.49,1.41A11,11,0,0,1,303,178.05Z"/><path class="cls-24" d="M302.4,173.69h-.11a1,1,0,0,1-.84-.89v-.85h-.14a5.32,5.32,0,0,1-2.5-.93,1.06,1.06,0,0,1-.47-1,.94.94,0,0,1,.89-.84h0a1.47,1.47,0,0,1,.68.22l.15.09a3.28,3.28,0,0,0,1.17.45l.18,0v-1.51c0-.9,0-1.84,0-2.76a.62.62,0,0,0-.38-.62l-.31-.17a6,6,0,0,1-1.15-.75,3,3,0,0,1-.89-2.74,3.68,3.68,0,0,1,1.18-2.27,3.29,3.29,0,0,1,1.4-.74l.1,0v-.11c0-.1,0-.21,0-.31a3.3,3.3,0,0,1,.07-.64.83.83,0,0,1,.93-.65h.16a.88.88,0,0,1,.76.78,1,1,0,0,0,0,.1v0a.68.68,0,0,0,0,.5.9.9,0,0,0,.61.31h.07a4.24,4.24,0,0,1,1.6.69,1,1,0,0,1,.26,1.17.9.9,0,0,1-.81.57,1,1,0,0,1-.28-.05,6.15,6.15,0,0,1-.71-.28l-.36-.15-.14,0-.08,0-.2,0v1.63c0,.55,0,1.12,0,1.68a.49.49,0,0,0,.4.55,4,4,0,0,1,1.86,1.14,3.56,3.56,0,0,1,.94,2.08,4.15,4.15,0,0,1-.8,2.92,4.08,4.08,0,0,1-2.25,1.58l-.1,0V172l0,.32-.06.66A.94.94,0,0,1,302.4,173.69Zm1-3.87.26-.21a2.36,2.36,0,0,0,1-2.09,1.67,1.67,0,0,0-1-1.36l-.22-.09Zm-2.26-9.12a1.52,1.52,0,0,0-.52,1.31,1,1,0,0,0,.55.85l.23.12v-2.49Z"/></g><text class="cls-1" transform="translate(95 69.59)"><tspan class="cls-22">S</tspan><tspan class="cls-25" x="9.4" y="0">T</tspan><tspan class="cls-12" x="17.44" y="0">A</tspan><tspan class="cls-26" x="28.86" y="0">R</tspan><tspan class="cls-27" x="39.09" y="0">T</tspan><tspan class="cls-3" x="48.24" y="0">U</tspan><tspan x="59.73" y="0">P </tspan><tspan class="cls-7" x="0" y="16">O</tspan><tspan x="13.6" y="16">F </tspan><tspan class="cls-8" x="26.77" y="16">T</tspan><tspan class="cls-9" x="35.87" y="16">H</tspan><tspan x="47.75" y="16">E </tspan><tspan class="cls-10" x="61.51" y="16">Y</tspan><tspan class="cls-11" x="71.66" y="16">E</tspan><tspan class="cls-12" x="81.81" y="16">A</tspan><tspan x="93.23" y="16">R</tspan></text><text class="cls-1" transform="translate(360 69.59)"><tspan class="cls-28">B</tspan><tspan class="cls-29" x="10.37" y="0">E</tspan><tspan class="cls-22" x="20.25" y="0">S</tspan><tspan x="29.65" y="0">T </tspan><tspan class="cls-4" x="0" y="16">N</tspan><tspan class="cls-29" x="12.54" y="16">E</tspan><tspan class="cls-30" x="22.41" y="16">W</tspan><tspan class="cls-31" x="38.18" y="16">C</tspan><tspan class="cls-7" x="49.05" y="16">O</tspan><tspan class="cls-32" x="62.65" y="16">M</tspan><tspan class="cls-6" x="77.43" y="16">E</tspan><tspan x="87.22" y="16">R</tspan></text><g class="cls-23"><path class="cls-24" d="M39.29,31.49a1.42,1.42,0,0,0,.22.07c1,.12,2,.23,3.05.37a24,24,0,0,1,4.78,1.24A23.94,23.94,0,0,1,52,35.34c1.13.7,2.25,1.43,3.34,2.2A16.7,16.7,0,0,1,57.07,39c.61.56,1.22,1.14,1.8,1.74a27.57,27.57,0,0,1,2.84,3.51,28.12,28.12,0,0,1,2.46,4.3,25.94,25.94,0,0,1,2,6.2c.2,1,.35,2.06.5,3.09A22.83,22.83,0,0,1,66.89,62c0,1-.18,2-.29,3.07A25.22,25.22,0,0,1,65.17,71a22.12,22.12,0,0,1-1,2.47c-.67,1.31-1.37,2.62-2.16,3.87A31.58,31.58,0,0,1,60,80c-.35.44-.73.85-1.12,1.3L60,83.14l1.55,2.69,1.77,3L65.05,92l1.72,3,1.56,2.71c.6,1,1.18,2.11,1.81,3.13a1.23,1.23,0,0,1-.64,2,3,3,0,0,1-1.11-.09l-4.35-1c-1.59-.36-3.19-.7-4.79-1h-.12l-1,3c-.22.72-.45,1.43-.68,2.14-.45,1.45-.91,2.89-1.35,4.34a1.23,1.23,0,0,1-2.29.23c-.61-1.07-1.23-2.14-1.85-3.21a1.22,1.22,0,1,1,2.15-1.12c.15.26.29.53.48.86.21-.66.4-1.24.58-1.82.61-1.91,1.21-3.82,1.82-5.72,0-.15.08-.3.13-.44a1.17,1.17,0,0,1,1.53-.86c1.91.4,3.82.85,5.74,1.28l2.37.5L57.09,83A28.61,28.61,0,0,1,51.3,87a28,28,0,0,1-6.61,2.55c.13.24.24.47.36.68,1.11,1.93,2.22,3.87,3.34,5.8l2.9,5a1.2,1.2,0,0,1-.57,1.82,1.17,1.17,0,0,1-1.57-.66l-2.73-4.78q-1.44-2.5-2.9-5L42.3,90.31a.29.29,0,0,0-.36-.17,12.77,12.77,0,0,1-1.63.22c-1.15.06-2.29.13-3.44.12-1,0-2-.15-3-.24-.3,0-.6-.09-.9-.11a.28.28,0,0,0-.2.14C32,91.65,31.19,93,30.39,94.4l-2.74,4.74-2.48,4.36q-1.23,2.13-2.48,4.26c-.55,1-1.09,1.94-1.67,2.89a2.19,2.19,0,0,1-.56.48h-.74a1.51,1.51,0,0,1-.89-1.08c-.59-2-1.24-3.91-1.86-5.87-.34-1.07-.69-2.14-1-3.21-.06-.2-.11-.26-.35-.2-2,.45-4,.87-6,1.31-1.16.26-2.31.54-3.46.79a1.18,1.18,0,0,1-1.28-.48,1.29,1.29,0,0,1,0-1.41c.63-1.06,1.24-2.14,1.86-3.21q1.11-1.93,2.24-3.87c.43-.74.86-1.49,1.27-2.25a1.24,1.24,0,0,1,1.62-.54,1.15,1.15,0,0,1,.53,1.6c-.35.69-.75,1.37-1.13,2L9.67,97.41c-.45.76-.89,1.52-1.33,2.28a1.15,1.15,0,0,0-.1.24l1.54-.33L14,98.68l2.3-.51a1.19,1.19,0,0,1,1.57.86c.58,1.84,1.17,3.68,1.75,5.52.25.78.49,1.56.77,2.44,3.35-5.83,6.66-11.59,10-17.38A29.38,29.38,0,0,1,18,83L15,88.12a1,1,0,0,1-1,.51,1.25,1.25,0,0,1-1-.58c-.37-.55-.11-1,.16-1.51.68-1.19,1.37-2.37,2-3.55.29-.49.57-1,.86-1.47a.33.33,0,0,0,0-.45,28.84,28.84,0,0,1-3.63-4.82c-.44-.75-.87-1.51-1.26-2.29a28.59,28.59,0,0,1-2.26-6.39c-.23-1-.34-2.08-.51-3.12a25.85,25.85,0,0,1-.16-5.2,26,26,0,0,1,.76-5.18A29.46,29.46,0,0,1,10.64,49a27.63,27.63,0,0,1,2.59-4.67c.64-.9,1.31-1.77,2-2.6s1.47-1.61,2.25-2.37a7.62,7.62,0,0,1,1.4-1.13,1,1,0,0,1,1.18.12,1.18,1.18,0,0,1,.46,1.08c0,.52-.39.77-.7,1.08-.87.89-1.77,1.75-2.64,2.65a21,21,0,0,0-2.36,3.1,27.59,27.59,0,0,0-2.62,5.24,26.5,26.5,0,0,0-1.28,4.61,23,23,0,0,0-.32,2.63,25.48,25.48,0,0,0-.12,2.76c0,1,.15,2,.24,2.93a22,22,0,0,0,.87,4.25,23.8,23.8,0,0,0,2.2,5.26,41.09,41.09,0,0,0,2.32,3.57,21.71,21.71,0,0,0,3,3.34,27.51,27.51,0,0,0,10.3,6,22.31,22.31,0,0,0,4,.92c.8.1,1.6.2,2.4.24a27.55,27.55,0,0,0,2.87.06c.91,0,1.82-.19,2.73-.3a23.22,23.22,0,0,0,5.19-1.3,23.79,23.79,0,0,0,5-2.44c.88-.58,1.75-1.17,2.59-1.8.56-.43,1.07-.92,1.59-1.4a16.94,16.94,0,0,0,1.34-1.34c.81-.94,1.61-1.88,2.34-2.86A23.44,23.44,0,0,0,62,72.29,22.23,22.23,0,0,0,63.57,68c.22-.89.43-1.79.6-2.69a13,13,0,0,0,.2-1.76c.06-1.21.15-2.42.11-3.63a32.93,32.93,0,0,0-.35-3.43,23,23,0,0,0-1.3-5,22.6,22.6,0,0,0-2.25-4.64,36,36,0,0,0-2.13-3,32,32,0,0,0-2.57-2.77,23.63,23.63,0,0,0-3.47-2.74,27.25,27.25,0,0,0-5.67-2.88,26.7,26.7,0,0,0-4.11-1.16A22.89,22.89,0,0,0,40.28,34a23.2,23.2,0,0,0-2.75-.17c-1.1,0-2.2.13-3.3.23a24.84,24.84,0,0,0-6,1.43,26.87,26.87,0,0,0-3.78,1.74A1.22,1.22,0,0,1,22.92,37,1.13,1.13,0,0,1,23,35.4a4.1,4.1,0,0,1,.91-.6,29.28,29.28,0,0,1,4.7-1.95,25.67,25.67,0,0,1,4.16-1c.92-.13,1.86-.21,2.79-.31a1,1,0,0,0,.15-.07Z"/><path class="cls-24" d="M37.6,82.43a20.39,20.39,0,0,1-6.32-.9A21.83,21.83,0,0,1,26,79.07a21.57,21.57,0,0,1-4.42-3.77,20.37,20.37,0,0,1-2.91-4.19,21.25,21.25,0,0,1-2.06-5.59,19.78,19.78,0,0,1-.38-2.87,20.45,20.45,0,0,1-.06-2.93,25.86,25.86,0,0,1,.45-3.28,20.47,20.47,0,0,1,2.07-5.66,18.33,18.33,0,0,1,2.22-3.3c.57-.67,1.15-1.34,1.77-2a20.78,20.78,0,0,1,4-3.05,19.07,19.07,0,0,1,4.6-2,31.42,31.42,0,0,1,3.17-.69,16.22,16.22,0,0,1,2-.19,16.1,16.1,0,0,1,1.7-.06,21.92,21.92,0,0,1,3.78.45,19.67,19.67,0,0,1,5.84,2.16,28.42,28.42,0,0,1,3,2A22.49,22.49,0,0,1,52.82,46a18.86,18.86,0,0,1,3,4,20.47,20.47,0,0,1,2.07,4.63,17.31,17.31,0,0,1,.73,3.34q.11,1,.18,2a10.7,10.7,0,0,1,.06,1.6c-.12,1.27-.26,2.55-.45,3.82a1.2,1.2,0,0,1-2.36-.26,4.74,4.74,0,0,1,.17-1.1,12.15,12.15,0,0,0,.17-1.21A26.17,26.17,0,0,0,56.5,60a18.41,18.41,0,0,0-1-5.29,17.29,17.29,0,0,0-2.86-5.27,28.28,28.28,0,0,0-2.27-2.5,17.58,17.58,0,0,0-3.56-2.6A17.08,17.08,0,0,0,43,42.72c-1-.27-2-.44-3-.63a14.36,14.36,0,0,0-3.46-.18,18.27,18.27,0,0,0-4,.63A17.82,17.82,0,0,0,29,43.93a19.56,19.56,0,0,0-3.79,2.53,19.32,19.32,0,0,0-3.77,4.35,18.33,18.33,0,0,0-2.29,5.27,16.31,16.31,0,0,0-.55,3.17,18.54,18.54,0,0,0-.11,2,19,19,0,0,0,2.37,8.95,15.33,15.33,0,0,0,2,2.93c.6.68,1.2,1.36,1.86,2A19,19,0,0,0,28,77.48a16.83,16.83,0,0,0,4.11,1.78,24.88,24.88,0,0,0,3.09.63,13.44,13.44,0,0,0,2.37.18,19.07,19.07,0,0,0,5.2-.76A18.43,18.43,0,0,0,46.05,78a16.59,16.59,0,0,0,3.54-2.34A20.92,20.92,0,0,0,51.41,74a18.15,18.15,0,0,0,2.82-4,1.5,1.5,0,0,1,1-.93,1.24,1.24,0,0,1,1.43.86,1.32,1.32,0,0,1-.13.94,18.58,18.58,0,0,1-2.27,3.48,25.7,25.7,0,0,1-2,2.17,20.57,20.57,0,0,1-2.5,2.06,26.64,26.64,0,0,1-3.15,1.83A18.92,18.92,0,0,1,41.85,82,20.21,20.21,0,0,1,37.6,82.43Z"/><path class="cls-24" d="M37.46,47.17a1.13,1.13,0,0,1,1.14.67L41,52.71a15.35,15.35,0,0,1,.72,1.54.85.85,0,0,0,.82.56c.81.1,1.62.24,2.43.35s1.57.21,2.36.32a24.39,24.39,0,0,1,2.42.39,1.16,1.16,0,0,1,.49,1.93c-1.34,1.34-2.71,2.68-4.07,4a11,11,0,0,1-1.06,1,1,1,0,0,0-.3,1.08c.19,1,.36,2.07.55,3.11.15.88.31,1.75.46,2.63.08.46.17.92.21,1.38a1.19,1.19,0,0,1-1.67,1.08l-5.25-2.79c-.43-.22-.86-.44-1.29-.68a.56.56,0,0,0-.61,0c-.87.49-1.76.94-2.64,1.4l-3.84,2A1.22,1.22,0,0,1,29,71a5.56,5.56,0,0,1,.19-1.19l.48-2.73c.17-1,.35-2,.53-3,0-.25.1-.51.14-.77a.3.3,0,0,0-.07-.15l-.54-.51-4.05-4a6.93,6.93,0,0,1-1-1,1.19,1.19,0,0,1,.92-1.83c.63-.06,1.25-.17,1.87-.26l2-.3,2-.3c.47-.06.94-.14,1.42-.18a.36.36,0,0,0,.33-.25c1-2.11,2.07-4.22,3.1-6.32l.15-.31A1,1,0,0,1,37.46,47.17Zm9.32,10.67-2.07-.32L41.1,57a1.14,1.14,0,0,1-.92-.53c-.52-1-1-2.05-1.51-3.07-.37-.76-.76-1.51-1.16-2.32l-.15.32c-.82,1.65-1.65,3.29-2.45,4.95a1.19,1.19,0,0,1-1,.65L32,57.28l-2.47.36-1.28.2c.32.29.59.51.84.75l3.35,3.29a1.1,1.1,0,0,1,.38.94c-.08.64-.2,1.28-.31,1.92-.16.91-.33,1.83-.49,2.75-.07.4-.12.81-.19,1.25l.33-.16L37,66.05a1.15,1.15,0,0,1,1.16,0l2.4,1.27,1.31.7,1.43.75c-.15-.81-.29-1.56-.42-2.32-.17-1-.34-1.9-.49-2.84a4.85,4.85,0,0,1-.1-1,1.58,1.58,0,0,1,.63-1c.69-.65,1.34-1.34,2-2Z"/></g><g class="cls-23"><path class="cls-24" d="M272.46,102.56a1.21,1.21,0,0,1-.84-.83,2.5,2.5,0,0,1-.05-.29.5.5,0,0,1,0-.12v-1.6l0-.24a5.44,5.44,0,0,0,.08-.6,10.21,10.21,0,0,1,1-3.49A9.55,9.55,0,0,1,275,92.32a12.36,12.36,0,0,1,3.77-2.22,18.9,18.9,0,0,1,5.91-1.21c.61,0,.81-.14,1-.77A4.23,4.23,0,0,1,286.81,86a3.3,3.3,0,0,1,2.17-.89h.25a6.71,6.71,0,0,1,4.31,1.7,1.23,1.23,0,0,0,.72.31,1.14,1.14,0,0,0,.77-.38,16.62,16.62,0,0,1,3.22-2.42,10,10,0,0,1,2.52-1,7.29,7.29,0,0,1,.85-.11l.26,0,.71,0,.35,0,.3,0V80.72c0-2.43,0-4.94,0-7.42a.66.66,0,0,0-.48-.69c-.39-.15-.79-.33-1.18-.5l-.74-.33a.87.87,0,0,0-.32-.06.59.59,0,0,0-.23,0,43.26,43.26,0,0,1-4.92,1.41c-.88.19-1.81.36-2.76.51-.73.1-1.5.18-2.31.23-.65,0-1.24.07-1.83.07l-.69,0a15.82,15.82,0,0,1-4.31-.77,12.28,12.28,0,0,1-3.8-2,13.24,13.24,0,0,1-3.92-5.13,16.5,16.5,0,0,1-1.19-4c-.13-.81-.23-1.64-.29-2.47a21.32,21.32,0,0,1-.06-2.26,1,1,0,0,1,.94-1.08c1.09-.15,2.07-.29,3.06-.41.73-.08,1.52-.16,2.5-.23.68-.05,1.39-.09,2.17-.12l.51,0c.52,0,1.07,0,1.6,0h.57c.68,0,1.38.08,2.05.14l.92.08a20.55,20.55,0,0,1,3.86.7,14.42,14.42,0,0,1,5.08,2.4,10.35,10.35,0,0,1,2.85,3.31,9.77,9.77,0,0,1,1.14,3.46c.08.73.14,1.51.17,2.32a4.55,4.55,0,0,1-.06.81c0,.13,0,.26-.05.4a.65.65,0,0,0,.48.78,2.56,2.56,0,0,1,.5.21l.28.13.46.21V67.09c0-3.65,0-7.42,0-11.13a1.76,1.76,0,0,0-.23-.83,13.84,13.84,0,0,1-1.25-3.41c-.13-.67-.24-1.42-.35-2.34a11.06,11.06,0,0,1,.82-5.38A11.44,11.44,0,0,1,304,41a17.15,17.15,0,0,1,4.7-4,32,32,0,0,1,7.07-3.06,48,48,0,0,1,5.83-1.44l1.11-.2,2.46-.44c.54-.08,1.1-.14,1.64-.2l.83-.1a.34.34,0,0,0,.15-.06h.53a1.17,1.17,0,0,1,.76.69c0,.13.09.25.13.38a9,9,0,0,1,.32,1c.21.94.43,1.94.59,3A21,21,0,0,1,330.3,41a16.19,16.19,0,0,1-.9,4.6,14.2,14.2,0,0,1-2.22,4.08,14.89,14.89,0,0,1-4.51,3.81,20.88,20.88,0,0,1-6,2.2c-1.07.22-2,.39-2.85.52-.41.06-.84.1-1.26.13l-.69.06c-1.08.1-2.16.12-3.08.12h-2.85l-.13,0h0l-.26,0V75l.35,0c.77-.07.8-.5.76-1a7,7,0,0,1,0-1.58,12.85,12.85,0,0,1,.51-2.1,6.41,6.41,0,0,1,1.47-2.41,9.2,9.2,0,0,1,2.87-2.07,15.73,15.73,0,0,1,3.34-1,22.8,22.8,0,0,1,4.36-.34H321a17.17,17.17,0,0,1,1.9.15l.59.07,1.75.21.66.08A1.13,1.13,0,0,1,326.92,66a14.32,14.32,0,0,1-.24,3.42,12.1,12.1,0,0,1-1.08,3.45A9.25,9.25,0,0,1,324,75.18a9,9,0,0,1-2.78,2.09,10.72,10.72,0,0,1-3,.9,13.24,13.24,0,0,1-2.1.18c-.26,0-.52,0-.77,0a25.76,25.76,0,0,1-3.43-.44c-.79-.16-1.59-.39-2.36-.61-.58-.16-1.18-.33-1.78-.48l-.17,0A1.68,1.68,0,0,0,307,77l-.17.07c-.28.11-.55.22-.83.35l-.37.16-.19.09v1.71c0,1.34,0,2.72,0,4.09a.74.74,0,0,0,.39.7,17,17,0,0,1,1.39,1.07c.37.31.73.63,1.08.94l.47.42.24.21.22-.24a5.34,5.34,0,0,1,1.8-1.29,7,7,0,0,1,2-.55,6.79,6.79,0,0,1,.78,0,8.74,8.74,0,0,1,3.48.8,13.74,13.74,0,0,1,3,1.78.68.68,0,0,0,.42.15,1,1,0,0,0,.28,0h0a6.5,6.5,0,0,1,1.9-.32h.28a4.4,4.4,0,0,1,2.73,1.15,1.09,1.09,0,0,1,.2,1.19,1,1,0,0,1-1,.66h-.06a1,1,0,0,1-.65-.21,2.33,2.33,0,0,0-1.53-.56,3.34,3.34,0,0,0-.95.15l-.16.05c-.3.09-.62.18-.93.29a1.34,1.34,0,0,1-.49.1,1.51,1.51,0,0,1-1-.42A10.15,10.15,0,0,0,314.71,87a5.4,5.4,0,0,0-1-.1,3.84,3.84,0,0,0-2.6,1l-.38.35c-.23.2-.44.4-.66.56a2.23,2.23,0,0,1-1.27.33,2,2,0,0,1-1.23-.33,9,9,0,0,1-1.2-1.2,8,8,0,0,0-1.9-1.59,3.84,3.84,0,0,0-2-.61h-.17a6.62,6.62,0,0,0-3,.89,14.78,14.78,0,0,0-2.6,2,3.61,3.61,0,0,1-1.71,1,3.81,3.81,0,0,1-.74.08,3.23,3.23,0,0,1-2.09-.78,5.41,5.41,0,0,0-2.44-1.22,1.87,1.87,0,0,0-.4,0,1.51,1.51,0,0,0-1.51,1.33,3,3,0,0,1-.9,1.75,2.69,2.69,0,0,1-1.61.72,19.84,19.84,0,0,0-5.5,1,9.53,9.53,0,0,0-4.15,2.77A7.26,7.26,0,0,0,274,98.31c-.06.36-.12.72-.18,1.1,0,.17,0,.35-.08.52l-.05.37h57.36l-.18-.44c-.06-.14-.11-.27-.16-.4-.12-.29-.24-.59-.37-.88a1.24,1.24,0,0,1,0-1,1.06,1.06,0,0,1,.69-.59,1.22,1.22,0,0,1,.32,0,1.23,1.23,0,0,1,1.12.89c.31.81.58,1.61.8,2.38a2.86,2.86,0,0,1,.11,1.5,1,1,0,0,1-.83.82.22.22,0,0,0-.11,0Zm43.16-31.68a.75.75,0,0,1,.21,0,1.13,1.13,0,0,1,.88.92,1,1,0,0,1-.39,1c-.69.34-1.42.66-2.12,1l-.68.31-1.24.55-.62.27-.87.38.92.23.18,0a1.64,1.64,0,0,0,.28.07l.85.14a17.48,17.48,0,0,0,2.07.28c.34,0,.68,0,1,0a10.45,10.45,0,0,0,2.37-.25,7.39,7.39,0,0,0,3.6-1.86,8.27,8.27,0,0,0,2-3.29,14.24,14.24,0,0,0,.6-2.83c0-.3.06-.54-.1-.73s-.39-.22-.7-.25l-.22,0c-.85-.11-1.73-.21-2.6-.26-.35,0-.73,0-1.16,0l-1.34,0h-.12a16.32,16.32,0,0,0-1.93.13,26.61,26.61,0,0,0-2.74.54,7.44,7.44,0,0,0-3.13,1.64,5.27,5.27,0,0,0-1.48,2.21,6.59,6.59,0,0,0-.39,2.09l0,.47.45-.16.1,0,.2-.07,1.74-.76,3.45-1.5.13,0A1.93,1.93,0,0,1,315.62,70.88ZM285.2,57.66c-1,0-2.1.05-3.12.1h-.43c-.72,0-1.44.11-2.14.17h-.08l-1.89.2-.89.09-.32,0,0,.32c0,.31.07.61.11.9.08.66.16,1.29.25,1.92a14.23,14.23,0,0,0,1.22,4A9.72,9.72,0,0,0,280.59,69a14.77,14.77,0,0,0,1.86,1.3,12,12,0,0,0,5.32,1.42q.6,0,1.2,0a20.86,20.86,0,0,0,3.36-.27c.86-.14,1.72-.33,2.55-.5l.68-.15c.23,0,.45-.11.68-.18l.34-.1.71-.2-.63-.38-.09-.06-.13-.08-2.32-1-1.55-.67-1.05-.45c-.82-.35-1.67-.71-2.48-1.09a1.14,1.14,0,0,1-.61-.67,1.17,1.17,0,0,1,.12-.92,1.08,1.08,0,0,1,1-.54,1.42,1.42,0,0,1,.65.16c.6.29,1.22.56,1.82.82l.64.27,3.63,1.58,1.82.78,1.23.53.05-.43a.88.88,0,0,1,0-.16,1.89,1.89,0,0,0,0-.42c0-.17,0-.34,0-.52-.05-.56-.1-1.15-.2-1.72a7.58,7.58,0,0,0-1.78-3.65,10.36,10.36,0,0,0-4.55-2.89,18.64,18.64,0,0,0-4.43-1l-.76-.08a20.36,20.36,0,0,0-2.08-.14Zm31.53-14.33a1.24,1.24,0,0,1,.51.11,1,1,0,0,1,.58.72,1.12,1.12,0,0,1-.17.93,9.55,9.55,0,0,1-.86.82l-.13.11c-.38.34-.77.68-1.15,1l-1,.89-.92.83-.77.69c-.8.71-1.61,1.42-2.41,2.11-.17.15-.35.31-.53.45l-.62.53-.94.85-.4.37-.16.14.1.28.08.23.25,0,.29,0,.62-.05.65,0c.35,0,.72,0,1.09-.05,1.31-.11,2.46-.22,3.5-.35a21.35,21.35,0,0,0,3.71-.82,16.83,16.83,0,0,0,4.08-1.82,13.15,13.15,0,0,0,2.81-2.33,12,12,0,0,0,1.8-2.68,10.7,10.7,0,0,0,1-2.91,26,26,0,0,0,.37-2.94,18.79,18.79,0,0,0-.3-4.32c-.07-.45-.18-.91-.27-1.35-.05-.2-.09-.4-.14-.6l-.06-.3-.3,0-.48.07-1,.16-.82.13-2.63.46a49.57,49.57,0,0,0-5.65,1.41,31.07,31.07,0,0,0-6,2.54,16.79,16.79,0,0,0-3.18,2.24,11.08,11.08,0,0,0-2.86,3.86,9.09,9.09,0,0,0-.76,3.46,13.58,13.58,0,0,0,.24,2.57,13.77,13.77,0,0,0,.43,1.59l.21.7.11.38.35-.18.09,0a.72.72,0,0,0,.19-.11l1.5-1.32,1-.87L309,49.78l1.14-1,.66-.58,2.29-2,.21-.19c.83-.73,1.68-1.48,2.51-2.24A1.36,1.36,0,0,1,316.73,43.33Z"/><path class="cls-24" d="M289.09,95.05a1.13,1.13,0,0,1-.85-.33,1.1,1.1,0,0,1-.3-.8,1,1,0,0,1,1.14-1.13h0a1.11,1.11,0,0,1,1.12,1.12c-.06.75-.44,1.13-1.11,1.14Z"/><path class="cls-24" d="M310.56,95.89a1.12,1.12,0,0,1-1.13-1.15,1,1,0,0,1,.31-.76,1.06,1.06,0,0,1,.76-.33,1.23,1.23,0,0,1,.89.34,1.11,1.11,0,0,1,.31.78A1.08,1.08,0,0,1,310.56,95.89Z"/><path class="cls-24" d="M301.82,91.07h-.17a1.07,1.07,0,0,1-.79-.32,1.09,1.09,0,0,1-.32-.8,1.06,1.06,0,0,1,1.11-1.11h0A1.11,1.11,0,0,1,302.81,90a1.08,1.08,0,0,1-.34.77A.91.91,0,0,1,301.82,91.07Z"/><path class="cls-24" d="M328.3,94.42h-.2a.93.93,0,0,1-.69-.32,1.12,1.12,0,0,1,.8-1.92h0a1.2,1.2,0,0,1,1.11,1.16A1.12,1.12,0,0,1,328.3,94.42Z"/><path class="cls-24" d="M320.9,42.14A1.08,1.08,0,0,1,319.75,41a1,1,0,0,1,1.12-1.13h0A1.08,1.08,0,0,1,322,41a1.06,1.06,0,0,1-1.1,1.13Z"/></g><text class="cls-1" transform="translate(95 272.1)"><tspan class="cls-28">B</tspan><tspan class="cls-29" x="10.37" y="0">E</tspan><tspan class="cls-22" x="20.25" y="0">S</tspan><tspan x="29.65" y="0">T </tspan><tspan class="cls-33" x="0" y="16">A</tspan><tspan class="cls-34" x="10.82" y="16">C</tspan><tspan class="cls-35" x="21.69" y="16">C</tspan><tspan class="cls-6" x="32.88" y="16">E</tspan><tspan x="42.67" y="16">L</tspan><tspan class="cls-6" x="50.84" y="16">E</tspan><tspan class="cls-36" x="60.63" y="16">R</tspan><tspan class="cls-37" x="71.31" y="16">A</tspan><tspan class="cls-38" x="81.57" y="16">T</tspan><tspan class="cls-7" x="90.37" y="16">O</tspan><tspan class="cls-39" x="103.97" y="16">R</tspan><tspan x="114.59" y="16">/ </tspan><tspan class="cls-40" x="0" y="32">I</tspan><tspan class="cls-41" x="4.54" y="32">NC</tspan><tspan class="cls-3" x="28.17" y="32">U</tspan><tspan class="cls-42" x="39.66" y="32">B</tspan><tspan class="cls-37" x="49.9" y="32">A</tspan><tspan class="cls-38" x="60.16" y="32">T</tspan><tspan class="cls-7" x="68.95" y="32">O</tspan><tspan x="82.55" y="32">R </tspan><tspan class="cls-43" x="0" y="48">P</tspan><tspan class="cls-44" x="9.54" y="48">R</tspan><tspan class="cls-45" x="19.49" y="48">O</tspan><tspan class="cls-7" x="33.05" y="48">G</tspan><tspan class="cls-36" x="45.44" y="48">R</tspan><tspan class="cls-12" x="56.11" y="48">A</tspan><tspan x="67.53" y="48">M</tspan></text><text class="cls-1" transform="translate(360 282.1)"><tspan class="cls-28">B</tspan><tspan class="cls-29" x="10.37" y="0">E</tspan><tspan class="cls-22" x="20.25" y="0">S</tspan><tspan x="29.65" y="0">T </tspan><tspan class="cls-31" x="0" y="16">C</tspan><tspan class="cls-46" x="10.87" y="16">O</tspan><tspan class="cls-47" x="24.88" y="16">-</tspan><tspan class="cls-30" x="29.74" y="16">W</tspan><tspan class="cls-7" x="45.52" y="16">O</tspan><tspan class="cls-17" x="59.11" y="16">R</tspan><tspan class="cls-48" x="69.22" y="16">K</tspan><tspan class="cls-49" x="80.34" y="16">I</tspan><tspan class="cls-50" x="84.88" y="16">N</tspan><tspan x="97.37" y="16">G </tspan><tspan class="cls-51" x="0" y="32">S</tspan><tspan class="cls-52" x="9.15" y="32">P</tspan><tspan class="cls-53" x="17.86" y="32">A</tspan><tspan class="cls-35" x="28.68" y="32">C</tspan><tspan x="39.87" y="32">E</tspan></text><g class="cls-23"><path class="cls-24" d="M6.52,337.83c-.8-.4-.92-1-.82-1.85a10.29,10.29,0,0,1,.51-2.34A8.79,8.79,0,0,1,7.79,331a8.65,8.65,0,0,1,2.89-2.2,7.84,7.84,0,0,1,2.48-.72c.14-.69.24-1.39.42-2.06a9.24,9.24,0,0,1,1.63-3.33,6.7,6.7,0,0,1,4.09-2.7,5.5,5.5,0,0,1,4.4,1c.56.4,1.06.86,1.6,1.27a5.65,5.65,0,0,0,2.33,1.14,1.76,1.76,0,0,0,1.7-.74,5,5,0,0,0,.86-2.62c.09-1.28.13-2.56.19-3.89H28.86a5.93,5.93,0,0,1-.94-.05,1.08,1.08,0,0,1-.77-.64q-2-4-4-8a1.34,1.34,0,0,1-.11-.21l-1.65.7c-1.26.54-2.53,1.07-3.79,1.62L13.91,311c-.25.11-.5.22-.76.31a1.19,1.19,0,0,1-1.6-1.12q0-5.44,0-10.88a1.3,1.3,0,0,1,.3-.77c.62-.75,1.29-1.46,1.92-2.19.79-.9,1.56-1.81,2.35-2.71.51-.59,1-1.16,1.55-1.74L20,289.23l1.51-1.7c.27-.31.54-.61.79-.93a.47.47,0,0,0,.07-.29v-2.17a25.24,25.24,0,0,1,1-7,39.85,39.85,0,0,1,1.52-3.93c.56-1.34,1.08-2.71,1.69-4s1.37-2.83,2.07-4.24c.27-.56.55-1.13.84-1.69a9.18,9.18,0,0,1,1.89-2.64A8.5,8.5,0,0,1,36,258.31l.54-.12h2.05c.38.08.78.15,1.16.25A8.64,8.64,0,0,1,43,260.08a9.55,9.55,0,0,1,2.63,3.41c.61,1.28,1.3,2.51,1.9,3.79s1,2.33,1.55,3.5c.27.61.52,1.23.8,1.83a1.31,1.31,0,0,1-.4,1.69,1.25,1.25,0,0,1-1.77-.61c-.44-1.12-.93-2.22-1.41-3.33v0c-.11-.7-.57-.76-1.19-.76-5.23,0-10.47,0-15.7,0h-.37l-1.84,4.35A28.65,28.65,0,0,0,25.39,279a27.59,27.59,0,0,0-.46,2.82c-.1,1.16-.13,2.32-.13,3.48q0,9.31,0,18.62v.42H50.27V304c0-6.8,0-13.6,0-20.39a27.51,27.51,0,0,0-.41-3.61c-.06-.49-.21-1-.31-1.45a1.25,1.25,0,0,1,1-1.41,1.16,1.16,0,0,1,1.35.91,27.61,27.61,0,0,1,.6,3.22,44,44,0,0,1,.12,4.59,1.94,1.94,0,0,0,.7,1.39c.67.79,1.34,1.56,2,2.34l1.47,1.65,2,2.32,1.47,1.65,2,2.31c.32.37.66.71,1,1.09a1.19,1.19,0,0,1,.25.63c0,3.69,0,7.37,0,11.06a1.17,1.17,0,0,1-1.63,1c-1.51-.64-3-1.3-4.52-1.95L52,307.13l-.39.77-3.78,7.56a1.06,1.06,0,0,1-1,.6c-.71,0-1.42,0-2.18,0,0,.6,0,1.19,0,1.77a11.37,11.37,0,0,0,.44,3.53,5.1,5.1,0,0,0,.72,1.39,1.52,1.52,0,0,0,1.6.55,6.17,6.17,0,0,0,2.81-1.56,6.93,6.93,0,0,1,3.26-1.8,5.59,5.59,0,0,1,3.35.34,6.66,6.66,0,0,1,2.3,1.58,9.44,9.44,0,0,1,2.43,4.72c.08.4.11.81.19,1.2A.36.36,0,0,0,62,328a8.61,8.61,0,0,1,4,1.73,8.38,8.38,0,0,1,3.14,4.95,11.64,11.64,0,0,1,.19,2.13.92.92,0,0,1-.52.81l-.27.18Zm43-31H25.56a2.29,2.29,0,0,1,.1.23l3.22,6.44a.32.32,0,0,0,.35.2h5.85a1.2,1.2,0,0,1,1.23,1.08,1.12,1.12,0,0,1-.87,1.26,8.16,8.16,0,0,1-1.31.07h-1.4c0,.33,0,.62,0,.9a21.55,21.55,0,0,1-.19,3.59,8.46,8.46,0,0,1-.92,2.91,4.11,4.11,0,0,1-4.21,2.21A7.31,7.31,0,0,1,24,324.21c-.63-.46-1.19-1-1.83-1.43a3.07,3.07,0,0,0-3.39-.13,6,6,0,0,0-2.66,3.27,8.34,8.34,0,0,0-.56,3.28,1.16,1.16,0,0,1-1.1,1.13c-.41,0-.83.06-1.24.12a6.1,6.1,0,0,0-3.36,1.78,5.39,5.39,0,0,0-1.24,1.84c-.17.44-.32.9-.49,1.39H66.87c0-.09,0-.16-.06-.23a6.18,6.18,0,0,0-2.49-3.71,6.27,6.27,0,0,0-3.74-1.2,1.11,1.11,0,0,1-1.08-1.09,16.62,16.62,0,0,0-.19-1.88A6.68,6.68,0,0,0,56.74,323a3.21,3.21,0,0,0-2.84-.64,4.83,4.83,0,0,0-2,1.21,9.54,9.54,0,0,1-3,1.85,4.59,4.59,0,0,1-2.64.27,4.2,4.2,0,0,1-2.94-2.34,10.12,10.12,0,0,1-1-4.39c0-.84,0-1.68,0-2.51v-.34c-.75,0-1.45,0-2.15,0a1.43,1.43,0,0,1-.77-.29,1.12,1.12,0,0,1-.35-1.32,1.2,1.2,0,0,1,1.17-.78h5.51a.41.41,0,0,0,.44-.28l3.09-6.2C49.35,307.07,49.41,306.94,49.48,306.79Zm11.61,1.62c0-.1,0-.16,0-.22,0-2.71,0-5.43,0-8.14a.51.51,0,0,0-.14-.32c-.32-.38-.66-.75-1-1.13-.65-.74-1.29-1.5-1.94-2.24-.5-.58-1-1.15-1.53-1.72l-2.07-2.38c-.35-.41-.69-.83-1-1.23s-.48-.53-.78-.84v8.32c0,2,0,4,0,6a.32.32,0,0,0,.21.35l2.7,1.16,3.72,1.58ZM14,308.4l2.11-.9,2.84-1.22,3.26-1.4a.34.34,0,0,0,.23-.37v-14c0-.07,0-.15,0-.25l-.37.41c-.48.54-1,1.08-1.44,1.63-.68.78-1.35,1.56-2,2.33l-1,1.15-1.85,2.16c-.51.58-1,1.14-1.52,1.73a.8.8,0,0,0-.18.52c0,1.34,0,2.68,0,4Zm16.23-41.18H44.83a3.68,3.68,0,0,0-.16-.34c-.52-1-1-2-1.56-3a6,6,0,0,0-2.64-2.59,6.18,6.18,0,0,0-4-.64,6.09,6.09,0,0,0-4.16,2.65c-.62.95-1.08,2-1.62,3C30.52,266.6,30.36,266.9,30.18,267.22Z"/><path class="cls-24" d="M46.77,286.41a9,9,0,0,1-1,4.23,9.14,9.14,0,0,1-3.63,3.79,8.88,8.88,0,0,1-3.4,1.13,9.37,9.37,0,0,1-7.94-2.81,8.47,8.47,0,0,1-2.22-4.19,1.19,1.19,0,0,1,2.33-.43,7.31,7.31,0,0,0,1.18,2.41A6.86,6.86,0,0,0,36,293.08a6.39,6.39,0,0,0,4.58-.56,6.7,6.7,0,0,0,3.6-4.5,6.91,6.91,0,0,0-5.51-8.38,6.84,6.84,0,0,0-7.5,4.22,1.32,1.32,0,0,1-1.28.72,1.17,1.17,0,0,1-1-1.13,3.71,3.71,0,0,1,.75-1.87,8.88,8.88,0,0,1,4.21-3.68,8.11,8.11,0,0,1,2.75-.68c.4,0,.8-.07,1.2-.06a9.31,9.31,0,0,1,6.32,2.75,9.18,9.18,0,0,1,2.47,4.7A15.45,15.45,0,0,1,46.77,286.41Z"/></g><g class="cls-23"><path class="cls-24" d="M324.81,325.37h-.14a1.05,1.05,0,0,1-.75-.31,1.23,1.23,0,0,1-.34-.86,1.17,1.17,0,0,1,1.19-1.18,1.19,1.19,0,0,1,.86.34,1.09,1.09,0,0,1,.32.81A1.11,1.11,0,0,1,324.81,325.37Z"/><path class="cls-24" d="M302.51,334a1.3,1.3,0,0,1-.42-.08l-3.27-1.23-.06,0L297,332l-2.58-1-2.55-1-3.48-1.31-2-.76-.07,0-1.9-.71-3.86-1.45-2.34-.88-2.41-.91-2.25-.84h0l-2.66-1-1.9-.72-.14-.05-1.79-.67-.53-.2-.81-.3a1.24,1.24,0,0,1-.61-.71v-.66a1.86,1.86,0,0,1,1.19-.91c1.26-.45,2.53-.94,3.76-1.4h0l1.62-.61,1.94-.73.06,0,2.33-.87,2.21-.84,0,0,2.5-.94,2-.76.1,0,1.89-.71,2.36-.89.17-.06,2.23-.84,2.16-.81,1.4-.53.3-.11.16-.07.42-.16-.59-1-.75-1.23-.9-1.44-2.24-3.62-1-1.61h0c-.51-.82-1.05-1.67-1.57-2.52-.24-.4-.5-.8-.75-1.19h0a35,35,0,0,1-2.19-3.82,17.83,17.83,0,0,1-1.48-4.56c-.16-.92-.28-1.83-.35-2.69a16.53,16.53,0,0,1-.06-2.27,21,21,0,0,1,1.57-6.86,21.35,21.35,0,0,1,2.81-4.82c.29-.38.62-.74.94-1.1h0l.4-.44a17.43,17.43,0,0,1,3.61-3,20.22,20.22,0,0,1,7.5-2.94,17.86,17.86,0,0,1,2.24-.24h.15c.47,0,1-.07,1.44-.07a6.4,6.4,0,0,1,.64,0c1.21.09,2.39.23,3.51.42a17.33,17.33,0,0,1,3.37,1,21.52,21.52,0,0,1,3.34,1.71,20,20,0,0,1,4.18,3.55,19.54,19.54,0,0,1,2.54,3.52,19,19,0,0,1,1.91,4.44c.25.91.44,1.87.62,2.8v.1A13.42,13.42,0,0,1,323,283c-.05.86-.16,1.74-.27,2.59,0,.19-.05.37-.07.56a15,15,0,0,1-.81,3.12,20.59,20.59,0,0,1-2,4.09c-.64,1-1.27,2-1.88,3h0q-.54.9-1.11,1.8L315.73,300v0c-.32.51-.63,1-1,1.52l-1.36,2.19-.08.13-1.1,1.78-.44.69h0l-.31.5a.86.86,0,0,0-.1.16.41.41,0,0,1-.05.09l-.21.38.41.15.78.29,1.62.61,2.17.82,2.69,1,1.94.72h0l1.58.59,2.84,1.07.06,0,1.85.7,1.55.58.06,0,2.17.82,2.18.82h0l3.11,1.18,2.95,1.09a1.18,1.18,0,0,1,.83.8.49.49,0,0,0,0,.11v.53c-.17.33-.32.6-.61.71l-.79.29-.55.21-2.05.77-.24.09-2.57,1-.46.17c-.57.22-1.16.44-1.75.64a1.13,1.13,0,0,1-.36.06,1.06,1.06,0,0,1-.74-.33,1.17,1.17,0,0,1-.32-1.05,1.12,1.12,0,0,1,.72-.83l3.07-1.15,1.37-.51.94-.34-.93-.36-.42-.16-.73-.28-1.56-.59-4.78-1.8-2.25-.83,0,0-2.54-.94-3-1.13h0l-3.18-1.2-2.92-1.09-.1,0-1.5-.56-.27-.1-1.12-.43a.66.66,0,0,0-.27-.06.59.59,0,0,0-.5.3c-.36.57-.71,1.14-1.06,1.71l0,.06c-.41.66-.82,1.31-1.22,2l-1.74,2.79-.55.89-.47.73c-.33.53-.68,1.08-1,1.64a1.22,1.22,0,0,1-1,.61,1.09,1.09,0,0,1-.93-.52c-.63-1-1.24-2-1.83-2.92l-.05-.08c-.25-.41-.51-.82-.76-1.24-.45-.71-.89-1.42-1.33-2.13l-1-1.55-.28-.44,0,0c-.28-.45-.57-.91-.84-1.37a.72.72,0,0,0-.59-.39.85.85,0,0,0-.33.07c-.83.33-1.67.64-2.49.95l-1.26.47-2.35.88-.06,0-2.44.92-2,.74h0l-1.55.59-2.6,1-.27.1-1.89.71-1.95.73-.14.06-1.47.55-3.7,1.39a.39.39,0,0,0-.21.18h0l-.3.4,1.4.53,1.91.72L278,322.4l3.4,1.28,2.21.83,3.65,1.37,1.81.68.08,0,2.43.91,2.5.94,2.25.86,2.63,1,1.37.52.42.15.1,0,1.35.5a.81.81,0,0,0,.31.06.76.76,0,0,0,.27-.05l3.38-1.27.67-.25,3.46-1.3,1.43-.54.05,0,3.27-1.23.32-.11c1.16-.44,2.36-.88,3.55-1.28a.54.54,0,0,1,.22,0,1.13,1.13,0,0,1,1,.81,1.19,1.19,0,0,1-.82,1.46l-4,1.49-3.87,1.45-4.67,1.74-.35.13-2.14.79-.3.11-1.12.43A1.19,1.19,0,0,1,302.51,334Zm.25-69.62a20.72,20.72,0,0,0-2.69.18,23.66,23.66,0,0,0-3,.64,15,15,0,0,0-4.85,2.37,26.42,26.42,0,0,0-2.5,2.05,14.36,14.36,0,0,0-1.63,1.87,17.3,17.3,0,0,0-2.85,5.4,27.2,27.2,0,0,0-.72,3,11.73,11.73,0,0,0-.19,3.62c0,.27.06.54.09.79h0c.06.55.12,1.13.21,1.69A16,16,0,0,0,285.9,290a34.14,34.14,0,0,0,2.31,4c.34.54.7,1.1,1,1.65.5.82,1,1.65,1.52,2.44h0l.78,1.24,1,1.69.14.23,1.35,2.17,1,1.6.06.08,1.06,1.71,1.53,2.45.06.1,1,1.55,1.87,3,1,1.58.91,1.45,1.05-1.69,1.31-2.1c.37-.61.75-1.21,1.12-1.81l.06-.1,1.37-2.19,1-1.62,0-.06c.36-.56.71-1.13,1.07-1.7l1.25-2,0,0,1.26-2,1-1.65v0c.36-.57.72-1.14,1.07-1.72l2.84-4.56c.13-.22.26-.43.4-.64.4-.64.81-1.3,1.18-2a17.89,17.89,0,0,0,1.44-3.52,18.23,18.23,0,0,0,.73-4.87,14.2,14.2,0,0,0-.18-2.35,27.26,27.26,0,0,0-.59-2.86,16.31,16.31,0,0,0-1.79-4.14,16.62,16.62,0,0,0-2.19-3c-.69-.73-1.43-1.4-2.07-2a13.63,13.63,0,0,0-3.13-2.05,29.41,29.41,0,0,0-3.15-1.24,15.38,15.38,0,0,0-4.47-.73Z"/><path class="cls-24" d="M302.55,293.37l-.63,0a10.81,10.81,0,0,1,.57-21.61h.28a10.74,10.74,0,0,1,7.41,3.2,10.81,10.81,0,0,1-7.63,18.43ZM294,281.32a8.49,8.49,0,0,0,1.35,6,8.65,8.65,0,0,0,4.74,3.47,8.45,8.45,0,0,0,9.54-3.63l.16-.27-.24-.21a23.77,23.77,0,0,0-7.07-4.19,24.46,24.46,0,0,0-8.1-1.48h-.33Zm8.47-7.32a8.49,8.49,0,0,0-7.35,4.21l-.31.53.62,0a26.79,26.79,0,0,1,7.86,1.59,26.27,26.27,0,0,1,7,3.94l.49.38.11-.6a8.45,8.45,0,0,0-1-5.89,8.55,8.55,0,0,0-7.34-4.19Z"/></g><line class="cls-54" x1="1.25" y1="0.5" x2="527.35" y2="0.5"/></g></g></svg>