<svg xmlns="http://www.w3.org/2000/svg" viewBox="0 0 56.33 56.33"><defs><style>.cls-1,.cls-2,.cls-3{fill:#fff;}.cls-1{opacity:0.4;}.cls-2{opacity:0.15;}.cls-3{opacity:0.25;}</style></defs><g id="Layer_2" data-name="Layer 2"><g id="Layer_1-2" data-name="Layer 1"><path class="cls-1" d="M9.33,8.64h0L8.64,47,47,47.69h0l.67-38.38Zm1.73,37.24-.61-34.82,34.82-.61.61,34.82Z"/><polygon class="cls-1" points="16.79 18.3 16.79 38.03 26.66 28.16 16.79 18.3"/><polygon class="cls-1" points="39.54 18.3 29.67 28.16 39.54 38.03 39.54 18.3"/><polygon class="cls-2" points="38.03 16.79 18.3 16.79 28.16 26.66 38.03 16.79"/><polygon class="cls-2" points="28.16 29.67 18.3 39.54 38.03 39.54 28.16 29.67"/><polygon class="cls-2" points="9.75 6.84 19.51 6.84 14.63 1.97 9.87 6.73 9.75 6.84"/><polygon class="cls-2" points="49.49 9.75 49.49 19.51 54.37 14.63 49.6 9.86 49.49 9.75"/><polygon class="cls-2" points="6.84 19.51 6.84 9.75 6.73 9.86 1.96 14.63 6.84 19.51"/><polygon class="cls-2" points="46.58 6.84 46.47 6.73 41.7 1.97 36.82 6.84 46.58 6.84"/><polygon class="cls-2" points="9.75 49.49 9.87 49.6 14.63 54.37 19.51 49.49 9.75 49.49"/><polygon class="cls-2" points="49.49 36.82 49.49 46.58 49.6 46.47 54.37 41.7 49.49 36.82"/><polygon class="cls-2" points="36.82 49.49 41.7 54.37 46.47 49.6 46.58 49.49 36.82 49.49"/><polygon class="cls-2" points="6.84 46.58 6.84 36.82 1.96 41.7 6.73 46.47 6.84 46.58"/><path class="cls-3" d="M13.15,12.62l-.53,30.56,30.56.53.53-30.56ZM14.9,41.9l-.47-27,27-.47.47,27Z"/><polygon class="cls-3" points="28.16 0 21.32 6.84 35.01 6.84 28.16 0"/><polygon class="cls-3" points="35.01 49.49 21.32 49.49 28.16 56.33 35.01 49.49"/><polygon class="cls-3" points="49.49 21.32 49.49 35.01 56.33 28.16 49.49 21.32"/><polygon class="cls-3" points="6.84 21.32 0 28.16 6.84 35.01 6.84 21.32"/></g></g></svg>