<svg xmlns="http://www.w3.org/2000/svg" viewBox="0 0 65.1 66.62"><defs><style>.cls-1,.cls-2,.cls-3{fill:#fff;}.cls-1{opacity:0.4;}.cls-2{opacity:0.25;}.cls-3{opacity:0.1;}.cls-4{fill:#f0f;}</style></defs><g id="Layer_2" data-name="Layer 2"><g id="Layer_1-2" data-name="Layer 1"><polygon class="cls-1" points="12.58 5.16 14.56 16.89 21.42 17.38 22.78 10.61 12.58 5.16"/><polygon class="cls-1" points="51.91 5.16 41.56 10.69 43.01 16.64 50.11 15.83 51.91 5.16"/><polygon class="cls-1" points="8.08 35.56 0.42 43.14 11.21 44.73 13.6 38.74 8.08 35.56"/><polygon class="cls-1" points="32.84 53.76 28.12 58.13 32.24 66.62 36.84 57.18 32.84 53.76"/><polygon class="cls-1" points="56.29 35.44 52.03 38.13 54.87 44.5 64.07 43.14 56.29 35.44"/><polygon class="cls-1" points="24.57 50.82 22.1 51.51 20.3 53.49 21.24 64.51 28.12 58.13 24.57 50.82"/><polygon class="cls-1" points="24.93 0 22.78 10.61 28.31 13.55 29.05 12.62 29.86 5.77 24.93 0"/><polygon class="cls-1" points="61.57 14.52 50.11 15.83 48.79 23.64 49.53 23.93 56.89 22.42 61.57 14.52"/><polygon class="cls-1" points="54.87 44.5 54.87 44.5 46.05 45.8 45.97 47.58 48.3 51.8 59.3 54.39 54.87 44.5"/><polygon class="cls-1" points="8.07 27.43 0 30.9 8.08 35.56 12.65 31.04 11.3 28.96 8.07 27.43"/><polygon class="cls-2" points="22.79 10.61 22.79 10.61 21.42 17.39 25.09 17.65 28.31 13.55 22.79 10.61"/><polygon class="cls-2" points="12.65 31.04 12.65 31.04 8.08 35.56 13.6 38.74 15.14 34.88 12.65 31.04"/><polygon class="cls-2" points="52.03 38.13 46.23 41.8 46.05 45.8 54.87 44.5 52.03 38.13"/><polygon class="cls-2" points="28.21 49.81 24.57 50.82 28.12 58.13 32.84 53.76 28.21 49.81"/><polygon class="cls-2" points="50.11 15.83 43.01 16.64 44.3 21.93 48.79 23.64 50.11 15.83"/><polygon class="cls-1" points="57.33 26.91 53.04 28.91 51.8 31 56.29 35.44 65.09 29.88 57.33 26.91"/><polygon class="cls-1" points="38.96 0.03 34.16 6.13 34.74 11.48 36.41 13.43 41.56 10.69 38.96 0.03"/><polygon class="cls-1" points="2.92 16.04 6.99 22.32 15.73 24.14 15.78 24.11 14.56 16.89 2.92 16.04"/><polygon class="cls-1" points="40.35 49.95 36.84 57.17 45.21 64.33 45.6 55.77 40.35 49.95"/><polygon class="cls-1" points="11.21 44.73 11.21 44.73 6.79 55.79 14.35 53.67 18.67 45.83 11.21 44.73"/><polygon class="cls-2" points="51.8 31 50.11 33.85 52.03 38.13 56.29 35.44 51.8 31"/><polygon class="cls-2" points="13.6 38.74 13.6 38.74 11.21 44.73 18.67 45.83 19.52 44.3 19.32 42.04 13.6 38.74"/><polygon class="cls-2" points="37.65 49.3 32.84 53.76 36.84 57.18 40.35 49.95 40.33 49.93 37.65 49.3"/><polygon class="cls-2" points="41.56 10.69 41.56 10.69 36.41 13.43 39.49 17.04 43.01 16.64 41.56 10.69"/><polygon class="cls-2" points="14.56 16.89 15.78 24.11 20.46 22.1 21.42 17.39 14.56 16.89"/><polygon class="cls-3" points="51.8 31 53.04 28.91 50.76 29.97 51.8 31"/><polygon class="cls-3" points="48.72 24.09 49.53 23.93 48.79 23.64 48.72 24.09"/><polygon class="cls-3" points="11.3 28.96 12.65 31.04 13.63 30.06 11.3 28.96"/><polygon class="cls-4" points="15.73 24.14 15.79 24.15 15.78 24.11 15.73 24.14"/><polygon class="cls-3" points="45.07 45.94 45.97 47.58 46.05 45.8 45.07 45.94"/><polygon class="cls-3" points="35.03 14.17 36.41 13.44 34.74 11.48 35.03 14.17"/><polygon class="cls-3" points="22.1 51.51 24.57 50.82 23.93 49.5 22.1 51.51"/><polygon class="cls-3" points="28.31 13.55 28.9 13.87 29.05 12.62 28.31 13.55"/><polygon class="cls-3" points="51.8 31 50.76 29.97 39.23 35.34 45.07 45.94 46.05 45.8 46.23 41.8 52.03 38.13 50.11 33.85 51.8 31"/><polygon class="cls-3" points="27.41 26.57 28.9 13.87 28.31 13.55 25.09 17.65 21.42 17.39 20.46 22.1 15.78 24.11 15.79 24.15 27.41 26.57"/><polygon class="cls-3" points="36.39 26.62 48.72 24.09 48.79 23.64 44.3 21.93 43.01 16.64 39.49 17.04 36.41 13.44 35.03 14.17 36.39 26.62"/><polygon class="cls-3" points="23.93 49.5 24.57 50.82 28.21 49.81 32.84 53.76 37.65 49.3 40.33 49.93 31.96 40.65 23.93 49.5"/><polygon class="cls-3" points="13.63 30.06 12.65 31.04 15.14 34.88 13.6 38.74 19.32 42.04 19.52 44.3 24.51 35.22 13.63 30.06"/></g></g></svg>