<svg xmlns="http://www.w3.org/2000/svg" viewBox="0 0 526.1 335.51"><defs><style>.cls-1{font-size:16px;font-family:AvenirNextLTPro-Demi, Avenir Next LT Pro;font-weight:300;}.cls-1,.cls-13{fill:#fff;}.cls-2{letter-spacing:0em;}.cls-3{letter-spacing:0.02em;}.cls-4{letter-spacing:0.01em;}.cls-5{letter-spacing:-0.07em;}.cls-6{letter-spacing:0em;}.cls-7{letter-spacing:-0.01em;}.cls-8{letter-spacing:0em;}.cls-9{letter-spacing:-0.03em;}.cls-10{letter-spacing:0em;}.cls-11{letter-spacing:0em;}.cls-12{opacity:0.5;}.cls-14{letter-spacing:-0.02em;}.cls-15{letter-spacing:0em;}.cls-16{letter-spacing:0em;}.cls-17{letter-spacing:0em;}.cls-18{letter-spacing:0em;}.cls-19{letter-spacing:0.01em;}.cls-20{letter-spacing:-0.01em;}.cls-21{letter-spacing:-0.02em;}.cls-22{letter-spacing:-0.01em;}.cls-23{letter-spacing:0em;}.cls-24{letter-spacing:-0.01em;}.cls-25{letter-spacing:0.01em;}.cls-26{letter-spacing:0em;}.cls-27{letter-spacing:0.01em;}.cls-28{fill:none;stroke:#42515f;stroke-miterlimit:10;opacity:0;}</style></defs><g id="Layer_2" data-name="Layer 2"><g id="Layer_1-2" data-name="Layer 1"><text class="cls-1" transform="translate(360 178.75)"><tspan class="cls-2">H</tspan><tspan class="cls-3" x="11.88" y="0">E</tspan><tspan class="cls-4" x="22.03" y="0">A</tspan><tspan class="cls-5" x="33.45" y="0">L</tspan><tspan class="cls-6" x="40.46" y="0">T</tspan><tspan x="49.56" y="0">H </tspan><tspan class="cls-6" x="0" y="16">T</tspan><tspan class="cls-7" x="9.1" y="16">E</tspan><tspan class="cls-8" x="18.68" y="16">C</tspan><tspan x="29.87" y="16">H</tspan></text><text class="cls-1" transform="translate(95 178.76)"><tspan class="cls-9">A</tspan><tspan class="cls-10" x="10.82" y="0">G</tspan><tspan class="cls-11" x="23.2" y="0">R</tspan><tspan x="33.3" y="0">I </tspan><tspan class="cls-6" x="0" y="16">T</tspan><tspan class="cls-7" x="9.1" y="16">E</tspan><tspan class="cls-8" x="18.68" y="16">C</tspan><tspan x="29.87" y="16">H</tspan></text><g class="cls-12"><path class="cls-13" d="M265,184.3c.2-.31.38-.65.8-.71.11,0,.23,0,.34,0h7.29c-.17-.42-.33-.81-.48-1.21a18.49,18.49,0,0,1-1-3.51c-.15-.91-.28-1.83-.35-2.76a22,22,0,0,1,1.21-9.25,21.08,21.08,0,0,1,2.81-5.25,1.15,1.15,0,1,1,1.75,1.46,18,18,0,0,0-2.36,4.36,19.1,19.1,0,0,0-1,4,23.21,23.21,0,0,0-.19,2.36,16,16,0,0,0,0,2.19c.12,1,.31,2.07.51,3.1a19.73,19.73,0,0,0,1.51,4.27.37.37,0,0,0,.4.24h6.66a.38.38,0,0,0,.38-.22c.82-1.49,1.66-3,2.5-4.44.2-.35.41-.69.6-1a1.18,1.18,0,0,1,2,.1c.58,1.14,1.26,2.23,1.89,3.34s1.07,1.92,1.61,2.87c.7,1.24,1.41,2.47,2.11,3.7.14.23.26.47.4.71l2.44-4.31c.94-1.65,1.87-3.31,2.8-5,.63-1.11,1.25-2.23,1.91-3.33a1.1,1.1,0,0,1,1.88,0c.39.65.77,1.31,1.15,2,.64,1.12,1.29,2.25,1.92,3.38.39.67.75,1.35,1.14,2a.34.34,0,0,0,.25.17H313l.11,0a6.22,6.22,0,0,1,2.23-3.74,5.92,5.92,0,0,1,3.2-1.36,6.2,6.2,0,0,1,4.66,1.33,6.24,6.24,0,0,1,1.83,7.46,3,3,0,0,1-.45.75,1.08,1.08,0,0,1-1.52.12,1.15,1.15,0,0,1-.3-1.38,7.88,7.88,0,0,0,.47-1.31,3.71,3.71,0,0,0-.69-3.1,4,4,0,0,0-2.57-1.61,4,4,0,0,0-3.79,6.52,4.08,4.08,0,0,0,2.54,1.46c.28.05.56,0,.84.07a1.1,1.1,0,0,1,.86,1.21,1.13,1.13,0,0,1-1.09,1,6.18,6.18,0,0,1-4.12-1.5,6.39,6.39,0,0,1-2.06-3.36,1.85,1.85,0,0,1,0-.27h-6a1.16,1.16,0,0,1-1.05-.48c-.26-.4-.47-.81-.7-1.22-.67-1.17-1.33-2.34-2-3.51-.32-.55-.63-1.11-1-1.71-.25.41-.47.79-.69,1.18l-2.45,4.3-1.59,2.82-2,3.49c-.16.27-.33.54-.47.82a1.12,1.12,0,0,1-1.86,0c-.44-.74-.86-1.49-1.29-2.23l-1.91-3.36L288.59,183l-1.26-2.21-.45.79-2.06,3.67a1.2,1.2,0,0,1-1.14.59h-6.44c.45.67.86,1.31,1.31,1.91.64.85,1.29,1.67,2,2.48.49.6,1,1.17,1.54,1.72.94,1,1.89,2,2.86,2.91.74.74,1.5,1.45,2.27,2.16s1.58,1.44,2.39,2.15c1,.87,2,1.73,3,2.6l2.31,2c.85.73,1.72,1.44,2.57,2.17.6.5,1.18,1,1.77,1.53s1.24,1,1.85,1.56,1,.86,1.48,1.29c.66.58,1.34,1.15,2,1.73l.58.52a.91.91,0,0,0,1.26,0l3.16-2.74,2.49-2.15,3-2.52c.43-.36.84-.74,1.27-1.09a1.1,1.1,0,0,1,1.19-.15,1.06,1.06,0,0,1,.65,1,1.08,1.08,0,0,1-.38.87L315.19,208c-.61.52-1.21,1.06-1.83,1.59l-1.91,1.62L310,212.43c-.8.69-1.58,1.41-2.42,2a3.23,3.23,0,0,1-3.95-.24c-1-.94-2.07-1.81-3.11-2.71L298,209.39c-1-.84-2-1.68-3-2.53-.74-.62-1.47-1.27-2.21-1.9l-3.05-2.64-1.95-1.72c-.86-.77-1.73-1.54-2.57-2.34-1.5-1.44-3-2.87-4.47-4.36-1-1-1.86-2.08-2.76-3.15a32.55,32.55,0,0,1-3.36-4.8.41.41,0,0,0-.31-.13h-4.49c-1.12,0-2.24,0-3.35,0a1.52,1.52,0,0,1-1.52-.76Z"/><path class="cls-13" d="M340,175.9a.64.64,0,0,0-.06.18,19.08,19.08,0,0,1-.61,3.9,23.61,23.61,0,0,1-2.17,5.43,28.46,28.46,0,0,1-2.84,4.29c-.74.92-1.46,1.86-2.26,2.72-1.47,1.58-3,3.13-4.5,4.67-.56.58-1.17,1.12-1.77,1.66-.85.77-1.72,1.53-2.57,2.28-.49.44-1,.88-1.48,1.3a1.09,1.09,0,0,1-1.68-.22,1.14,1.14,0,0,1,.32-1.6c.42-.33.82-.7,1.22-1l2.84-2.55.89-.83c1-.94,1.95-1.87,2.89-2.84s1.91-2.09,2.86-3.14a32.24,32.24,0,0,0,3.2-4.26,23.52,23.52,0,0,0,2-3.72,20.24,20.24,0,0,0,1.25-4.24,21.41,21.41,0,0,0,.24-2.54c0-.68,0-1.37,0-2.05,0-.52-.09-1-.1-1.55a1.08,1.08,0,0,1,1.06-1.07,1.09,1.09,0,0,1,1.14.92c.06.43.08.87.12,1.31a1.66,1.66,0,0,0,.06.21Z"/><path class="cls-13" d="M305.75,163.44c.62-.83,1.21-1.7,1.89-2.49a25.26,25.26,0,0,1,2.25-2.26,19.39,19.39,0,0,1,2.23-1.71,15.27,15.27,0,0,1,5.79-2.35c.8-.14,1.6-.21,2.4-.29a8.46,8.46,0,0,1,1.33-.06,21.73,21.73,0,0,1,3.11.33,16.88,16.88,0,0,1,5.34,1.9,20.89,20.89,0,0,1,2.56,1.73,17.43,17.43,0,0,1,4.34,5c.52.93,1,1.9,1.43,2.87a1.1,1.1,0,0,1-.52,1.55,1.13,1.13,0,0,1-1.55-.66,17.55,17.55,0,0,0-2.26-4.06c-.37-.49-.79-.92-1.19-1.38a14.71,14.71,0,0,0-3-2.49,15.77,15.77,0,0,0-5.32-2.17,16,16,0,0,0-4.19-.33,17,17,0,0,0-2.46.36,13.2,13.2,0,0,0-3.53,1.32,13.67,13.67,0,0,0-2.63,1.78c-.62.55-1.24,1.11-1.81,1.7a21.13,21.13,0,0,0-2.66,3.52,10.71,10.71,0,0,1-.81,1.25,1.07,1.07,0,0,1-1.7-.16c-.34-.54-.66-1.1-1-1.64a20.87,20.87,0,0,0-2-2.67,17.13,17.13,0,0,0-4.13-3.46,14.53,14.53,0,0,0-4.49-1.73,15,15,0,0,0-3.89-.27,16,16,0,0,0-8.22,2.85,1.13,1.13,0,0,1-1.22-1.91,17.78,17.78,0,0,1,4.79-2.35,15,15,0,0,1,3.18-.69,27.22,27.22,0,0,1,2.85-.16A17,17,0,0,1,295,155a17.57,17.57,0,0,1,3.35,1.4,14.46,14.46,0,0,1,2.82,2,24.37,24.37,0,0,1,2.21,2.1c.79.9,1.48,1.9,2.21,2.85Z"/></g><g class="cls-12"><path class="cls-13" d="M30.47,219.6a1.29,1.29,0,0,1-.76-1.34c0-.88,0-1.77,0-2.69h-5a1,1,0,0,1-1-.75,1,1,0,0,1,.62-1.26,1.93,1.93,0,0,1,.63-.1c1.09,0,2.17,0,3.26,0h.31v-4.8H16.65A1.59,1.59,0,0,1,15,207.55a2.11,2.11,0,0,1-.11-.65v-9.55a.64.64,0,0,0-.21-.51c-.6-.58-1.18-1.18-1.78-1.77a1.49,1.49,0,0,1-.46-1.1v-18.9a1.46,1.46,0,0,1,.44-1.08c.61-.59,1.21-1.2,1.82-1.8a.59.59,0,0,0,.19-.47v-9.6a1.66,1.66,0,0,1,1.74-1.74q15.68,0,31.36,0a1.12,1.12,0,0,1,1.06.85,1,1,0,0,1-.51,1.11,1.78,1.78,0,0,1-.75.16H17v9.61a1.75,1.75,0,0,1-.54,1.29c-.6.61-1.21,1.21-1.8,1.82a.56.56,0,0,0-.15.37q0,8.94,0,17.89a.58.58,0,0,0,.15.37c.59.6,1.18,1.2,1.78,1.79A1.75,1.75,0,0,1,17,197v9.58h11.9c.22,0,.31-.07.41-.29a2.64,2.64,0,0,1,2.33-1.62H43.29a2.52,2.52,0,0,1,2.12,1.14,3.7,3.7,0,0,1,.31.55.29.29,0,0,0,.31.22H58.14V196.8a1.44,1.44,0,0,1,.43-1c.64-.64,1.28-1.27,1.91-1.92a.59.59,0,0,0,.16-.37V175.58a.57.57,0,0,0-.16-.37c-.6-.62-1.21-1.23-1.82-1.84a1.68,1.68,0,0,1-.52-1.24c0-3.09,0-6.18,0-9.27v-.37h-5.6a1.76,1.76,0,0,1-.67-.15,1,1,0,0,1,.47-2H58.7a1.54,1.54,0,0,1,1.5,1.5v9.79a.51.51,0,0,0,.18.45L62.26,174a1.44,1.44,0,0,1,.44,1.06V194a1.51,1.51,0,0,1-.48,1.1c-.61.62-1.22,1.24-1.84,1.85a.51.51,0,0,0-.18.45c0,3.25,0,6.5,0,9.76a1.54,1.54,0,0,1-1.26,1.47,6,6,0,0,1-.73,0H54.78v4.8h10c.38,0,.4,0,.4-.4,0-1.6,0-3.19,0-4.79a.33.33,0,0,0-.25-.37A3.58,3.58,0,0,1,62.55,205a3.66,3.66,0,0,1,.73-3,3.58,3.58,0,0,1,1.83-1.26l.1,0V168.94c0-.24,0-.36-.28-.45a3.58,3.58,0,0,1-2.35-2.67,3.75,3.75,0,0,1,2.36-4.43c.21-.07.28-.15.27-.37,0-1.69,0-3.37,0-5.06,0-.34-.09-.43-.43-.43H10.34c-.32,0-.47.11-.47.41v5.33a3.82,3.82,0,0,1,0,7.35v.28q0,15.73,0,31.46c0,.25.07.34.31.44a3.82,3.82,0,0,1,1.68,5.89,3.42,3.42,0,0,1-1.72,1.24.31.31,0,0,0-.27.35c0,1.55,0,3.1,0,4.65,0,.45.08.53.53.53,3.25,0,6.5,0,9.76,0a1.08,1.08,0,0,1,1.2.8,1,1,0,0,1-1,1.31h-2v.29c0,.77,0,1.54,0,2.31a1.28,1.28,0,0,1-.82,1.43h-.54a1.2,1.2,0,0,1-.77-1.31c0-.81,0-1.61,0-2.42v-.3h-6.2a1,1,0,0,1-.25,0,2.39,2.39,0,0,1-2-2.39c0-1.86,0-3.73,0-5.6A1.51,1.51,0,0,1,9,206.07a1.79,1.79,0,0,0,1.51-1.8,1.75,1.75,0,0,0-1.38-1.59,1.58,1.58,0,0,1-1.35-1.58c0-1.67,0-3.33,0-5v-.32h-1c-.45,0-.9,0-1.35-.05a1,1,0,0,1-.84-.84,1,1,0,0,1,.69-1.16,1.61,1.61,0,0,1,.44-.05h2v-8.49H5.61a1,1,0,0,1-.94-.74,1,1,0,0,1,.48-1.17,1.36,1.36,0,0,1,.56-.14c.69,0,1.39,0,2.09,0v-8.49H5.61a1,1,0,0,1-.89-.59,1.22,1.22,0,0,1,.17-1.14,1,1,0,0,1,.79-.33H7.81v-.32c0-1.33,0-2.66,0-4a1.65,1.65,0,0,1,1.29-1.62,1.65,1.65,0,0,0,1.43-1.41,1.69,1.69,0,0,0-1.48-2,1.58,1.58,0,0,1-1.23-1.46q0-3,0-6a2.07,2.07,0,0,1,0-.5,2.34,2.34,0,0,1,2.22-1.78c2,0,3.92,0,5.87,0h.33c0-.87,0-1.71,0-2.54a1.18,1.18,0,0,1,.7-1.22h.71a1.37,1.37,0,0,1,.71,1.42c0,.68,0,1.36,0,2v.28H29.72v-2.65a1.45,1.45,0,0,1,0-.29,1.09,1.09,0,0,1,.66-.8h.71a1.29,1.29,0,0,1,.7,1.42c0,.67,0,1.35,0,2v.29H43.31c0-.85,0-1.69,0-2.52a1.18,1.18,0,0,1,.71-1.22h.7a1.36,1.36,0,0,1,.71,1.42c0,.68,0,1.36,0,2v.28H56.73v-2.65a2.89,2.89,0,0,1,0-.29,1.12,1.12,0,0,1,.66-.8h.71a1.3,1.3,0,0,1,.71,1.42c0,.67,0,1.35,0,2v.31H65.1a2.12,2.12,0,0,1,1.53.66,2.41,2.41,0,0,1,.69,1.74c0,1.91,0,3.81,0,5.71A1.66,1.66,0,0,1,66,163.26a1.69,1.69,0,0,0-1.39,1.93A1.72,1.72,0,0,0,66,166.63a1.64,1.64,0,0,1,1.35,1.62c0,1.33,0,2.66,0,4v.31h2a.94.94,0,0,1,.94.61,1,1,0,0,1-.94,1.46c-.52,0-1,0-1.57,0h-.42v8.49h2a1.36,1.36,0,0,1,.29,0,1,1,0,0,1,.74,1.08,1,1,0,0,1-1,.94h-2v8.49h2a1,1,0,0,1,1,1,.94.94,0,0,1-.85,1.05c-.63.06-1.26,0-1.89.06h-.3v.34c0,1.59,0,3.19,0,4.78a1.71,1.71,0,0,1-1.4,1.8,1.62,1.62,0,0,0-1.37,1.68A1.68,1.68,0,0,0,65.91,206a1.71,1.71,0,0,1,1.42,1.79c0,1.77,0,3.54,0,5.3a3.43,3.43,0,0,1-.06.56A2.32,2.32,0,0,1,65,215.57H58.84c0,.93,0,1.83,0,2.72a1.27,1.27,0,0,1-.77,1.31h-.59s0,0-.05-.06a1.12,1.12,0,0,1-.71-1.2c0-.82,0-1.64,0-2.47v-.28H45.42v.31c0,.85,0,1.7,0,2.55a1,1,0,0,1-.38.9,3,3,0,0,1-.43.25h-.54a1.22,1.22,0,0,1-.76-1.31c0-.81,0-1.62,0-2.42v-.28H31.83c0,.91,0,1.81,0,2.7a1.25,1.25,0,0,1-.76,1.31Zm5-12.88v6.72h2.75v-6.72Zm4.84,0v6.72H43v-6.72Zm-6.93,6.73v-6.74H31.91a.57.57,0,0,0-.13,0,.82.82,0,0,0-.61.53c-.11.3-.26.58-.39.87a1.09,1.09,0,0,0-.14.38c0,1.56,0,3.13,0,4.7v.26Zm14.46,0v-4.8H45.11v4.8Zm4.84-4.77H50v4.76h2.69Z"/><path class="cls-13" d="M38.51,197.06v3.1a1,1,0,0,1-1,1,1,1,0,0,1-1.08-1c0-1,0-1.9,0-2.85v-.24c-.83-.18-1.64-.31-2.42-.53a11.17,11.17,0,0,1-3.84-2,11.86,11.86,0,0,1-3.49-4.45,10.48,10.48,0,0,1-.9-3.19,11.49,11.49,0,0,1-.09-2.34,9.48,9.48,0,0,1,.56-2.35,28.26,28.26,0,0,1,2.86-5.54c.82-1.24,1.68-2.47,2.57-3.67.71-1,1.48-1.87,2.24-2.79s1.34-1.57,2-2.35a5.39,5.39,0,0,1,.59-.58,1.73,1.73,0,0,1,2.14.21c.62.72,1.26,1.42,1.87,2.15.87,1.05,1.74,2.1,2.58,3.18.7.91,1.34,1.86,2,2.8A33.36,33.36,0,0,1,48,180.44,14.27,14.27,0,0,1,49.21,184a8.33,8.33,0,0,1,0,2.59,12,12,0,0,1-.61,2.65,12.6,12.6,0,0,1-1.17,2.39,1.06,1.06,0,1,1-1.75-1.19,9.23,9.23,0,0,0,1.16-2.59l-1.51.86L43,190.06l-3,1.73-1.29.75c-.07,0-.16.12-.16.19,0,.72,0,1.44,0,2.22.71-.17,1.39-.29,2.05-.49a8.43,8.43,0,0,0,2.29-1.13,1.15,1.15,0,0,1,1.36,0,1.1,1.1,0,0,1-.11,1.7,11.24,11.24,0,0,1-3.38,1.54C40,196.76,39.28,196.9,38.51,197.06Zm7.21-16.44c-.42.25-.84.5-1.27.74-.91.52-1.82,1-2.73,1.56s-2,1.17-3,1.73a.36.36,0,0,0-.21.37c0,1.62,0,3.25,0,4.87v.29a1.71,1.71,0,0,0,.27-.13l4.07-2.33c1.38-.8,2.75-1.6,4.14-2.39a.36.36,0,0,0,.23-.41c0-.17,0-.35-.07-.53A13.46,13.46,0,0,0,45.72,180.62Zm-9.28,9.56a1.15,1.15,0,0,0,0-.14c0-1.7,0-3.4,0-5.11a.42.42,0,0,0-.2-.29c-1-.58-2-1.14-3-1.7l-3.86-2.22c-.14-.08-.21-.07-.27.07s-.17.39-.27.58a12.82,12.82,0,0,0-1.08,3.14c-.12.6-.11.64.32.89l2,1.12,2.65,1.54,2.38,1.37Zm6-14.82-1.76,1-1.94,1.11a.4.4,0,0,0-.22.41c0,1.38,0,2.75,0,4.13,0,.09,0,.17,0,.32l6.19-3.57Zm-12.17,3.41,6.18,3.55c0-.08,0-.11,0-.15,0-1.46,0-2.91,0-4.37a.43.43,0,0,0-.2-.31c-.7-.42-1.41-.83-2.12-1.23l-1.57-.9Zm-2.14,9.06a9.72,9.72,0,0,0,8.34,7c0-.69,0-1.38,0-2.06a.33.33,0,0,0-.15-.25l-1.43-.83-2.77-1.6-2.37-1.37Zm10.4-12.66,2.62-1.5-2.62-3.22Zm-2.09,0v-4.67l-2.59,3.18Z"/><path class="cls-13" d="M13.13,159.18a1.09,1.09,0,0,1-1.2-.74,1,1,0,0,1,1-1.37,1.43,1.43,0,0,1,1.11.27,1.06,1.06,0,0,1-.72,1.84Z"/><path class="cls-13" d="M61.86,159.22c-.49-.05-.94-.13-1.13-.64a1,1,0,0,1,.85-1.51,1.52,1.52,0,0,1,1.13.21,1,1,0,0,1,.36,1.08.82.82,0,0,1-.6.71C62.27,159.13,62.06,159.17,61.86,159.22Z"/><path class="cls-13" d="M13.17,212.18a1,1,0,0,1-1.21-.61,1,1,0,0,1,.86-1.43c.17,0,.34,0,.51,0a1,1,0,0,1,1,.89,1,1,0,0,1-.71,1.14A1.36,1.36,0,0,1,13.17,212.18Z"/><path class="cls-13" d="M61.86,212.2A1.27,1.27,0,0,1,61,212a1.08,1.08,0,0,1,.29-1.81,1.76,1.76,0,0,1,1.56.29,1,1,0,0,1,.18,1.08.9.9,0,0,1-.9.64Z"/></g><text class="cls-1" transform="translate(360 69.6)"><tspan class="cls-14">W</tspan><tspan class="cls-15" x="15.77" y="0">O</tspan><tspan class="cls-16" x="29.37" y="0">M</tspan><tspan class="cls-17" x="44.15" y="0">E</tspan><tspan x="53.94" y="0">N</tspan><tspan class="cls-18" x="0" y="16">I</tspan><tspan x="4.54" y="16">N </tspan><tspan class="cls-6" x="21.02" y="16">T</tspan><tspan class="cls-7" x="30.12" y="16">E</tspan><tspan class="cls-8" x="39.7" y="16">C</tspan><tspan x="50.88" y="16">H</tspan></text><text class="cls-1" transform="translate(95 69.59)"><tspan class="cls-19">E</tspan><tspan class="cls-20" x="9.88" y="0">S</tspan><tspan x="18.89" y="0">G </tspan><tspan class="cls-6" x="0" y="16">T</tspan><tspan class="cls-7" x="9.1" y="16">E</tspan><tspan class="cls-8" x="18.68" y="16">C</tspan><tspan x="29.87" y="16">H</tspan></text><g class="cls-12"><path class="cls-13" d="M273.45,111.1a.27.27,0,0,0-.13-.1.94.94,0,0,1-.54-.69.23.23,0,0,0-.07-.11V110l.06-.14a2.71,2.71,0,0,1,.18-.34,1.09,1.09,0,0,1,1-.41h5.85l0-.94c0-.61-.05-1.21-.07-1.82s0-1.25-.05-1.88l0-1.2,0-1,0-1,0-.94,0-1.15,0-1c0-.29,0-.59,0-.88s0-.77,0-1.15,0-.73,0-1.09,0-.8,0-1.21,0-.59,0-.88l0-1.06c0-.81,0-1.66-.06-2.5,0-.43,0-.89,0-1.46,0-.29,0-.58,0-.87a17.37,17.37,0,0,1,.05-2,7.56,7.56,0,0,1,1-3,8.24,8.24,0,0,1,3.38-3.25c.78-.4,1.6-.76,2.39-1.11l.84-.37,2.86-1.26a4.74,4.74,0,0,0,1.66-1,1.64,1.64,0,0,1,.24-.21l.13-.11.21-.18-.26-.09-1.11-.38c-.82-.28-1.6-.54-2.37-.85-1.7-.68-3.41-1.42-4.88-2.06a1,1,0,0,1-.49-1.41c.3-.77.6-1.53.82-2.3a40,40,0,0,0,1.18-6.14c.12-1,.21-2.09.29-3.32.06-1,.1-2.17.12-3.41,0-.94,0-1.91,0-2.84,0-1.43,0-2.9.06-4.35a11.23,11.23,0,0,1,.3-2.07l0-.07a16.41,16.41,0,0,1,1.84-4.8,17.22,17.22,0,0,1,2.23-3.08,17.72,17.72,0,0,1,3.58-3,17.41,17.41,0,0,1,4.83-2.1,15,15,0,0,1,3.73-.53h0a.43.43,0,0,0,.21-.06l0,0h.7l0,0a1,1,0,0,0,.2.06c.3,0,.61.07.91.09.59.06,1.21.11,1.8.21a16,16,0,0,1,5.35,2,17.13,17.13,0,0,1,4.61,3.88A17.92,17.92,0,0,1,318.38,42a17,17,0,0,1,1.4,6.75c0,.47,0,.95,0,1.42s0,1.21,0,1.81v.35c0,1.23,0,2.51.06,3.76,0,1.09.1,2.16.17,3.16s.13,1.73.24,2.58.32,2,.53,3.05a22.44,22.44,0,0,0,1.4,4.76,1,1,0,0,1-.35,1.27c-.64.32-1.27.61-1.8.85A57.27,57.27,0,0,1,314.16,74c-.18,0-.36.12-.54.18l-.24.08-.07,0-.12.28.1.08c.12.08.24.18.35.27a4.43,4.43,0,0,0,.84.57c.7.34,1.42.66,2.13,1l.89.39.89.4c.62.29,1.27.58,1.92.84a9.3,9.3,0,0,1,3.84,2.73A8.38,8.38,0,0,1,326,86c0,.43,0,.88,0,1.31,0,.2,0,.41,0,.62L325.91,90l-.06,2.15,0,.92,0,1.14,0,1.07,0,1.14,0,1.1c0,.31,0,.62,0,.93s0,.76,0,1.13,0,.68,0,1-.06,2.07-.06,2.07l-.06,2.12c0,.21,0,.43,0,.64,0,.48,0,1,0,1.45v2.22h5.7a1,1,0,0,1,1.08.68.35.35,0,0,0,.07.09v.55l-.72.72Zm14.21-22.5a1.51,1.51,0,0,0-1.08.47,1.4,1.4,0,0,0-.39,1c0,.66.07,1.33.11,2l.06,1c0,.51.06,1,.08,1.53l.09,1.63.12,2.16c0,.59.07,1.17.1,1.76l.08,1.37c0,.3,0,.61.05.91l.12,2.24c0,.7.06,1.4.09,2.08l0,.68a1.58,1.58,0,0,0,1.64,1.61h0c4.12,0,8.2,0,11.3,0h16.38a1.42,1.42,0,0,0,1.18-.62,1.78,1.78,0,0,0,.29-1.06c0-.06,0-.13,0-.19.06-.76.1-1.52.13-2.27,0-.31,0-.63.05-1l.06-1,.06-1c0-.53.06-1,.08-1.57s.06-1.12.1-1.68c0-.32,0-.64,0-1l.06-1,0-.45c.06-.92.11-1.88.16-2.82,0-.26,0-.53,0-.78s0-.59,0-.88c0-.5.06-.94.11-1.34a1.66,1.66,0,0,0-.38-1.3,1.62,1.62,0,0,0-1.22-.53h0l-7.25,0H287.66Zm31.66-1.47.13.1A3.44,3.44,0,0,1,320.72,89a3.93,3.93,0,0,1,.13,1.73c-.06.51-.08,1-.1,1.54l0,.64c0,.44-.05.88-.07,1.33,0,.63-.07,1.25-.11,1.88,0,.33,0,.66-.05,1l-.06,1,0,.64c-.05.85-.09,1.73-.14,2.6l0,1,0,.71c0,.39,0,.78-.06,1.12s0,.48,0,.72c0,.68-.08,1.37-.13,2,0,.38-.09.76-.13,1.13,0,.18-.05.35-.07.53s0,.09,0,.14v.07l0,.18h3.6l0-.15,0-.21c0-.16,0-.31.05-.47,0-.56,0-1.14.05-1.69v-.31l0-1.09,0-1.27,0-.95,0-.88,0-1.26,0-1,0-1.09c0-.3,0-.61,0-.92l0-1.11,0-1.06,0-.85,0-1.19v-.39c0-.64,0-1.31.05-2,0-.83,0-1.68,0-2.49,0-.36,0-.71,0-1.06v-.07a9,9,0,0,0-.07-2.71,6.32,6.32,0,0,0-.8-2.08l-.12-.2ZM282.1,82.81a6,6,0,0,0-.92,3c0,.45,0,.91,0,1.35,0,.2,0,.4,0,.61l.06,2,0,1.16c0,.33,0,.66,0,1s0,.74,0,1.1l0,1c0,.42.06,2.12.06,2.12l.12,4.19.06,2.12c0,.22,0,.43,0,.65,0,.49,0,1,0,1.5l0,1.58c0,.63,0,1.27,0,1.91a5.27,5.27,0,0,0,0,.56,2.45,2.45,0,0,0,0,.27V109h3.51l0-.18c0-.14-.05-.27-.07-.39a4.38,4.38,0,0,1-.12-.77c-.06-.74-.1-1.5-.13-2.23l-.06-1c0-.3,0-.6-.05-.9l-.06-1.09c0-.52-.05-1-.08-1.55s-.06-1.23-.1-1.84l-.06-.93c0-.3,0-.62-.05-.92-.07-1.26-.13-2.37-.18-3.39l0-.71c0-.29,0-.59,0-.89s0-.39,0-.59-.05-.49-.06-.73V90.8a6.93,6.93,0,0,1,0-1.29,3.38,3.38,0,0,1,1.3-2.21.33.33,0,0,0,.05-.55l-1.44-1.81c-.43-.54-.86-1.09-1.3-1.63L282.5,83l-.15-.16-.14-.16Zm18.53,3.72,16,0a1.17,1.17,0,0,0,1-.52c.63-.81,1.28-1.63,1.92-2.42l.29-.37.83-1,.65-.81a.42.42,0,0,0,.12-.35.37.37,0,0,0-.23-.26l-.51-.28c-.26-.15-.52-.3-.8-.43l-3-1.35-2.12-1a.83.83,0,0,0-.27-.07.45.45,0,0,0-.39.3l-1.26,2.54-.53,1a3.5,3.5,0,0,1-5.09,1.34c-.51-.34-1-.7-1.51-1.1a.52.52,0,0,0-.32-.14A.43.43,0,0,0,305,82c-.13.21-.27.42-.41.62a1.64,1.64,0,0,0-.14.22,2.29,2.29,0,0,1-3.82,0l-.53-.78-.33-.49-.14.1-.49.38-1.06.79a3.5,3.5,0,0,1-2.11.74,3.69,3.69,0,0,1-.87-.1,3.46,3.46,0,0,1-2.36-1.9l-1.13-2.26L291,78.13l-.13-.23-.06-.12-.08-.12L290,78l-1.29.58-.93.41c-.65.28-1.31.56-2,.86-.39.19-.78.39-1.15.59s-.47.25-.71.36a.41.41,0,0,0-.23.26.42.42,0,0,0,.13.37c.27.35.55.69.83,1,1,1.23,2,2.51,3,3.77a.75.75,0,0,0,.66.32Zm-3.36-15.89v.92c0,.83,0,1.7,0,2.55a1.27,1.27,0,0,0,.26.76l.64.88c.91,1.27,1.86,2.58,2.78,3.88.33.47.64.94,1,1.44l.46.69.13.18.13-.17.08-.1a.88.88,0,0,0,.12-.17l.51-.75c.34-.51.69-1,1.05-1.54.94-1.33,1.93-2.7,2.93-4.06a1.88,1.88,0,0,0,.42-1.26c0-.77,0-1.56,0-2.32V70.05l-.21.08a14.14,14.14,0,0,1-5,1,14.36,14.36,0,0,1-5-1l-.21-.08Zm-2.49,4.12a.37.37,0,0,0-.26.11l-.17.15-.18.16-.37.31c-.33.29-.68.58-1,.88a.49.49,0,0,0-.1.5c.63,1.29,1.25,2.56,1.91,3.82a1.45,1.45,0,0,0,1.31.83,1.52,1.52,0,0,0,.9-.3l1.14-.86.53-.41.12-.09-.31-.44-.39-.55-.7-1c-.69-1-1.41-2-2.11-3A.38.38,0,0,0,294.78,74.76Zm15.21.15c-.19.26-.38.53-.58.79-.42.59-.87,1.2-1.3,1.81l-.68.94c-.24.35-.5.71-.75,1.06a.43.43,0,0,0-.11.33.47.47,0,0,0,.22.29c.49.34,1,.72,1.4,1.05a1.55,1.55,0,0,0,.94.34,1.5,1.5,0,0,0,1.34-.89l1-2.09.66-1.32c.3-.59.26-.68-.19-1.08s-.75-.64-1.14-1l-.52-.44-.13-.11Zm0-2.8a1.08,1.08,0,0,1,.78.35.7.7,0,0,0,.5.23h0a.66.66,0,0,0,.23,0l1-.3c.41-.12.83-.24,1.24-.38,1.17-.4,2.37-.84,3.67-1.34.55-.21,1.1-.45,1.63-.67l.72-.32.13,0,0-.13v-.07l0-.11a28.26,28.26,0,0,1-1.25-5c-.24-1.5-.45-3.17-.66-5.24-.1-1-.16-2.08-.18-3.49s0-2.54,0-3.78,0-2.72,0-4.08a11.84,11.84,0,0,0-.25-2,15.22,15.22,0,0,0-1.53-4.16,15.78,15.78,0,0,0-3.45-4.28,15.3,15.3,0,0,0-4-2.52,14.25,14.25,0,0,0-4.75-1.16c-.44,0-.86,0-1.26,0a13.78,13.78,0,0,0-2.74.26,15.78,15.78,0,0,0-4.7,1.73,15.51,15.51,0,0,0-4.4,3.79,14.91,14.91,0,0,0-2.87,5.87,12.37,12.37,0,0,0-.39,2.45c-.05.92,0,1.84,0,2.74,0,.36,0,.74,0,1.1v.17h.17l.53,0c.34,0,.66,0,1,0h.17a2.9,2.9,0,0,1,1.78.71.52.52,0,0,0,.31.13.44.44,0,0,0,.31-.15A9.85,9.85,0,0,0,293,50.65a.89.89,0,0,1,.74-.4h.14a1,1,0,0,1,.83.58,1.09,1.09,0,0,1-.12,1.08,8.83,8.83,0,0,1-2.49,2.59,1.6,1.6,0,0,1-.9.29,1.5,1.5,0,0,1-1.16-.58,1.55,1.55,0,0,0-1.23-.62,1.62,1.62,0,0,0-.3,0,1.26,1.26,0,0,0-1.07,1.05,6.41,6.41,0,0,0,0,1.86,1.4,1.4,0,0,0,1.31,1.27l.4,0h.31a2.37,2.37,0,0,1,1.84,1.65,20.12,20.12,0,0,0,.55,2.05,10.65,10.65,0,0,0,2.29,3.8,11.56,11.56,0,0,0,4.14,2.88,11.09,11.09,0,0,0,3.35.81l.66,0c.46,0,.92,0,1.37-.06h.2a9.89,9.89,0,0,0,3.58-1A11.28,11.28,0,0,0,311,65.32a11.46,11.46,0,0,0,1.71-2.41,10.18,10.18,0,0,0,1.18-5A3.79,3.79,0,0,0,312,54.68a11.38,11.38,0,0,0-2.85-1.29l-3.65-1.14-1.82-.56a29.94,29.94,0,0,1-5-2,35.22,35.22,0,0,1-3.14-1.88A14.33,14.33,0,0,1,293,45.71a1,1,0,0,1,0-1.31,1.05,1.05,0,0,1,.79-.36.57.57,0,0,1,.36.1,9.27,9.27,0,0,1,1.15.92l.12.1a18.75,18.75,0,0,0,3.74,2.51,29.66,29.66,0,0,0,5,2c1.2.37,2.49.78,3.79,1.16a20,20,0,0,1,5,2,5.86,5.86,0,0,1,2.68,3.24,8,8,0,0,1,.2,3.59A12.3,12.3,0,0,1,314.42,64a13.51,13.51,0,0,1-4.35,4.82.56.56,0,0,0-.27.51c0,.55,0,1.1,0,1.64v.75c0,.07,0,.14,0,.2s0,.06,0,.09v.16H310ZM287.3,59.55c-.28,0-.29.27-.3.38,0,.51-.06,1-.12,1.43l0,.24c-.11.79-.22,1.61-.38,2.41-.21,1.07-.46,2.21-.81,3.71-.1.39-.22.77-.35,1.17-.05.18-.11.37-.17.56l0,.14.13.06.67.28,1.45.61a53.52,53.52,0,0,0,6.23,2.12h.12a.78.78,0,0,0,.4-.12l.11-.09a1.21,1.21,0,0,1,.74-.34h.12l.18,0v-.82c0-.74,0-1.43,0-2.13,0-.12-.09-.25-.26-.4l-.7-.56c-.43-.34-.87-.7-1.28-1.08a8.65,8.65,0,0,1-.9-1l-.23-.28a10.48,10.48,0,0,1-1.75-3c-.24-.61-.43-1.27-.61-1.9-.07-.26-.15-.53-.23-.79a.44.44,0,0,0-.43-.35,10,10,0,0,1-1.36-.26Z"/><path class="cls-13" d="M302.48,103.6a4.12,4.12,0,0,1-3-1.29,4.21,4.21,0,0,1-1.13-3.13,4.12,4.12,0,0,1,4-3.84h.28a3.94,3.94,0,0,1,2.84,1.21,4.15,4.15,0,0,1-3,7Zm-.07-6.24a2.16,2.16,0,0,0-2,2,2.19,2.19,0,0,0,.61,1.54,2,2,0,0,0,1.5.63,2.13,2.13,0,0,0,2.12-2.11A2.17,2.17,0,0,0,304,98a1.92,1.92,0,0,0-1.38-.59h-.2Z"/></g><g class="cls-12"><path class="cls-13" d="M3.77,100.19l.16-.93A11.08,11.08,0,0,1,7.43,93a9.47,9.47,0,0,1,3-1.91c.78-.29,1.6-.52,2.41-.74A5.81,5.81,0,0,1,14,90.25a7.91,7.91,0,0,1,.83-.06,11.44,11.44,0,0,1,5.4,1.41,10.86,10.86,0,0,1,3,2.41,10.66,10.66,0,0,1,2.46,4.93,12.54,12.54,0,0,1,.22,1.93,4.3,4.3,0,0,1-.12,1.39,3.84,3.84,0,0,1-.65,1.21,6,6,0,0,1-3,2,28.11,28.11,0,0,1-3,.78,20.94,20.94,0,0,1-2.11.23c-.34,0-.69,0-1,.06a.39.39,0,0,0-.14.05h-1.9a.39.39,0,0,0-.14-.05c-.56,0-1.12-.06-1.68-.12a18.1,18.1,0,0,1-2.09-.28,12.53,12.53,0,0,1-4-1.42,4.34,4.34,0,0,1-1.55-1.4,13.92,13.92,0,0,1-.63-1.35Zm11.05,4v.1c.78,0,1.56-.07,2.34-.16s1.7-.21,2.53-.38a8,8,0,0,0,3.15-1.24,1.63,1.63,0,0,0,.83-1.55c0-.33-.07-.67-.11-1a8.14,8.14,0,0,0-.74-2.46,8.75,8.75,0,0,0-2.74-3.32,8.65,8.65,0,0,0-4.61-1.72,8.46,8.46,0,0,0-3.46.45A8.8,8.8,0,0,0,8.1,95.59a8.41,8.41,0,0,0-1.72,3.16,17.35,17.35,0,0,0-.38,2A1.5,1.5,0,0,0,6.29,102a3.15,3.15,0,0,0,1.24.93,17.35,17.35,0,0,0,2.34.78,24,24,0,0,0,2.92.46A19.62,19.62,0,0,0,14.82,104.21Z"/><path class="cls-13" d="M38.07,31.49l1,.22a5.83,5.83,0,0,1,2.56,1.38,6.08,6.08,0,0,1,1.47,7,6,6,0,0,1-4.39,3.52,6.23,6.23,0,0,1-5.51-1.66,6.17,6.17,0,0,1-1.17-7,5.87,5.87,0,0,1,2.52-2.65,5.5,5.5,0,0,1,2.33-.71s0,0,.08-.06Zm-.58,2.28a3.81,3.81,0,0,0-3.86,3.84,3.86,3.86,0,0,0,3.68,3.83,3.84,3.84,0,1,0,.18-7.67Z"/><path class="cls-13" d="M60.16,92.41A9,9,0,0,0,55.25,94a8.73,8.73,0,0,0-3.73,5.45,10.06,10.06,0,0,0-.18,2,1.22,1.22,0,0,0,.54.94,7.78,7.78,0,0,0,3.43,1.44c.71.15,1.42.29,2.13.37a1.48,1.48,0,0,1,1,.39,1.08,1.08,0,0,1,.22,1.17.93.93,0,0,1-.89.67,8.35,8.35,0,0,1-1.5-.11c-.95-.19-1.9-.39-2.82-.66a8.12,8.12,0,0,1-2.85-1.42,3.79,3.79,0,0,1-1.53-3.44,11.83,11.83,0,0,1,.81-3.6,11.59,11.59,0,0,1,1.67-2.84A10.83,10.83,0,0,1,54,92.07a10.44,10.44,0,0,1,4.12-1.66c.48-.08,1-.12,1.46-.16A10.14,10.14,0,0,1,64,90.9a10.62,10.62,0,0,1,3.06,1.72,11,11,0,0,1,4,6.45,11.06,11.06,0,0,1,.21,2.37,3.24,3.24,0,0,1-.88,2.15,7.27,7.27,0,0,1-3.69,2.08c-1,.26-2,.46-3,.64a2.35,2.35,0,0,1-1.34,0,1.07,1.07,0,0,1-.69-1.23,1,1,0,0,1,.79-.87c.61-.11,1.22-.17,1.82-.28a9.59,9.59,0,0,0,4-1.48,1.69,1.69,0,0,0,.72-1.73,11.52,11.52,0,0,0-.56-2.54,8.84,8.84,0,0,0-1.59-2.67,8.58,8.58,0,0,0-2.17-1.82,8.35,8.35,0,0,0-2.77-1.07C61.32,92.53,60.74,92.49,60.16,92.41Z"/><path class="cls-13" d="M37.51,45.3a12.07,12.07,0,0,1,4.47,1,11.19,11.19,0,0,1,3,2,11,11,0,0,1,2.62,3.62,9.46,9.46,0,0,1,.83,2.9c0,.58.09,1.17.11,1.75a3.17,3.17,0,0,1-.94,2.26,7.51,7.51,0,0,1-3.65,2c-.88.24-1.79.41-2.7.59a7.61,7.61,0,0,1-1.17.12,1.13,1.13,0,0,1-1.15-1,1.14,1.14,0,0,1,.76-1.21,8,8,0,0,1,1-.14,12.66,12.66,0,0,0,3.87-1,6.7,6.7,0,0,0,1.16-.69,1.57,1.57,0,0,0,.61-1.57A18,18,0,0,0,46,54.12a8,8,0,0,0-1.65-3.22,8.67,8.67,0,0,0-3.29-2.53,8,8,0,0,0-2.45-.69c-.36,0-.71-.1-1.07-.1a10.39,10.39,0,0,0-1.36.11,7.76,7.76,0,0,0-2.74.9,15.25,15.25,0,0,0-1.78,1.23,8.14,8.14,0,0,0-2.29,3.12,7.45,7.45,0,0,0-.66,2.54,4.6,4.6,0,0,0,0,1.17,1.92,1.92,0,0,0,1.05,1.2A9.36,9.36,0,0,0,33,59c.74.14,1.49.2,2.22.34a1.09,1.09,0,0,1,.85,1.25,1.05,1.05,0,0,1-1,1,13.16,13.16,0,0,1-1.65-.16,16.55,16.55,0,0,1-3.17-.8,7.48,7.48,0,0,1-2.79-1.69,3.43,3.43,0,0,1-1-2.12,9.2,9.2,0,0,1,.17-2.34,9.91,9.91,0,0,1,1.06-3.13,11.64,11.64,0,0,1,1.5-2.17A11,11,0,0,1,33,46.32a9.38,9.38,0,0,1,2.69-.8Z"/><path class="cls-13" d="M37.52,80.22l-.79.62c-.79.64-1.58,1.28-2.36,1.93l-2.29,1.9-2.54,2.06c-.42.33-.81.7-1.25,1a1,1,0,0,1-1.09.05,1.08,1.08,0,0,1-.6-1,1.2,1.2,0,0,1,.55-1.07c.79-.67,1.59-1.32,2.4-2l2.53-2.06c.66-.53,1.31-1.08,2-1.62s1.29-1.05,1.94-1.57a.92.92,0,0,0,.42-.81c0-3.47,0-6.94,0-10.41a1.12,1.12,0,0,1,1.1-1.16,1.15,1.15,0,0,1,1.14,1.15c0,3.54,0,7.08,0,10.63a.39.39,0,0,0,.15.36c.7.55,1.39,1.12,2.08,1.69l1.92,1.59,2.32,1.89L47,85.09c.39.32.79.64,1.15,1a1.15,1.15,0,0,1,.06,1.35,1.05,1.05,0,0,1-1.18.43,3.25,3.25,0,0,1-.87-.54c-.79-.62-1.57-1.26-2.35-1.9s-1.52-1.28-2.29-1.9L39,81.44C38.5,81.05,38,80.64,37.52,80.22Z"/><path class="cls-13" d="M14.83,88.55a6.07,6.07,0,0,1-6.1-6.28,5.88,5.88,0,0,1,1.87-4.21,6.1,6.1,0,0,1,8.3-.16,5.93,5.93,0,0,1,2,4.8A6.06,6.06,0,0,1,14.83,88.55Zm3.84-6.09a3.84,3.84,0,1,0-3.8,3.86A3.85,3.85,0,0,0,18.67,82.46Z"/><path class="cls-13" d="M54.06,82.91a6.25,6.25,0,0,1,1.79-4.8,5.86,5.86,0,0,1,4.34-1.76,6.11,6.11,0,0,1,6.08,6.14,6.09,6.09,0,0,1-6.4,6.06C56.79,88.44,54,85.87,54.06,82.91Zm10-.46a3.86,3.86,0,0,0-7.71,0,3.78,3.78,0,0,0,3.84,3.85A3.85,3.85,0,0,0,64,82.45Z"/></g><text class="cls-1" transform="translate(95 292.1)"><tspan class="cls-21">C</tspan><tspan class="cls-10" x="10.87" y="0">O</tspan><tspan class="cls-16" x="24.47" y="0">MM</tspan><tspan class="cls-17" x="54.03" y="0">E</tspan><tspan class="cls-22" x="63.82" y="0">R</tspan><tspan class="cls-8" x="73.75" y="0">C</tspan><tspan x="84.94" y="0">E </tspan><tspan class="cls-6" x="0" y="16">T</tspan><tspan class="cls-7" x="9.1" y="16">E</tspan><tspan class="cls-8" x="18.68" y="16">C</tspan><tspan x="29.87" y="16">H</tspan></text><text class="cls-1" transform="translate(360 292.1)"><tspan class="cls-18">I</tspan><tspan class="cls-2" x="4.54" y="0">N</tspan><tspan class="cls-23" x="17.07" y="0">D</tspan><tspan class="cls-24" x="29.26" y="0">U</tspan><tspan class="cls-25" x="40.58" y="0">S</tspan><tspan class="cls-6" x="49.97" y="0">T</tspan><tspan class="cls-26" x="59.07" y="0">R</tspan><tspan class="cls-27" x="69.17" y="0">I</tspan><tspan class="cls-4" x="73.78" y="0">A</tspan><tspan x="85.2" y="0">L </tspan><tspan class="cls-6" x="0" y="16">T</tspan><tspan class="cls-7" x="9.1" y="16">E</tspan><tspan class="cls-8" x="18.68" y="16">C</tspan><tspan x="29.87" y="16">H</tspan></text><g class="cls-12"><path class="cls-13" d="M49,335.51a.23.23,0,0,0-.13-.07,2.75,2.75,0,0,1-.77-5.14.52.52,0,0,0,.31-.5c0-1.42,0-2.86,0-4.25V324a1.21,1.21,0,0,0,0-.19v-.22H38.48v.17a.31.31,0,0,0,0,.1v1.56c0,1.46,0,3,0,4.45a.4.4,0,0,0,.29.4,2.73,2.73,0,0,1,1.46,2.93,2.66,2.66,0,0,1-2,2.18,1.57,1.57,0,0,0-.23.09l-.06,0h-.79a.47.47,0,0,0-.14-.08,2.75,2.75,0,0,1-.75-5.13.55.55,0,0,0,.31-.53c0-1.39,0-2.79,0-4.15V324a1.34,1.34,0,0,0,0-.2v-.23H26.59v6.17a.52.52,0,0,0,.34.54,2.56,2.56,0,0,1,1.45,2.14,2.71,2.71,0,0,1-2.23,3,.3.3,0,0,0-.14.08h-.78a.3.3,0,0,0-.11-.07l-.26-.08a4.53,4.53,0,0,1-.44-.15,2.78,2.78,0,0,1-1.52-2.69,2.7,2.7,0,0,1,1.44-2.22.52.52,0,0,0,.31-.54v-5.71a1.48,1.48,0,0,0,0-.21v-.26H13.11a1.22,1.22,0,0,1-.89-.31,1.18,1.18,0,0,1-.3-.86c0-2.72,0-5.49,0-8.17v-3.37l-.11,0-.06,0H5.6a.46.46,0,0,0-.35.24,2.78,2.78,0,0,1-2.2,1.54H2.73a2.68,2.68,0,0,1-2.61-2,1.86,1.86,0,0,0-.1-.2l0,0v-1.06H0a.53.53,0,0,0,.08-.15,2.73,2.73,0,0,1,2.6-2.07h.14a2.7,2.7,0,0,1,2.38,1.48.54.54,0,0,0,.53.33h6.18V299H5.65a.46.46,0,0,0-.43.29,2.69,2.69,0,0,1-2.17,1.51H2.74a2.7,2.7,0,0,1-2.63-2,1.11,1.11,0,0,0-.09-.19l0,0v-1.07l0,0a.54.54,0,0,0,.1-.2,2.44,2.44,0,0,1,1.13-1.54,2.86,2.86,0,0,1,1.52-.44,2.7,2.7,0,0,1,2.44,1.51.5.5,0,0,0,.5.31H11.9v-9.89l-.11,0H5.62a.54.54,0,0,0-.36.21l-.23.34a3.14,3.14,0,0,1-.41.52,2.56,2.56,0,0,1-1.8.72H2.56a2.59,2.59,0,0,1-2.18-1.36A5.14,5.14,0,0,1,.11,287L0,286.69v-1.06a.35.35,0,0,0,.07-.12A2.74,2.74,0,0,1,1,284a2.85,2.85,0,0,1,1.78-.63,2.7,2.7,0,0,1,2.43,1.5.53.53,0,0,0,.52.32h6.21v-3.35c0-2.72,0-5.54,0-8.31a1.06,1.06,0,0,1,1.11-1.1h11.6l0-.1a.17.17,0,0,0,0-.05.36.36,0,0,0,0-.11v-6.06a.44.44,0,0,0-.24-.35,2.75,2.75,0,0,1,.61-5.18.42.42,0,0,0,.12-.07h.86a.32.32,0,0,0,.13.07,2.48,2.48,0,0,1,1.65,1,2.74,2.74,0,0,1-.92,4.11.52.52,0,0,0-.32.52V272c0,.07,0,.14,0,.21a.28.28,0,0,0,0,.09v.14h9.86v-.18a.45.45,0,0,0,0-.11v-.65c0-1.75,0-3.56,0-5.33a.53.53,0,0,0-.24-.39,2.77,2.77,0,0,1,.62-5.17.52.52,0,0,0,.15-.07h.87a.16.16,0,0,0,.08.05,2.3,2.3,0,0,0,.34.12,3,3,0,0,1,.63.27,2.55,2.55,0,0,1,1.29,2.11,2.69,2.69,0,0,1-1.5,2.67.48.48,0,0,0-.29.48V272c0,.07,0,.13,0,.19a.25.25,0,0,1,0,.08v.14h9.86v-.2a.49.49,0,0,0,0-.12v-1.48c0-1.46,0-3,0-4.45a.44.44,0,0,0-.29-.43,2.76,2.76,0,0,1-1.46-2.83,2.67,2.67,0,0,1,1.85-2.24l.3-.11.1,0h.92a.52.52,0,0,0,.15.07,2.77,2.77,0,0,1,.61,5.18.48.48,0,0,0-.24.36v6.06s0,.06,0,.08v0l0,.11h2.57a.92.92,0,0,1,.92.52,1,1,0,0,1-.1,1.07,1,1,0,0,1-.72.35H13.89v47.23H61.11V274.38h-3.7a.91.91,0,0,1-.92-.52,1,1,0,0,1,.88-1.41H62a.94.94,0,0,1,1,1c0,2.79,0,5.62,0,8.36v3.39h6.23a.51.51,0,0,0,.51-.3,2.76,2.76,0,0,1,2.46-1.52,2.75,2.75,0,0,1,2.71,2.39.26.26,0,0,0,.07.14v.47a.26.26,0,0,0-.07.14,2.55,2.55,0,0,1-1,1.81,2.61,2.61,0,0,1-1.66.57,2.73,2.73,0,0,1-2.46-1.5.54.54,0,0,0-.53-.32H63V297l.13,0h6.15a.54.54,0,0,0,.43-.29,2.43,2.43,0,0,1,.79-.95,2.75,2.75,0,0,1,4.28,1.35c.05.14.09.27.13.4l0,.17v.53a.26.26,0,0,0-.07.14,2.7,2.7,0,0,1-2.34,2.33l-.4,0a2.69,2.69,0,0,1-2.41-1.47.56.56,0,0,0-.55-.35H63v9.92H69.3a.49.49,0,0,0,.47-.33,2.6,2.6,0,0,1,2.42-1.49,3.2,3.2,0,0,1,.52,0,2.74,2.74,0,0,1,2.21,2.14l.06.22,0,.08v.53a.63.63,0,0,0-.07.12c0,.1-.05.2-.08.3a2.12,2.12,0,0,1-.17.52,2.6,2.6,0,0,1-2.25,1.54h-.25a2.64,2.64,0,0,1-2.41-1.48.54.54,0,0,0-.52-.32H63v11.78a.85.85,0,0,1-.25.63,1.17,1.17,0,0,1-.94.33H50.33v.13a.22.22,0,0,0,0,.08.49.49,0,0,0,0,.12v.63c0,1.75,0,3.55,0,5.33a.51.51,0,0,0,.23.37,2.82,2.82,0,0,0,.31.21,2.31,2.31,0,0,1,.45.34,2.75,2.75,0,0,1,.75,2.37,2.72,2.72,0,0,1-2,2.22l-.25.1-.07,0ZM37.47,331.9a.85.85,0,0,0-.82.85.75.75,0,0,0,.24.57.83.83,0,0,0,.61.22.78.78,0,0,0,.8-.81.85.85,0,0,0-.25-.59.78.78,0,0,0-.58-.24Zm-11.86,0a.84.84,0,0,0-.81.83.83.83,0,0,0,.84.81.73.73,0,0,0,.8-.79.86.86,0,0,0-.23-.6.83.83,0,0,0-.59-.25Zm23.72,0a.84.84,0,0,0-.83.84.83.83,0,0,0,.22.57.85.85,0,0,0,.61.23h0a.78.78,0,0,0,.81-.83.83.83,0,0,0-.82-.81ZM2.75,309a.84.84,0,0,0,0,1.68h0a.84.84,0,0,0,0-1.68Zm69.46,0a.85.85,0,0,0-.82.83.82.82,0,0,0,.81.85h0a.82.82,0,0,0,.82-.83.85.85,0,0,0-.82-.85ZM2.74,297.16a.9.9,0,0,0-.83.85.91.91,0,0,0,.84.84h0A.93.93,0,0,0,3.6,298a1,1,0,0,0-.84-.81Zm69.44,0a.85.85,0,0,0-.79.84.86.86,0,0,0,.25.61.76.76,0,0,0,.56.24h0A.84.84,0,0,0,73,298a.86.86,0,0,0-.85-.84ZM2.73,285.31a.9.9,0,0,0-.82.82.79.79,0,0,0,.25.59.82.82,0,0,0,.59.28h0a.93.93,0,0,0,.84-.87.81.81,0,0,0-.25-.54.91.91,0,0,0-.62-.28Zm69.48,0a.85.85,0,0,0,0,1.69h0a.85.85,0,0,0,0-1.69ZM49.37,262.43h0a.83.83,0,0,0-.82.83.84.84,0,0,0,.25.6.81.81,0,0,0,.6.26.86.86,0,0,0,.8-.81.93.93,0,0,0-.26-.66A.74.74,0,0,0,49.37,262.43Zm-23.76,0a.78.78,0,0,0-.54.25.9.9,0,0,0-.27.62.86.86,0,0,0,.84.83h0a.86.86,0,0,0,.79-.83.63.63,0,0,0-.13-.51,1,1,0,0,0-.64-.36Zm11.86,0a.81.81,0,0,0-.82.83.88.88,0,0,0,.25.61.84.84,0,0,0,.6.25h0a.87.87,0,0,0,.8-.83.72.72,0,0,0-.16-.55.9.9,0,0,0-.66-.31Z"/><path class="cls-13" d="M58.31,319.94H16.73a1,1,0,0,1-1.13-.76.69.69,0,0,1,0-.22V312a1,1,0,0,1,.87-1h.09a1.07,1.07,0,0,1,.9.65,2.05,2.05,0,0,1,.08.59V318h40V278H17.51v29.38a1.13,1.13,0,0,1-.48,1.07.87.87,0,0,1-.48.15.93.93,0,0,1-.51-.16.9.9,0,0,1-.47-.85V284.52c0-2.42,0-4.93,0-7.39a1.06,1.06,0,0,1,.31-.75,1,1,0,0,1,.75-.31h41.7a1,1,0,0,1,1.06,1.05c0,13.53,0,27.58,0,41.75a1,1,0,0,1-1,1.05Z"/><path class="cls-13" d="M37.52,307.22a.62.62,0,0,1-.6-.43,2.28,2.28,0,0,1,0-.54v-.17c0-.68-.05-.74-.69-.87h0a3.77,3.77,0,0,1-2.84-2.05,2.58,2.58,0,0,1-.33-1.24.89.89,0,0,1,.83-.83h.09a1.23,1.23,0,0,1,1.2.93,2.24,2.24,0,0,0,2.2,1.64h.21a2.79,2.79,0,0,0,1.17-.18,1.87,1.87,0,0,0,1.2-1.52,2.15,2.15,0,0,0-1.38-2.47c-.4-.2-.83-.36-1.24-.52s-.56-.2-.83-.32a5.43,5.43,0,0,1-2.19-1.45,3.53,3.53,0,0,1-.79-1.8,4,4,0,0,1,.34-2.44A3.57,3.57,0,0,1,36.4,291h.05c.6-.12.65-.18.65-.83v-.79a.57.57,0,0,1,.5-.6h.11a.6.6,0,0,1,.62.45,3.06,3.06,0,0,1,.06.45v1.16l.1,0,.45.16a7.79,7.79,0,0,1,.89.33,3.3,3.3,0,0,1,1.52,1.43,3.82,3.82,0,0,0,.47.61,1.08,1.08,0,0,1,.26,1.27,1.06,1.06,0,0,1-1,.57H41a1,1,0,0,1-.92-.33,1.68,1.68,0,0,1-.27-.51,2.49,2.49,0,0,0-1-1.55,2.14,2.14,0,0,0-1.09-.31,2.43,2.43,0,0,0-1.16.31,1.81,1.81,0,0,0-1,1.71,1.92,1.92,0,0,0,.42,1.42,3.21,3.21,0,0,0,.83.66c.51.24,1,.46,1.55.67l.76.32a5.17,5.17,0,0,1,2.33,1.7,3.5,3.5,0,0,1,.6,1.73A3.8,3.8,0,0,1,41.2,304a3.4,3.4,0,0,1-1.54,1,7.79,7.79,0,0,1-1,.24l-.15,0a.39.39,0,0,0-.36.43c0,.28,0,.56,0,.86a.69.69,0,0,1-.54.66Z"/><path class="cls-13" d="M21.75,289.42c-.27,0-.53,0-.73,0s-.27-.15-.28-.39,0-.63,0-.94V288a.41.41,0,0,1,.41-.4h1c.37,0,.43.37.44.53s0,.37,0,.55v.2c0,.43-.24.51-.41.53Z"/><path class="cls-13" d="M53.58,295.74h-.72a.43.43,0,0,1-.48-.49c0-.24,0-.48,0-.72v-.09a.46.46,0,0,1,.49-.53h.86a.49.49,0,0,1,.48.48c0,.28,0,.58,0,.92a.47.47,0,0,1-.45.43Z"/><path class="cls-13" d="M40.19,283.07a.44.44,0,0,1-.48-.47v-.78a.5.5,0,0,1,.54-.58h.8a.48.48,0,0,1,.49.51c0,.27,0,.55,0,.84a.42.42,0,0,1-.48.48h-.87Z"/><path class="cls-13" d="M53,308.41h-.17a.42.42,0,0,1-.44-.43c0-.29,0-.63,0-1,0-.16.07-.36.28-.38s.49,0,.76,0h.45a.35.35,0,0,1,.32.35,4.58,4.58,0,0,1,0,1.05c0,.17-.09.4-.51.4H53Z"/><path class="cls-13" d="M53.4,289.42a7.24,7.24,0,0,1-.74,0c-.06,0-.26,0-.28-.41s0-.65,0-.92a.42.42,0,0,1,.47-.45h.93c.34,0,.41.32.43.51a4.69,4.69,0,0,1,0,.53v.22c0,.45-.24.53-.43.55Z"/><path class="cls-13" d="M21.62,295.74h-.41a.42.42,0,0,1-.47-.47q0-.36,0-.72v-.12a.46.46,0,0,1,.5-.52h.83a.45.45,0,0,1,.47.36,4.88,4.88,0,0,1,0,1.15c0,.19-.11.32-.43.32h-.46Z"/><path class="cls-13" d="M21.65,308.41h-.44a.43.43,0,0,1-.47-.48,1.6,1.6,0,0,1,0-.31v-.15h0a1,1,0,0,1,.12-.74c.09-.1.27-.15.58-.15h.64c.41,0,.44.27.45.35a5.12,5.12,0,0,1,0,1.17c0,.13-.08.3-.41.31Z"/><path class="cls-13" d="M53.56,283.08h-.72a.42.42,0,0,1-.46-.45,5.23,5.23,0,0,1,0-.56v-.23c0-.41.09-.53.45-.57l.34,0a6.06,6.06,0,0,1,.67.05.44.44,0,0,1,.37.46v.86a.44.44,0,0,1-.48.46Z"/><path class="cls-13" d="M21.63,283.07h-.44a.41.41,0,0,1-.45-.44c0-.19,0-.38,0-.57a1.93,1.93,0,0,0,0-.24c0-.4.07-.5.43-.55a2.6,2.6,0,0,1,.4,0,4.55,4.55,0,0,1,.61.05c.25,0,.38.2.39.5v.78a.45.45,0,0,1-.51.5h-.43Z"/><path class="cls-13" d="M28.14,283.08h-.52c-.4,0-.49-.07-.54-.41a4,4,0,0,1,0-1,.42.42,0,0,1,.39-.4l.51,0a5.11,5.11,0,0,1,.58,0c.2,0,.33.12.33.45,0,.1,0,.21,0,.32v.14a.75.75,0,0,0,0,.15c0,.11,0,.22,0,.33a.4.4,0,0,1-.39.39Z"/><path class="cls-13" d="M21.62,302.05h-.46a.37.37,0,0,1-.42-.42c0-.27,0-.55,0-.92a.4.4,0,0,1,.45-.44h.93c.33,0,.43.27.44.5a6.38,6.38,0,0,1,0,.87.43.43,0,0,1-.46.42h-.49Z"/><path class="cls-13" d="M53.27,302.05h-.49a.38.38,0,0,1-.4-.39c0-.3,0-.62,0-1a.4.4,0,0,1,.39-.39h1c.26,0,.41.17.44.49a6.26,6.26,0,0,1,0,.87.43.43,0,0,1-.45.43h-.49Z"/><path class="cls-13" d="M27.57,314.72c-.36,0-.45-.07-.48-.35a4.23,4.23,0,0,1,0-1.17.32.32,0,0,1,.36-.26h1a.39.39,0,0,1,.45.44c0,.34,0,.63,0,.9a.39.39,0,0,1-.43.44h-.87Z"/><path class="cls-13" d="M46.94,283.08h-.42c-.31,0-.45-.14-.45-.44v-.56a2.08,2.08,0,0,0,0-.25.55.55,0,0,1,.08-.41.7.7,0,0,1,.51-.16h.23a3.55,3.55,0,0,1,.67.06c.21,0,.29.14.29.41v.92c0,.3-.15.44-.46.44Z"/><path class="cls-13" d="M53,314.72h-.2a.39.39,0,0,1-.4-.4c0-.3,0-.62,0-1a.4.4,0,0,1,.4-.4h1a.43.43,0,0,1,.45.42c0,.33,0,.64,0,.94a.43.43,0,0,1-.46.42H53Z"/><path class="cls-13" d="M34.32,283.08H33.8a.41.41,0,0,1-.4-.39v-.86c0-.43.06-.5.44-.55a2.42,2.42,0,0,1,.39,0,5.14,5.14,0,0,1,.66.05c.2,0,.29.11.29.42v.95a.35.35,0,0,1-.39.4Z"/><path class="cls-13" d="M21.34,314.72h-.19a.4.4,0,0,1-.41-.43c0-.34,0-.64,0-.94a.4.4,0,0,1,.42-.41h1c.33,0,.42.27.44.49a6.28,6.28,0,0,1,0,.87.44.44,0,0,1-.45.43h-.78Z"/><path class="cls-13" d="M41,314.72h-.79a.43.43,0,0,1-.47-.44c0-.29,0-.6,0-.91a.42.42,0,0,1,.46-.43h.92a.41.41,0,0,1,.45.42q0,.43,0,1a.41.41,0,0,1-.37.36Z"/><path class="cls-13" d="M47,314.72h-.56a.33.33,0,0,1-.34-.35v-1.08a.33.33,0,0,1,.33-.34h1.1a.37.37,0,0,1,.35.33v1.11a.33.33,0,0,1-.33.33Z"/><path class="cls-13" d="M34.32,314.72h-.51a.38.38,0,0,1-.4-.39c0-.33,0-.68,0-1a.38.38,0,0,1,.37-.37h1.07a.33.33,0,0,1,.33.34v1c0,.28-.12.4-.39.41Z"/></g><g class="cls-12"><path class="cls-13" d="M324.49,335.29a.33.33,0,0,0-.12-.05,1.89,1.89,0,0,1-1.13-.59l-.28-.27-2.56-2.57a.79.79,0,0,0-.6-.26H303.92a.77.77,0,0,0-.6.26L301,334.1l-.47.47-.05.05s-.08.09-.11.1l-.87.44-.26.13H289l-.13-.05a2.2,2.2,0,0,1-1.75-2.11c0-6.31,0-12.71,0-18.91v-.09a2.09,2.09,0,0,1,.6-1.46,2.39,2.39,0,0,1,1.8-.76h3.81V276.57h-3.9a3.72,3.72,0,0,1-.73-.06,3.48,3.48,0,0,1-2.81-3.38v-1.61a3.15,3.15,0,0,1,.8-2.06,3.51,3.51,0,0,1,2.79-1.27h3.87v-.65c0-.39,0-.79,0-1.18a26.13,26.13,0,0,1,.07-2.65,3.18,3.18,0,0,1,2.07-2.71,4.23,4.23,0,0,1,.57-.2l.25-.08h2.38a.23.23,0,0,0,.12,0,3.53,3.53,0,0,1,2.9,3.46v3.85h.57l1.57-.28a14.49,14.49,0,0,0,5.64-2.34c.79-.54,1.53-1.16,2.25-1.75.39-.32.79-.65,1.19-1a10,10,0,0,1,2.89-1.67c.28-.09.58-.17.86-.24l.38-.1h1.39l.27.08.66.21a4,4,0,0,1,1.62,1,4.49,4.49,0,0,1,1.07,1.67,11.89,11.89,0,0,1,.75,2.93c0,.31.06.61.1.92,0,.15,0,.3.05.45l0,.18h6a7.81,7.81,0,0,1,.94.05,3.34,3.34,0,0,1,2.79,2.24,6.46,6.46,0,0,1,.15,3.16,3.25,3.25,0,0,1-1.77,2.5,3.58,3.58,0,0,1-1.74.42H326.7l0,.16s0,0,0,0a.5.5,0,0,0,0,.12v2.05c0,1.67,0,3.38,0,5.07a.43.43,0,0,0,.42.47.94.94,0,0,1,.72.52,1,1,0,0,1,0,1,.9.9,0,0,1-.85.59h-.22a.8.8,0,0,0-.75.53c-.59,1.22-1.21,2.46-1.81,3.66L323,293a1.3,1.3,0,0,0-.14.58c0,1.4,0,2.82,0,4.19v4a1,1,0,0,1-1,1h0a1,1,0,0,1-1.06-1.11v-8.14a1.07,1.07,0,0,0-.08-.46c-1.1-2.21-2.12-4.27-3.13-6.27a.64.64,0,0,0-.42-.28h-.34a1.12,1.12,0,0,1-.27,0,1,1,0,0,1-.72-1.17.93.93,0,0,1,.76-.86.5.5,0,0,0,.48-.57c0-1.66,0-3.35,0-5v-1.87a1.28,1.28,0,0,0,0-.19v-.28H301.69v35.3h9.1v-2.78c0-2,0-4.08,0-6.11a1.1,1.1,0,0,1,.33-.76,1.06,1.06,0,0,1,.75-.31h4.86a1.5,1.5,0,0,1,.8.25,5.82,5.82,0,0,1,.53.38l.08.05,1,.79,2.39,1.81a.52.52,0,0,0,.3.09.38.38,0,0,0,.23-.07l.83-.61.37-.28.71-.53c.74-.56,1.51-1.14,2.28-1.69a1.12,1.12,0,0,1,.6-.17h4.95a1,1,0,0,1,.73.31,1,1,0,0,1,.32.73c0,2.06,0,4.15,0,6.17v2.73l.72,0,1.09.06a2.23,2.23,0,0,1,1.93,2v4c0,5,0,10.12,0,15.18a2,2,0,0,1-.92,1.69,3.91,3.91,0,0,1-.65.31l-.29.12Zm-12.8-5.87h8.49a2,2,0,0,1,1.43.59l.92.92,2,2a.91.91,0,0,0,.57.24h9.43v-19.1H289.21v19.07h9.43a.75.75,0,0,0,.49-.22l1.37-1.36,1.46-1.46a2.23,2.23,0,0,1,1.58-.68Zm1.25-17.53h17.78v-7.83h-3.35a.66.66,0,0,0-.37.13c-1.75,1.32-3.19,2.4-4.5,3.4a1.17,1.17,0,0,1-.69.2,1,1,0,0,1-.62-.18l-4.11-3.12a1.72,1.72,0,0,0-1.07-.45h-.14a4.33,4.33,0,0,1-.55,0h-2.38Zm-17.49,0h4.07V276.58h-4.07Zm26.38-21.31,2-4h-4Zm-2.65-6.18h5.3v-7.81h-5.3Zm-26.8-14.07h-3a1.41,1.41,0,0,0-1.4,1.21,8.41,8.41,0,0,0-.05,1.37,1.48,1.48,0,0,0,1.6,1.53h39.87a1.4,1.4,0,0,0,1-.51,1.19,1.19,0,0,0,.36-.9,5.72,5.72,0,0,1,0-1.17,1.25,1.25,0,0,0-.34-1,1.64,1.64,0,0,0-1.18-.57c-7.35,0-14.57,0-21.28,0Zm25.33-7.51a4.16,4.16,0,0,0-1.57.38,10.84,10.84,0,0,0-2.55,1.71l-.32.26c-.62.51-1.26,1-1.93,1.53-.34.26-.69.5-1.06.76l-.49.34-.56.38h11.55l0-.24c0-.18-.05-.37-.07-.55,0-.42-.09-.81-.16-1.2a5.49,5.49,0,0,0-.91-2.36,2.22,2.22,0,0,0-1.17-.91A2.92,2.92,0,0,0,317.71,262.82Zm-20.36,0-.41,0a1.42,1.42,0,0,0-1.47,1.15,2.31,2.31,0,0,0,0,.69v3.52h4.11V268c0-.37,0-.75,0-1.12,0-.89,0-1.81,0-2.72a1.27,1.27,0,0,0-1.18-1.25A7.56,7.56,0,0,0,297.35,262.79Z"/><path class="cls-13" d="M273.94,335.29l-.22-.09a2.49,2.49,0,0,1-.52-.24,2.17,2.17,0,0,1-1.12-1.94c0-6.34,0-12.79,0-19v-6.2h-2.82a2.24,2.24,0,0,1-2.14-2.14v-12.9a2.2,2.2,0,0,1,2-2c3.25,0,6.7-.05,11.18-.06h6.41a2.64,2.64,0,0,1,1.31.3,2.12,2.12,0,0,1,1.14,1.62,4.93,4.93,0,0,1,.06.75V305.5a2.29,2.29,0,0,1-2.23,2.3h-2.78V333a2.26,2.26,0,0,1-1.73,2.22l-.15.05Zm.29-2.14H282V307.82h-7.8Zm-5-27.51h17.84V292.82H269.21Z"/><path class="cls-13" d="M314.2,299.05a1,1,0,0,1-.7-.35l-2.09-2.09-5.24-5.25a1.2,1.2,0,0,1-.39-1,1.06,1.06,0,0,1,.5-.77,1.13,1.13,0,0,1,1.37.19l6.06,6.07,1.15,1.15a1.55,1.55,0,0,1,.53.84,1.06,1.06,0,0,1-.23.86.93.93,0,0,1-.68.35h-.28Z"/><path class="cls-13" d="M329.46,299.05h-.23a1,1,0,0,1-1-1,1,1,0,0,1,.29-.75l3.29-3.3,4.23-4.23a1.07,1.07,0,0,1,.76-.31,1.07,1.07,0,0,1,.76,1.84l-7.46,7.47A.89.89,0,0,1,329.46,299.05Z"/><path class="cls-13" d="M315.62,294a1.06,1.06,0,0,1-1-.58l-1.1-1.84c-.81-1.36-1.65-2.77-2.49-4.15a1.33,1.33,0,0,1-.26-1.17,1,1,0,0,1,1-.71h.11c.45,0,.69.34,1,.83l.12.21c1.13,1.91,2.3,3.88,3.47,5.81a1.08,1.08,0,0,1,0,1.06.92.92,0,0,1-.75.54Z"/><path class="cls-13" d="M328,294.21a1.08,1.08,0,0,1-.85-1.67c.48-.81,1-1.63,1.45-2.42l1-1.68.55-.93.72-1.21a1,1,0,0,1,.76-.48,1.23,1.23,0,0,1,1.07.54,1,1,0,0,1,0,1c-.27.5-.57,1-.87,1.49l-.33.54-.38.65c-.59,1-1.2,2-1.81,3-.07.1-.12.21-.18.31a1.55,1.55,0,0,1-.53.69A1.18,1.18,0,0,1,328,294.21Z"/><path class="cls-13" d="M304.48,319.07l-5.2,0a1,1,0,0,1-.7-.3,1.12,1.12,0,0,1-.27-.85,1,1,0,0,1,1-1h10a1.09,1.09,0,0,1,.76.32,1.06,1.06,0,0,1-.72,1.8Z"/><path class="cls-13" d="M328.75,319.08l-2,0a1,1,0,0,1-.7-.31,1.09,1.09,0,0,1-.27-.82,1,1,0,0,1,1-1h3.81a1.12,1.12,0,0,1,.77.32,1,1,0,0,1,.3.71,1,1,0,0,1-1,1.09Q329.71,319.08,328.75,319.08Z"/><path class="cls-13" d="M327.86,324.08h-1a1,1,0,0,1-1.07-.73,1,1,0,0,1,.15-1,1,1,0,0,1,.78-.44h.05l.74,0h3.12a1,1,0,0,1,1,1,1,1,0,0,1-.26.76.86.86,0,0,1-.61.29C329.67,324.06,328.72,324.08,327.86,324.08Z"/><path class="cls-13" d="M293.67,319.06h-.59a1.06,1.06,0,0,1-1-.83,1,1,0,0,1,.59-1.2,3.29,3.29,0,0,1,.74-.11l.37,0,.32,0a3.59,3.59,0,0,1,.74.14.83.83,0,0,1,.53.55,1.08,1.08,0,0,1-.1,1,1,1,0,0,1-.91.49Z"/><path class="cls-13" d="M279.39,297.82a1,1,0,0,1-1.07-1.07,1.05,1.05,0,0,1,1.08-1.07h2.49a1.07,1.07,0,0,1,.76.32,1,1,0,0,1,.3.73,1.06,1.06,0,0,1-1.08,1.08h-2.48Z"/><path class="cls-13" d="M280.49,302.79l-1.4,0a.73.73,0,0,1-.5-.29,1.13,1.13,0,0,1-.27-.83,1,1,0,0,1,.95-.94H282a1,1,0,0,1,1,1,1.07,1.07,0,0,1-.26.81.81.81,0,0,1-.58.3Z"/><path class="cls-13" d="M274.51,297.82h-.09a1.07,1.07,0,0,1-1.06-1.09,1.14,1.14,0,0,1,.29-.78.88.88,0,0,1,.67-.32h.07a1.09,1.09,0,0,1,1.1,1.15,1.06,1.06,0,0,1-.31.75A.92.92,0,0,1,274.51,297.82Z"/><path class="cls-13" d="M274.4,302.82a1,1,0,0,1-.72-.26,1.18,1.18,0,0,1-.34-.85,1,1,0,0,1,.31-.68,1.08,1.08,0,0,1,.72-.34h0a1.22,1.22,0,0,1,.85.42.74.74,0,0,1,.19.61v0a1,1,0,0,1-.26.75,1,1,0,0,1-.77.31Z"/></g><line class="cls-28" y1="0.5" x2="526.1" y2="0.5"/></g></g></svg>