<svg xmlns="http://www.w3.org/2000/svg" viewBox="0 0 48.56 53.55"><defs><style>.cls-1{opacity:0.4;}.cls-2{fill:#fff;}</style></defs><g id="Layer_2" data-name="Layer 2"><g id="Layer_1-2" data-name="Layer 1"><g class="cls-1"><path class="cls-2" d="M19,0s-1.86.28-2.48.41c0,0-4.71-.2-6.15,1.52,0,0-2.79-.93-3.17-.21A18.16,18.16,0,0,1,4.7,4.64S5.39,6.05,2.5,7.7l-.62.52s-.41.38-.17,1.3c0,0,.41,1.14-.69,1.28a5.74,5.74,0,0,0-.31,3.33s.51.41-.14,2a.81.81,0,0,0,0,.93s-.79.79-.51,1.44a7.41,7.41,0,0,0,2.1,3.17s1.1,1,2,2c0,0,1.93,2,3.75,1.17a19.48,19.48,0,0,1,2.34-.24,5.07,5.07,0,0,0,3.37-.83,2,2,0,0,1,2.09.83s.28.92,2.38.79c0,0,1.1.07,1.23.93l.18,1s-.73.07-.38,1.27c0,0-.21,1.48,2.2,4a4.62,4.62,0,0,1,.55,1.9,3.23,3.23,0,0,0,.45,1A2.18,2.18,0,0,1,21.76,38a2.9,2.9,0,0,0-.07,3.37,8.94,8.94,0,0,1,1.47,4.2s0,1.88,2.31,4.74a2.16,2.16,0,0,1,.62,1.82s-.35.52.48.9l.82.37s.31.38,1-.2a9,9,0,0,1,2.38-.62s3-.62,3.71-2A6.52,6.52,0,0,1,35.68,49a8.41,8.41,0,0,0,.59-2.64s-.07-.52,1-1.21c0,0,.9-.27.59-2.33A2.33,2.33,0,0,1,39,40.26s4.26-1.13,2-4.71l.18-1s-1.89-3,.79-7.22a7.89,7.89,0,0,1,1.58-1.21,4.72,4.72,0,0,0,3.33-3.68,3.74,3.74,0,0,1,1.24-2.06s.9-1.44,0-2.34A16.51,16.51,0,0,0,44,19.43a15.39,15.39,0,0,0-4-3,2.54,2.54,0,0,0-1.68-2.34s.93-2.09-1.62-3.26c0,0-2.27-2.65-2.23-4.58l.93,1s1,.48.92-1c0,0,.45-2.58-1.54-1.93,0,0-1.14,1-3.65.48a5.27,5.27,0,0,0-2.34-.2l-.86-.86A1,1,0,0,0,26.12,4l-.79,1.37s-.14.49-1,.14l-1.46-.76s-.38-1.23-2.44-1a1.57,1.57,0,0,1-1.48-.62l.69-1.2A2.12,2.12,0,0,0,19,0"/><path class="cls-2" d="M48,35.93s-.09-.64-1.06.41c0,0-.55,1.66-1.65,1.93,0,0-1.1-.37-1,.78a10.32,10.32,0,0,1-.6,4s-.5,2.7,1.7,2.66l1.19-.28A31.45,31.45,0,0,1,48,41.21s1.1-3.72,0-5.28"/></g></g></g></svg>