<svg width="551" height="276" viewBox="0 0 551 276" fill="none" xmlns="http://www.w3.org/2000/svg">
<g clip-path="url(#clip0)">
<path d="M532.78 184.06L527.5 182.98L521.72 177.3L517.26 181.42L514.93 180.6H514.87L508.52 178.38L511.01 176.85L509.67 173L502.18 169.85L499.18 169.96L499.75 167.11L504.89 169.11L509.74 165.11L514.95 167.84L526.53 173.94L526.22 177.42L532.78 184.06ZM529.5 174.61L535.92 171.35V173.73L531.85 176.03L529.5 174.61ZM480.5 169.49V171.54L477.91 170.64L476.83 167.79L475.55 169.21L476.21 173.05L474.04 173.72L472.95 168.13L474.7 165.79L474.49 161.48L477.49 158.76L482.02 159.87L483.39 158.96L485.5 159.01L483.1 161.86L481.49 162L478.24 160.87L476.49 162.81L477.43 164.13L481.85 163.94L479.08 166.28L480.5 169.49ZM475.79 180.84L475.23 178.94H478.14L479.74 179.88L478.57 180.88L475.79 180.84ZM475.93 183.07H473.93L473.08 182.02L475.26 181.55L475.93 183.07ZM455.05 176.56L459.3 175.62L466.09 178.94L466.37 180.26L447.51 177.05L450.35 174.76L455.05 176.56ZM454.3 122.49L452.51 124.74L451.28 123.25V121.46L454.28 120.79L454.3 122.49ZM458.02 168.88L455.14 163.81L454.97 158.72L464.32 154.38L468.32 148.93L471.68 148.65V163.06L467.15 168.88H458.02ZM470.77 143.88L468.93 143.52L473.93 138.91L474 141.15L470.77 143.88ZM477.86 132.63L482.01 133.07L481.37 135.01L476.83 134.43L472.95 129.73L473.62 123.84L476.36 123.9L477.86 127.25L476.35 130.73L477.86 132.63ZM485.99 149.55L483.26 150.37V147.75L479.5 145.04H484.01L485.39 141.41L487.27 147.29L485.07 147.85L485.99 149.55ZM478.05 137.73L480.05 137.98L478.54 140.28L477.16 139.28L478.05 137.73ZM476.54 137.73L474.97 136.19L475.23 134.63L477.17 136.55L476.54 137.73ZM480.06 140.9L481.06 142.37L480.06 143.55L478.95 142.19L480.06 140.9ZM484.31 136.19L486.31 139.39H484.24L482.35 136.93L484.31 136.19ZM483 93.13L485.73 92.78L486.62 94.11L485.62 97.24L483 93.13ZM483.38 140.93L482.53 142.07L481.03 139.8L482.32 139.05L483.38 140.93ZM472.43 115.66L469.92 113.29L472.43 109.69L473.97 111.3L472.43 115.66ZM483.73 179.49H488.54V180.82L484.99 181.25L482.99 183.05L480.78 182.76L483.73 179.49ZM487.2 92.22L490.27 91.79L488.95 94.21L487.2 92.22ZM489.77 157.75L491.43 156.13L492.24 157.13L490.93 158.78L491.43 162.37L489.17 161.82L489.77 157.75ZM490.27 167.61H494.67V168.88L489.77 169.39L490.27 167.61ZM493.8 90.04L493.62 92.35L491.89 93.09L491.31 90.15L483.74 91.27L484.3 89.32L490.63 87.68L495.29 83.43L494.01 77.32L496.31 77.99L498.61 82.04L498.88 88.72L493.8 90.04ZM491.11 66.62H488.78L485.65 60.73L479.24 52.73L481.5 52.8L489.5 61.02H487.24L491.11 66.62ZM498.71 72.06L497.24 74.58L493.8 74.63L492.73 76.1L491.22 75.19L491.06 68.84L498.71 72.06ZM501.85 163.39L502.51 166.9L496.51 164.16L501.85 163.39ZM243.29 43.28L246.23 43.37L250.08 52.28L253.16 52.93L252.94 54.93H251.94L251.64 56.68L246.89 57.44L242.22 58.3L245.75 54.92L244.01 52.37L246.01 51.28V48.37L243.33 48.11L243.29 43.28ZM242.29 50.43L240.81 50.96L241.11 54.79L237.34 54.27V56.04H235.34V50.85L238.84 48.26L242.24 48.49L242.29 50.43ZM153.29 5.17999L162.71 4.98999L163.88 3.42001L163.98 3.28L154.89 3.47V2L181.77 0L175.04 3.82001L166.04 5.62L154.93 10.84L153.7 9.84H146.07L145.02 8.79001H152.02L150.42 6.70001L154.48 7.37L153.29 5.17999ZM160.89 59.47L163.2 63.16H152.11L158.81 56.31V58.96L160.89 59.47ZM153.37 34.94L151.92 35.57L146.59 31.14H140.31V29.36H146.43L149.18 27.09L154.63 27.19L146.52 19.88L133.24 20.61L138.71 14.76H140.98L139.53 18.36L139.67 18.45L144.1 14.79H146.1L159.6 20.34L159.7 24.24L162.14 25.13L163.51 27.7L161.09 29.33L156.87 27.82V33.32L155.68 33.85L152.02 32.09L153.37 34.94ZM147.89 2.94L149.98 4.5L147.1 6.36002L142.1 5.36002L147.89 2.94ZM140.1 9.80002L143.4 11.17H153.29L149.89 13.58L136.89 12.58L140.1 9.80002ZM133.41 14.05L134.62 15.68L128.62 17.29L128.05 15.29L133.41 14.05ZM127.24 14.05L126.08 17.16L121.66 18.65L119.6 16.55L127.24 14.05ZM120.7 20.58L121.7 22.12L118.47 23.78L117.19 22.12L120.7 20.58ZM105.86 16.98L109.18 15.68L109.94 18.13L111.83 15.68H114.96L111.82 19.75L115.9 21.65L111.73 22.65L106.17 21.32L101.17 23.5L93.9102 20.66L99.7501 19.16L96.0001 17.57L102.36 15.39L105.86 16.98ZM98.1301 13.35L100.85 14.62L89.0502 18.62L86.9802 16.17L98.1301 13.35ZM147.96 275.75L140.1 275.46L137.43 273.13L139.37 271.3L147.88 275.77L147.96 275.75ZM182.83 179.13L176.95 186.88L174.41 205.88L160.76 211.96L159.44 220.51L153.82 230.36L151.06 235.17L144.15 232.62L149.96 240.74L137.2 246.3L138.34 270.01L136.08 269.78L133.42 269.51L125.05 258.6L124.82 250.51L119.99 246.58L118.15 201.58L107.25 194.13L94.6102 172.46L94.7402 170.32V170.2L95.1602 163.36L98.7501 158.81L101.2 155.7L102.02 150.29L101.15 147.38L100.31 144.58L97.4202 144.3L96.2002 146.13L89.9302 143.88L86.5402 139.28L86.4802 139.12L83.6002 135.27L82.7002 134.84L79.4102 133.35L74.8801 131.06H74.8202L71.8202 127.93L68.2501 128.93L53.9402 122.93L45.1602 102.17L45.0502 96.96H42.3202V102.56L46.9502 112.51L44.5502 114.38L38.6702 103.19L37.8602 94.53L32.3602 89V76.8L47.2402 61V58.88L43.2402 55.18L45.5001 44.75L39.6501 38.8L20.2102 39.48L3.37012 47.58L0.160156 47.33L8.9502 41.51L4.36023 41.58L9.71021 34.3L20.2701 30.3V30.13L12.2002 30.42L14.1401 27.71L24.3102 27.83V23.83L33.3102 20.16L55.6702 20.03L59.9402 21.8L86.9402 21.24L101.09 26.93L106.92 24.18L117.92 26.27L124.24 23.27L123.01 20.71L127.74 18.59L128.38 22.59L131.11 22.87L130.46 26.19L136.3 22.3L140.54 22.78L136.01 27.52L124.9 28.75L126.41 31L119.19 32.33L106.45 41.81L119.19 48.81L119.12 55.93H122.7L137.48 34.28H142.94L146.94 37.73L146.88 42.66L155.22 39.36L156 49.86L162.37 50.97V53.11L153.61 57.8L141.97 58.3L134.7 61.81V63.81L142.3 60.34L143.48 61.47L141.06 65.25L143.5 67.47L148.68 67.72L138 71.49L137.63 69.85L141.02 68.22V68.06L135.74 68.97L135.61 69.09L133.5 69.44L101.71 96.8L101.63 109.1L98.5201 109.02L97.2202 99.13L77.5802 99.07L69.3202 109.51L69.2402 109.61L65.7701 113.99L70.0502 123.27H78.8502L82.0502 117.99L86.0502 118.06L85.9001 122.06H85.8102L82.8102 127.83L82.7002 127.98L82.1702 128.98L91.5802 128.88L91.8002 140.03V140.13V141.67L93.0802 142.34L95.0802 143.47L96.6702 142.13L101.21 141.73L101.8 143.91L103.91 143.78L108.11 138.06H110.11L120.02 138.16L124.29 141.22L131.96 141.98L133.89 143.84L139.84 149.54L145.46 150.06L148.66 150.33L150.15 153.62L152.8 159.45L150.1 163.45L150.23 163.57L153.92 160.71L156.81 161.97L155.4 165.81L159.75 163.24L164.11 165.14L163.86 167.73L173.28 168.31L182.91 174.62L182.83 179.13ZM40.8302 57.89L42.1501 56.75L45.2302 59.29V60.72H42.9702L40.8302 57.89ZM134.57 31.13L133.85 32.92L127 32.19L130.46 29.35L134.57 31.13ZM124.65 123.13L123.93 124.32H121.93L122.64 123.13H124.65ZM109.88 123.27V122.53H111.95L110.79 120.88H114.43L120.06 121.51L119.31 122.61H116.31L114.41 124.04V123.26L109.88 123.27ZM101.79 120.49L103.57 118.49L98.9001 115.36H93.1102L95.1102 113.46H100.23L109.91 120.46L101.79 120.49ZM105.93 123.91V125.13H102.43L101.21 124.08V122.65H104.7L105.93 123.91ZM208.11 24.11L204.31 27.05L194.16 30.05L186.98 37.69H182.27L178.27 33.69L178.09 26.48L184.42 22.86V17.55L181.03 11.67L167.83 11.49V8.82001L176.51 6.16L187.35 2.37H206.17L221.71 0.550018L239.71 2.37L237.51 4.60001L231.27 5.88L221.15 22.08L215.78 23.68L208.11 24.11ZM233.64 29.73V30.46L228.32 33.06L219.44 31.78V29.4L221.96 29.46L222.89 28.18L227.32 28.27L231 27.04L233.64 29.73ZM335.37 214.63L330.6 214.42L328.6 209.69L330.21 205.13L331.21 198.29L340.63 188.44H343.52L335.37 214.63ZM402.37 148.63L400.53 149.77H399.53L398.46 147.77L398.76 144.84L399.18 142.69L400.01 142.63L401.55 144.72L402.55 146.99L402.37 148.63ZM425.7 128.28L424.58 122.37L415.11 114.37L401.91 129.13L398.91 140.2L392.91 143.94L383.4 116.39H382.23L381.7 118.87L378.7 118.51L377.05 116.36L378.79 114.55L375.06 113.36L374.67 112.9L371.96 109.79H358.38L346.57 106.25L340.16 99.51L337.4 99.25L337.33 99.06H335.33H335.17L337.43 102.68V102.81L341.55 109.51L342.07 109.86L342.88 107.24L344.7 109.83L343.7 110.92L344.9 111.71L348.85 112.5L351.95 108.99L359.24 115.52L349.63 127.52L330.63 136.14L327.74 126.66L313.1 101.04L311.91 103.87L308.19 100.81L308.06 100.92L315.29 113.43V113.5L320.11 121.85L330.62 140.13L344.73 138.03L345.56 142.2L325.26 165.97L325.1 166.12L321.83 169.99L323.1 184.16L324.1 194.03L313.64 202.67L313.97 212.11L309.51 215.24L309.37 216.24V216.34L308.85 219.93L297.44 233.22H282.62L278.1 220.76V220.66L270.43 198.69L270.13 194.99L273.64 189.17V175.32L272.43 173.73L266.04 165.15L266.15 160.05L266.23 156.93L266.32 152.64H259.16L258.41 149.28L252.96 148.48L251.82 148.8L249.54 149.46L232.73 154.35L225.96 146.99L225.9 146.92L222.68 143.43L216.68 136.92V136.79L216.78 134.01L217.1 125.01V124.88L217.32 117.51V117.43L217.41 114.79L236.13 90.25L246.7 89.14L255.95 85.58L262.87 85.79L268.8 85.97L268.55 92.8L270.5 93.27L275.82 94.59L278.32 97.64L284.6 98.9L287.46 94.6L310.82 97.79L312.1 92.94L312.8 89.59L313.47 86.44L298.74 85.62L295.53 79.14H299.43L301.16 77.05L321.39 76.38V72.85L313.87 70.21L313.51 66.88L315.58 66.31L314.72 64.25L307.72 65.78L310.43 69.13L307.6 69.36L305.54 68.17L307.04 66.6H300.28L299.81 68.05L299.73 68.12L298.79 71.05L297.7 74.41L299.14 77.59H292.58L288.97 79.37L290.79 83.37L289.16 85.96L286.57 82.69L288.57 81.85L285.36 80.95L283.7 79.02L283.41 78.68L280.81 73.75L279.67 73.43H279.5L278.68 73.22L274.68 68.6L273.9 68.65H273.82H273.29L270.11 68.84L281.53 78.84L279.4 79.27L278.86 82.15L277.14 83.15L276.66 79.15L267.3 69.75H264.03L263.79 73.29L255.36 73.23L253.58 75.54L245.43 86.07L237.29 85.42L236.15 85.33L234.27 81.98L234.47 74.53L234.53 71.89L247.88 71.8L247.33 64.86L243.44 62.75V61.36H246.74L255.6 56.01L261.51 52.45H261.65L265.16 50.29L264.69 49.13L264.03 47.56L265.59 44.03H267.77L266.98 48.54L267.09 49L267.42 50.3L274.85 50.39L280.26 49.06L281.12 49.85L284.89 49.72V47.84V47.74V43.08L288.6 44.79L288.97 43.08L288.63 42.82L288.52 42.71L287.04 41.62L287.48 40.48L292.87 40.36L293.87 39.36L294 39.27L294.74 38.52H288.22L283.92 36.34L287.6 27.96H284.87L277.23 36.37L280.62 40.61L273.43 47.13L268.5 41.42L261.58 42.56L259.28 37.11L282.28 21.11L288.99 20.77L292.41 20.6H292.47L295.75 20.43L311.59 25.51L307.59 27.51L299.33 27.2L302.2 32.7L323.93 23.7L347.18 23.07L344.29 16.44L350.29 16.92L353.69 28.13L357.46 24.21L353.1 18.77L373.04 9.77002H395.66L397.17 15.2H421.67L426.19 18.62H437.03L440.8 15.2L454.18 17.41L456.35 20.41L494.73 21.51L519.5 26.45L523.36 30.62L518.55 30.52L511.46 29.05L508.37 31.47L516.3 33.65L516.1 35.27L500.33 40.27L506.99 46.72V57.6L495.18 46.34L495.53 40.34L498.44 38.34L495.44 35.43L493.71 35.25V37.86L486.71 35.2L484.91 40.87L468.33 40.74L466.94 50.74L474.94 50.86L483.24 60.35V68.45L480.34 72.81L474.97 73.75L475.47 79.56L472.58 79.94L479.87 85.94L479.25 90.18L475.6 90.43L472.6 83.89L469.71 83.05L467.54 78.89L463.66 81.57L460.9 76.27L456.9 79.81L460.06 85.03L461.67 83.98H466.67L462.3 88.79L470.81 102.9L466.04 113.66L451.44 118.92L451.34 116.5L448.87 117.92L446.18 119.44L445.81 123.84L453.35 131.84L453.6 138.99L446.37 143.8L446.27 139.71L443.69 140.08L441.52 137.86L436.95 133.3L436.01 142.54L440.09 148.59L446.31 157.84L445.79 159.84L439.15 154.14L437.15 147.56L433.01 144.03L433.52 135.78L431.98 130.05L429.22 126.92L427.73 128.79L425.7 128.28ZM252.99 81.02L255.55 78.79V81.02H252.99ZM266.18 77.08V81.08H264.02V76.4L266.18 77.08ZM265.11 75.16V73.23H266.66L266.18 75.56L265.11 75.16ZM273.06 85.16L271.37 83.99V82.85H275.9V85.6L273.06 85.16ZM275.67 87.01V89.54L272.82 88.8V86.94L275.67 87.01ZM306.15 89.6L310.35 88.03L309.16 90.36L306.15 89.6ZM268.27 48.6L268.64 46.66L269.86 46.16L271.23 47.53L270.54 48.58L268.27 48.6ZM433.43 152.37L448.43 168.13V172.01L445.66 174.34L428.19 150.34L433.43 152.37ZM497.23 253.43L495.06 254.8L493.97 255.62H492.07L491.53 254.25V251.79L491.26 248.24L492.07 247.69L495.07 248.79L498.87 247.69L499.41 248.51L497.23 253.43ZM517.85 224.58L501.23 241.9L486.83 241.08L485.08 231.3L480.16 233.42L475.48 229.3L447.04 235.54L445.29 233.42L447.63 227.77V211.04L462.63 203.97L473.75 191.6L479.83 194.31L482.52 188.65L492.71 188.41L490.13 193.13L498.56 200.43L504.17 194.78V186.88L506.75 187.71L509.67 201.85L518.8 214.85L517.85 224.58ZM538.33 250.86L524.63 259.93L520.54 257.57L538.33 248.5V250.86ZM537.52 171.35L532.78 167.93L534.6 167.81L539.41 170.7L537.52 171.35ZM541.84 248.97L543.01 245.2L546.52 241.67V236.37L547.92 235.78V239.55L550.38 242.85L541.84 248.97Z" fill="white" fill-opacity="0.4"/>
<path d="M257.42 72.51C260.181 72.51 262.42 70.2714 262.42 67.51C262.42 64.7486 260.181 62.51 257.42 62.51C254.659 62.51 252.42 64.7486 252.42 67.51C252.42 70.2714 254.659 72.51 257.42 72.51Z" fill="#FFC700"/>
<path d="M385.23 127.19C387.992 127.19 390.23 124.951 390.23 122.19C390.23 119.429 387.992 117.19 385.23 117.19C382.469 117.19 380.23 119.429 380.23 122.19C380.23 124.951 382.469 127.19 385.23 127.19Z" fill="#FFC700"/>
<path d="M297.05 227.07C299.811 227.07 302.05 224.831 302.05 222.07C302.05 219.309 299.811 217.07 297.05 217.07C294.288 217.07 292.05 219.309 292.05 222.07C292.05 224.831 294.288 227.07 297.05 227.07Z" fill="#FFC700"/>
<path d="M352.09 206.1C354.851 206.1 357.09 203.862 357.09 201.1C357.09 198.339 354.851 196.1 352.09 196.1C349.328 196.1 347.09 198.339 347.09 201.1C347.09 203.862 349.328 206.1 352.09 206.1Z" fill="#FFC700"/>
<path d="M116.26 139.67C119.021 139.67 121.26 137.431 121.26 134.67C121.26 131.908 119.021 129.67 116.26 129.67C113.498 129.67 111.26 131.908 111.26 134.67C111.26 137.431 113.498 139.67 116.26 139.67Z" fill="#FFC700"/>
<path d="M446.6 232.31C449.361 232.31 451.6 230.071 451.6 227.31C451.6 224.549 449.361 222.31 446.6 222.31C443.838 222.31 441.6 224.549 441.6 227.31C441.6 230.071 443.838 232.31 446.6 232.31Z" fill="#FFC700"/>
<path d="M343.64 115.03C346.401 115.03 348.64 112.791 348.64 110.03C348.64 107.269 346.401 105.03 343.64 105.03C340.878 105.03 338.64 107.269 338.64 110.03C338.64 112.791 340.878 115.03 343.64 115.03Z" fill="#FFC700"/>
<path d="M335.05 105.18C337.811 105.18 340.05 102.941 340.05 100.18C340.05 97.4185 337.811 95.1799 335.05 95.1799C332.288 95.1799 330.05 97.4185 330.05 100.18C330.05 102.941 332.288 105.18 335.05 105.18Z" fill="#FFC700"/>
<path d="M457.8 121.16C460.561 121.16 462.8 118.921 462.8 116.16C462.8 113.398 460.561 111.16 457.8 111.16C455.038 111.16 452.8 113.398 452.8 116.16C452.8 118.921 455.038 121.16 457.8 121.16Z" fill="#FFC700"/>
<path d="M472.96 115.69C475.721 115.69 477.96 113.451 477.96 110.69C477.96 107.929 475.721 105.69 472.96 105.69C470.199 105.69 467.96 107.929 467.96 110.69C467.96 113.451 470.199 115.69 472.96 115.69Z" fill="#FFC700"/>
<path d="M497.15 91.8101C499.912 91.8101 502.15 89.5715 502.15 86.8101C502.15 84.0486 499.912 81.8101 497.15 81.8101C494.389 81.8101 492.15 84.0486 492.15 86.8101C492.15 89.5715 494.389 91.8101 497.15 91.8101Z" fill="#FFC700"/>
<path d="M248.67 57.8301C251.431 57.8301 253.67 55.5915 253.67 52.8301C253.67 50.0687 251.431 47.8301 248.67 47.8301C245.908 47.8301 243.67 50.0687 243.67 52.8301C243.67 55.5915 245.908 57.8301 248.67 57.8301Z" fill="#FFC700"/>
<path d="M125.41 80.9199C128.172 80.9199 130.41 78.6813 130.41 75.9199C130.41 73.1585 128.172 70.9199 125.41 70.9199C122.649 70.9199 120.41 73.1585 120.41 75.9199C120.41 78.6813 122.649 80.9199 125.41 80.9199Z" fill="#FFC700"/>
<path d="M81.5996 91.51C84.361 91.51 86.5996 89.2714 86.5996 86.51C86.5996 83.7486 84.361 81.51 81.5996 81.51C78.8382 81.51 76.5996 83.7486 76.5996 86.51C76.5996 89.2714 78.8382 91.51 81.5996 91.51Z" fill="#FFC700"/>
<path d="M33.7998 94.1499C36.5612 94.1499 38.7998 91.9113 38.7998 89.1499C38.7998 86.3885 36.5612 84.1499 33.7998 84.1499C31.0384 84.1499 28.7998 86.3885 28.7998 89.1499C28.7998 91.9113 31.0384 94.1499 33.7998 94.1499Z" fill="#FFC700"/>
<path d="M84.3398 103.29C87.1013 103.29 89.3398 101.051 89.3398 98.29C89.3398 95.5286 87.1013 93.29 84.3398 93.29C81.5784 93.29 79.3398 95.5286 79.3398 98.29C79.3398 101.051 81.5784 103.29 84.3398 103.29Z" fill="#FFC700"/>
</g>
<defs>
<clipPath id="clip0">
<rect width="550.38" height="275.78" fill="white"/>
</clipPath>
</defs>
</svg>
