<svg xmlns="http://www.w3.org/2000/svg" width="426.482" height="171.073" viewBox="0 0 426.482 171.073"><g transform="translate(-710 -439.719)"><path d="M969.061,439.719,906.8,610.791H873.549l62.134-171.073Z" transform="translate(-24.048)" fill="#fff"/><path d="M1030.532,439.719,968.267,610.791H935.02l62.134-171.073Z" transform="translate(-33.086)" fill="#fff"/><path d="M783.351,455.329c25.05,0,42.43,9.255,56.647,23.7l-23.021,21.215c-9.253-8.351-20.762-13.542-33.626-13.542-24.151,0-39.724,18.055-39.724,40.849,0,25.052,17.829,40.851,40.4,40.851,23.7,0,35.206-13.09,36.109-26.18H781.545V513.557h74.477v12.865c0,39.948-23.47,73.349-72.671,73.349-42.884,0-73.351-31.822-73.351-72.221S740.468,455.329,783.351,455.329Z" transform="translate(0 -2.295)" fill="#fff"/><path d="M1112.157,455.329c25.051,0,42.43,9.255,56.648,23.7l-23.021,21.215c-9.253-8.351-20.762-13.542-33.627-13.542-24.15,0-39.724,18.055-39.724,40.849,0,25.052,17.829,40.851,40.4,40.851,23.7,0,35.206-13.09,36.109-26.18h-38.591V513.557h74.477v12.865c0,39.948-23.471,73.349-72.672,73.349-42.883,0-73.351-31.822-73.351-72.221S1069.274,455.329,1112.157,455.329Z" transform="translate(-48.346 -2.295)" fill="#fff"/></g></svg>