<svg xmlns="http://www.w3.org/2000/svg" viewBox="0 0 279.83 136.11"><defs><style>.cls-1{fill:#fff;}</style></defs><g id="Layer_2" data-name="Layer 2"><g id="Layer_1-2" data-name="Layer 1"><path class="cls-1" d="M53.83,29.2c-8.86,0-15.24-5.87-15.24-14.61C38.59,5.68,45.17,0,53.63,0,58,0,62,1.45,64.33,3.69L60.1,8.51a8.19,8.19,0,0,0-6.24-2.58c-4.69,0-8.14,3.68-8.14,8.66s3,8.74,8.46,8.74a11,11,0,0,0,4.19-.74V17.53H53.09V12.12H64.53v14.7a23.58,23.58,0,0,1-10.7,2.38"/><polygon class="cls-1" points="70.01 28.5 70.01 0.74 76.74 0.74 76.74 22.65 87.49 22.65 87.49 28.5 70.01 28.5"/><path class="cls-1" d="M103.24,29.23c-8.66,0-15.1-5.94-15.1-14.73S94.58,0,103.24,0s15.13,5.61,15.13,14.5S112,29.23,103.24,29.23m0-23.19c-4.71,0-7.92,3.61-7.92,8.46,0,5,3.26,8.63,7.92,8.63s8-3.61,8-8.63c0-4.85-3.24-8.46-8-8.46"/><path class="cls-1" d="M133.84,28.49h-11V.76h11c4.31,0,9.44,1.53,9.44,7.12a6.08,6.08,0,0,1-4.54,6V14a6.4,6.4,0,0,1,5.68,6.47c0,6-5.28,8.06-10.58,8.06M132.55,6.07h-3.29V11.8h3.6c2.51,0,3.95-1.05,3.95-3s-1.44-2.72-4.26-2.72M133,16.74h-3.72v6.35H133c2.13,0,4.71-.59,4.71-3.29,0-2.32-1.88-3.06-4.74-3.06"/><path class="cls-1" d="M167.65,28.5l-2.15-5.45H154.76l-2,5.45h-7.29L157.07.75h6.52L175.11,28.5ZM160.21,8.16l-3.52,9.53h7Z"/><polygon class="cls-1" points="177.41 28.5 177.41 0.74 184.14 0.74 184.14 22.65 194.89 22.65 194.89 28.5 177.41 28.5"/><rect class="cls-1" x="27.03" y="36.37" width="6.73" height="27.75"/><polygon class="cls-1" points="57.11 64.12 45.94 45.98 45.82 45.98 45.98 64.12 39.48 64.12 39.48 36.37 47.12 36.37 58.25 54.47 58.36 54.47 58.22 36.37 64.72 36.37 64.72 64.12 57.11 64.12"/><polygon class="cls-1" points="88.07 64.12 76.89 45.98 76.78 45.98 76.94 64.12 70.44 64.12 70.44 36.37 78.08 36.37 89.2 54.47 89.32 54.47 89.17 36.37 95.67 36.37 95.67 64.12 88.07 64.12"/><path class="cls-1" d="M115.18,64.86c-8.66,0-15.09-5.94-15.09-14.74s6.43-14.5,15.09-14.5,15.13,5.62,15.13,14.5-6.42,14.74-15.13,14.74m0-23.2c-4.7,0-7.91,3.61-7.91,8.46,0,5,3.25,8.63,7.91,8.63s7.95-3.6,7.95-8.63c0-4.85-3.24-8.46-7.95-8.46"/><polygon class="cls-1" points="148.02 64.12 141.32 64.12 130.82 36.37 138.34 36.37 144.76 56.05 144.93 56.05 151.31 36.37 158.72 36.37 148.02 64.12"/><path class="cls-1" d="M178.62,64.12l-2.16-5.44H165.73l-2,5.44h-7.3L168,36.37h6.52l11.52,27.75Zm-7.44-20.34-3.53,9.53h7Z"/><polygon class="cls-1" points="197.9 42.09 197.9 64.12 191.2 64.12 191.2 42.09 183.36 42.09 183.36 36.37 205.73 36.37 205.73 42.09 197.9 42.09"/><rect class="cls-1" x="208.79" y="36.37" width="6.73" height="27.75"/><path class="cls-1" d="M235,64.86c-8.66,0-15.09-5.94-15.09-14.74s6.43-14.5,15.09-14.5,15.13,5.62,15.13,14.5S243.75,64.86,235,64.86m0-23.2c-4.7,0-7.91,3.61-7.91,8.46,0,5,3.25,8.63,7.91,8.63s8-3.6,8-8.63c0-4.85-3.24-8.46-8-8.46"/><polygon class="cls-1" points="272.23 64.12 261.05 45.98 260.94 45.98 261.1 64.12 254.6 64.12 254.6 36.37 262.24 36.37 273.36 54.47 273.48 54.47 273.33 36.37 279.83 36.37 279.83 64.12 272.23 64.12"/><rect class="cls-1" x="14.15" y="71.99" width="6.73" height="27.75"/><polygon class="cls-1" points="44.25 99.74 33.08 81.6 32.96 81.6 33.12 99.74 26.62 99.74 26.62 71.99 34.26 71.99 45.39 90.09 45.5 90.09 45.35 71.99 51.86 71.99 51.86 99.74 44.25 99.74"/><rect class="cls-1" x="57.58" y="71.99" width="6.73" height="27.75"/><polygon class="cls-1" points="81.91 77.72 81.91 99.74 75.21 99.74 75.21 77.72 67.37 77.72 67.37 71.99 89.74 71.99 89.74 77.72 81.91 77.72"/><rect class="cls-1" x="92.8" y="71.99" width="6.73" height="27.75"/><path class="cls-1" d="M124.06,99.75l-2.15-5.45H111.17l-2,5.45h-7.29L113.48,72H120l11.52,27.76ZM116.62,79.4l-3.52,9.53h7Z"/><polygon class="cls-1" points="143.34 77.72 143.34 99.74 136.64 99.74 136.64 77.72 128.81 77.72 128.81 71.99 151.18 71.99 151.18 77.72 143.34 77.72"/><rect class="cls-1" x="154.24" y="71.99" width="6.73" height="27.75"/><polygon class="cls-1" points="180.45 99.74 173.75 99.74 163.25 71.99 170.77 71.99 177.19 91.67 177.35 91.67 183.74 71.99 191.15 71.99 180.45 99.74"/><polygon class="cls-1" points="193.42 99.74 193.42 71.99 212.07 71.99 212.07 77.68 199.89 77.68 199.89 82.88 211.41 82.88 211.41 88.25 199.89 88.25 199.89 94.01 212.78 94.01 212.78 99.74 193.42 99.74"/><path class="cls-1" d="M15.24,136.07C6.39,136.07,0,130.19,0,121.45c0-8.9,6.58-14.58,15.05-14.58,4.34,0,8.39,1.45,10.69,3.68l-4.23,4.83a8.19,8.19,0,0,0-6.23-2.59c-4.7,0-8.15,3.69-8.15,8.66s3,8.74,8.46,8.74a10.83,10.83,0,0,0,4.2-.74v-5H14.5V119H25.94v14.7a23.58,23.58,0,0,1-10.7,2.39"/><path class="cls-1" d="M46.27,135.36l-6-11H38v11H31.43V107.61H42c5.32,0,10.62,2,10.62,8.39a7.57,7.57,0,0,1-5.76,7.49l7.24,11.87ZM41.53,113H38v6.46h3.18c2.16,0,4.85-.56,4.85-3.37,0-2.58-2.46-3.09-4.46-3.09"/><path class="cls-1" d="M71.2,136.1c-8.66,0-15.1-5.94-15.1-14.73s6.44-14.5,15.1-14.5,15.12,5.61,15.12,14.5S79.9,136.1,71.2,136.1m0-23.19c-4.71,0-7.92,3.6-7.92,8.46,0,5,3.26,8.62,7.92,8.62s8-3.6,8-8.62c0-4.86-3.25-8.46-8-8.46"/><path class="cls-1" d="M102.31,136.11c-7.29,0-11.84-4.55-11.84-11.21V107.61h6.67v16.74c0,3,1.45,5.72,5.2,5.72s5.22-2.74,5.22-5.72V107.61h6.7V124.9c0,6.66-4.71,11.21-12,11.21"/><path class="cls-1" d="M129.7,124.89h-3.33v10.47h-6.71V107.61h10.19c6.07,0,10.86,2.21,10.86,8.54s-5.22,8.74-11,8.74M129.3,113h-2.93v6.55h2.82c2.5,0,4.82-.76,4.82-3.38S131.69,113,129.3,113"/></g></g></svg>