<svg xmlns="http://www.w3.org/2000/svg" viewBox="0 0 266.94 139.91"><defs><style>.cls-1,.cls-3{fill:#fff;}.cls-2{opacity:0.4;}.cls-3{opacity:0.2;}</style></defs><g id="Layer_2" data-name="Layer 2"><g id="Layer_1-2" data-name="Layer 1"><path class="cls-1" d="M164.86,80.21h-7.77l-1.75,3h-4.25l10.56-17.4h4.65l2.86,17.4H165.3ZM158.81,77h5.76l-1.14-8Z"/><path class="cls-1" d="M174.62,65.81h12.31L186.2,69h-8.58l-.81,3.79h8.4L184.5,76h-8.42l-1.59,7.25h-3.71Z"/><path class="cls-1" d="M193.63,77h-2.89l-1.36,6.23h-3.7l3.83-17.4H197c2.81,0,5.37,1.88,5.37,4.91a6,6,0,0,1-5,6l2.4,6.44h-4.09Zm4.8-5.9A2.12,2.12,0,0,0,196.22,69h-3.71l-1,4.8h3.86C197.29,73.79,198.43,72.65,198.43,71.08Z"/><path class="cls-1" d="M206.28,65.81H210l-3.84,17.4h-3.7Z"/><path class="cls-1" d="M220.55,65.52c4.26,0,6.71,2.3,7.73,4.93l-3.58,1.2a4.39,4.39,0,0,0-4.33-2.84c-3.29,0-6.08,2.87-6.08,6.68a4.61,4.61,0,0,0,4.91,4.75,5.52,5.52,0,0,0,4.09-2l2.85,1.93A9,9,0,0,1,219,83.52c-4.8,0-8.56-3-8.56-7.8A10,10,0,0,1,220.55,65.52Z"/><path class="cls-1" d="M239.26,80.21h-7.78l-1.74,3h-4.26l10.57-17.4h4.64l2.87,17.4H239.7Zm-6-3.21H239l-1.15-8Z"/><path class="cls-1" d="M251.6,70.87l-2.72,12.34h-3.7L249,65.81h3.81l5.43,11.92,2.63-11.92h3.71l-3.84,17.4h-3.57Z"/><path class="cls-1" d="M154.87,101.08a7.47,7.47,0,0,0,5.89,2.69c1.86,0,2.61-1.07,2.61-2s-1.33-1.59-3-2.19c-2.43-.86-5.45-2-5.45-5.12,0-2.63,2.48-5.42,6.78-5.42a9.1,9.1,0,0,1,6.91,2.81l-2.29,2.59a6.87,6.87,0,0,0-5.09-2.22c-1.43,0-2.43.86-2.43,1.83s1.33,1.46,3,2.06c2.42.88,5.5,2.06,5.5,5.08s-2.53,5.82-6.83,5.82c-3.42,0-6.42-1.33-7.88-3.23Z"/><path class="cls-1" d="M175.29,92.55h-5.08l.73-3.26h13.88l-.71,3.26H179l-3.11,14.14h-3.73Z"/><path class="cls-1" d="M193.69,103.69h-7.78l-1.75,3h-4.25l10.57-17.4h4.64l2.87,17.4h-3.86Zm-6.06-3.21h5.77l-1.15-8Z"/><path class="cls-1" d="M207.56,100.45h-2.89l-1.36,6.24h-3.7l3.83-17.4h7.44c2.81,0,5.37,1.88,5.37,4.9a6,6,0,0,1-5,6.06l2.4,6.44H209.6Zm4.8-5.89a2.12,2.12,0,0,0-2.21-2.09h-3.71l-1,4.8h3.86C211.22,97.27,212.36,96.12,212.36,94.56Z"/><path class="cls-1" d="M223.24,92.55h-5.09l.73-3.26h13.88l-.7,3.26H227l-3.1,14.14h-3.73Z"/><path class="cls-1" d="M232.76,100.92a11.3,11.3,0,0,1,.21-1.8l2.17-9.83h3.75l-2.16,9.86a6.17,6.17,0,0,0-.19,1.41c0,1.8,1.23,3.18,3.6,3.18,2.69,0,4-1.67,4.49-4.09l2.3-10.36h3.75l-2.29,10.43c-.94,4.23-3.11,7.28-8.45,7.28C235.24,107,232.76,104.55,232.76,100.92Z"/><path class="cls-1" d="M254.13,89.29h7.51c3.34,0,5.3,2.19,5.3,4.82s-1.75,6.42-7.2,6.42h-4.39L254,106.69h-3.71Zm8.92,5.19a2,2,0,0,0-2.19-2h-3.73l-1.05,4.8h3.84A2.82,2.82,0,0,0,263.05,94.48Z"/><path class="cls-1" d="M164.86,127.17h-7.77l-1.75,3h-4.25l10.56-17.4h4.65l2.86,17.4H165.3ZM158.81,124h5.76l-1.14-8Z"/><path class="cls-1" d="M182.49,118.22l-5.66,11.95h-3.94l-1.14-17.4h4.07l.26,12.57,6.08-12.57h2.89l.52,12.57,5.82-12.57h4.25l-8.79,17.4h-3.94Z"/><path class="cls-1" d="M204.38,127.17h-7.77l-1.75,3h-4.25l10.56-17.4h4.65l2.87,17.4h-3.87Zm-6-3.21h5.76L203,116Z"/><path class="cls-1" d="M218.26,123.93h-2.9L214,130.17H210.3l3.84-17.4h7.43c2.82,0,5.38,1.87,5.38,4.9a6,6,0,0,1-5,6l2.4,6.45h-4.1Zm4.8-5.89a2.13,2.13,0,0,0-2.22-2.09h-3.7l-1,4.8H220C221.91,120.75,223.06,119.6,223.06,118Z"/><path class="cls-1" d="M245.18,120.25c0,4.57-3.1,9.92-11.27,9.92h-6.84l3.84-17.4h6.73A7.46,7.46,0,0,1,245.18,120.25Zm-3.86.24a4.28,4.28,0,0,0-4.38-4.46h-3l-2.4,10.88h3.08A6.33,6.33,0,0,0,241.32,120.49Z"/><path class="cls-1" d="M247.74,124.56a7.46,7.46,0,0,0,5.89,2.68c1.85,0,2.61-1.06,2.61-2s-1.33-1.6-3-2.2c-2.43-.86-5.46-2-5.46-5.11,0-2.63,2.48-5.43,6.79-5.43a9.11,9.11,0,0,1,6.91,2.82l-2.3,2.59a6.84,6.84,0,0,0-5.08-2.22c-1.44,0-2.43.86-2.43,1.82s1.33,1.46,3,2.06c2.43.89,5.51,2.07,5.51,5.09s-2.53,5.82-6.84,5.82c-3.41,0-6.41-1.33-7.87-3.24Z"/><g class="cls-2"><polygon class="cls-1" points="77.23 34.31 105.59 34.31 105.59 62.67 77.23 34.31"/><polygon class="cls-1" points="34.31 105.59 34.31 77.23 62.67 105.59 34.31 105.59"/><polygon class="cls-1" points="77.24 105.6 105.6 77.24 105.6 105.6 77.24 105.6"/><polygon class="cls-1" points="34.31 34.31 62.67 34.31 34.31 62.67 34.31 34.31"/></g><polygon class="cls-3" points="42.85 112.81 97.06 112.81 69.96 139.91 42.85 112.81"/><polygon class="cls-3" points="97.06 27.11 42.85 27.11 69.96 0 97.06 27.11"/><polygon class="cls-3" points="139.51 28.18 122.51 11.18 122.51 11.18 111.72 0.39 94.72 17.39 122.51 17.39 122.51 45.18 139.51 28.18"/><polygon class="cls-3" points="139.53 111.75 121.96 94.18 122.44 122.52 94.72 122.52 111.72 139.52 122.54 128.7 122.54 128.73 139.53 111.75"/><polygon class="cls-3" points="45.17 122.52 17.38 122.52 17.38 94.73 0.39 111.73 17.38 128.73 17.38 128.73 28.17 139.52 45.17 122.52"/><polygon class="cls-3" points="45.17 17.39 28.17 0.39 17.38 11.18 17.38 11.18 0.39 28.18 17.38 45.18 17.38 17.39 45.17 17.39"/><polygon class="cls-3" points="27.11 42.85 27.11 97.06 0 69.96 27.11 42.85"/><polygon class="cls-3" points="112.81 97.06 112.81 42.85 139.91 69.96 112.81 97.06"/><rect class="cls-3" x="53.96" y="53.96" width="31.98" height="31.98" transform="translate(139.91 0) rotate(90)"/></g></g></svg>