<svg xmlns="http://www.w3.org/2000/svg" viewBox="0 0 465.3 272.14"><defs><style>.cls-1{opacity:0.4;}.cls-2{fill:#fff;}</style></defs><g id="Layer_2" data-name="Layer 2"><g id="Layer_1-2" data-name="Layer 1"><g id="Loudhailer_Logo_Yellow_M"><g class="cls-1"><polygon class="cls-2" points="235.09 111.67 216.08 35.44 186.12 26.85 235.09 111.67"/><polygon class="cls-2" points="190.67 214.77 247.19 160.19 239.65 129.95 190.67 214.77"/><polygon class="cls-2" points="168.01 21.65 92.49 0 70.06 21.65 168.01 21.65"/><polygon class="cls-2" points="56.51 34.74 0 89.31 7.54 119.56 56.51 34.74"/><polygon class="cls-2" points="79.18 227.85 154.69 249.51 177.11 227.85 79.18 227.85"/><polygon class="cls-2" points="12.1 137.84 31.11 214.07 61.07 222.66 12.1 137.84"/></g><path class="cls-2" d="M183.07,271.16v-43.3h10.52v34.19h16.76v9.11Z"/><path class="cls-2" d="M227.24,272.14c-9.17,0-16.88-6.36-16.88-16.33s7.71-16.09,16.88-16.09,16.94,6.12,16.94,16.09S236.48,272.14,227.24,272.14Zm0-24.1c-4.71,0-7.16,3.85-7.16,7.77s2.51,7.89,7.23,7.89,7.21-4,7.21-7.89S232,248,227.24,248Z"/><path class="cls-2" d="M267.12,271.16v-4.22H267a10.44,10.44,0,0,1-9.18,5.08c-8.19,0-11.07-6.36-11.07-12.48V240.7h10.09v16.52c0,3.42.86,6.48,4.53,6.48,3.49,0,5.38-3.06,5.38-6.54V240.7h10v30.46Z"/><path class="cls-2" d="M304,271.16v-4h-.12c-2,3.06-5.94,4.83-10,4.83-9.18,0-14.5-7.71-14.5-16.21s5.5-16,14.37-16a12,12,0,0,1,9.3,4.1h.12v-19h10v46.24ZM296.29,248c-4.77,0-7.21,3.85-7.21,7.77s2.44,7.89,7.21,7.89c4.53,0,7.34-3.85,7.34-7.83S300.82,248,296.29,248Z"/><path class="cls-2" d="M337.27,271.16V254.65c0-3.43-.86-6.42-4.47-6.42s-5.44,2.87-5.44,6.48v16.45h-10V224.92h10v19.64h.12a9.91,9.91,0,0,1,8.75-4.72c8.25,0,11.13,6.36,11.13,12.48v18.84Z"/><path class="cls-2" d="M351.3,244.86a20,20,0,0,1,13.58-5.14c10.21,0,14,5,14,16.09v15.35h-9.18v-3.24h-.18c-1.53,2.51-5,4-8.63,4-4.83,0-11.07-2.38-11.07-9.54,0-8.8,10.71-10.27,19.58-10.27v-.49c0-3-2.39-4.4-5.51-4.4a11.52,11.52,0,0,0-7.52,3.11Zm18.41,13h-1.28c-4.4,0-9.36.55-9.36,4.16,0,2.32,2.33,3.12,4.34,3.12,4,0,6.3-2.45,6.3-6.24Z"/><path class="cls-2" d="M388,236.48a5.51,5.51,0,1,1,5.75-5.51A5.62,5.62,0,0,1,388,236.48Zm-5,34.68V240.7h10v30.46Z"/><path class="cls-2" d="M397.47,271.16V224.92h10.15v46.24Z"/><path class="cls-2" d="M442.46,258.69H420.38c.3,3.36,3.67,5.74,7.28,5.74a8,8,0,0,0,6.73-3.18l7,4.41c-2.87,4.16-7.65,6.48-13.82,6.48-9.18,0-16.77-5.81-16.77-16.08,0-10,7.23-16.34,16.46-16.34,9,0,15.29,6.18,15.29,16.58C442.52,257.09,442.52,258,442.46,258.69Zm-9.17-6.24c0-3.19-2-5.82-6-5.82a6.63,6.63,0,0,0-6.91,5.82Z"/><path class="cls-2" d="M464.87,248.9a10,10,0,0,0-2.57-.31,6.88,6.88,0,0,0-7.15,6.91v15.66h-10V240.7h9.66v4.4h.12a9.22,9.22,0,0,1,8.26-5.26,6.86,6.86,0,0,1,2.14.25Z"/></g></g></g></svg>